<svg width="48" height="48" viewBox="0 0 48 48" fill="none" xmlns="http://www.w3.org/2000/svg">
<path d="M17.8262 31.4383L17.8258 31.4383L17.8255 31.4384C17.8172 31.4387 17.8079 31.439 17.7981 31.439C17.4586 31.439 17.1762 31.1711 17.1613 30.8287L17.2112 30.8265L17.1613 30.8287C17.0734 28.7974 16.9743 28.0065 16.9079 27.7018C16.8611 27.4872 16.7108 27.0867 16.274 26.3768C15.8375 25.6674 15.1165 24.6515 13.931 23.2063C12.8746 21.9187 11.8416 20.7719 11.4098 20.2988C9.32721 20.4593 7.61377 19.9706 6.31866 18.8378L6.35158 18.8002L6.31866 18.8378C5.18944 17.8501 4.5986 16.5599 4.28951 15.5023C3.98035 14.4445 3.95196 13.6158 3.95022 13.5463M17.8262 31.4383L4.00021 13.5451M17.8262 31.4383C18.1782 31.4231 18.4513 31.1254 18.4361 30.7734C18.3617 29.0532 18.2698 27.9577 18.1546 27.4297C18.0449 26.9266 17.723 26.2635 17.187 25.4309C16.6503 24.5973 15.8961 23.5898 14.9177 22.397L14.8822 22.4262L14.9177 22.397C13.5479 20.7273 12.2147 19.2879 12.1365 19.2035C12.1345 19.2014 12.1334 19.2001 12.133 19.1997L12.1328 19.1995C11.996 19.0528 11.7977 18.9786 11.5977 19.0001C9.7315 19.2005 8.24262 18.8219 7.16506 17.883C6.39156 17.2089 5.92544 16.33 5.64474 15.535M17.8262 31.4383L5.64474 15.535M3.95022 13.5463L4.00021 13.5451M3.95022 13.5463C3.95022 13.5464 3.95022 13.5464 3.95022 13.5464L4.00021 13.5451M3.95022 13.5463C3.9423 13.2438 4.14791 12.9772 4.44262 12.9083L4.45398 12.9569L4.44262 12.9083L10.2325 11.5544M4.00021 13.5451C3.99288 13.2662 4.18239 13.0205 4.454 12.957L10.2679 11.5975M10.2325 11.5544C10.229 11.562 10.2256 11.5695 10.2223 11.577L10.2679 11.5975M10.2325 11.5544L10.2565 11.5488L10.2679 11.5975M10.2325 11.5544C10.3965 11.1938 10.7132 10.595 11.2264 9.99721L11.2264 9.9972C12.2995 8.74767 13.7228 8.08647 15.3411 8.08647C16.5106 8.08647 17.7584 8.19035 18.8938 8.95405C20.2368 9.85691 21.0757 11.4571 21.4674 13.8308C21.8221 15.9797 22.7898 17.0394 23.6794 17.5632C24.5688 18.087 25.3869 18.079 25.4537 18.077C25.4539 18.077 25.4541 18.077 25.4543 18.077L10.2679 11.5975M5.64474 15.535C6.34984 15.1839 6.82481 14.4737 6.85692 13.654L10.8417 12.7225L10.8417 12.7225L10.8303 12.6738M5.64474 15.535L20.2581 14.0306C19.923 12.0006 19.2529 10.6728 18.2095 9.97119C17.3489 9.39227 16.3223 9.31262 15.3411 9.31262C12.3071 9.31262 11.2631 12.2618 11.253 12.2917C11.1874 12.4834 11.0278 12.6277 10.8303 12.6738M10.8303 12.6738L6.80812 13.6141L10.8303 12.6738ZM23.1546 18.7302C24.2895 19.3524 25.334 19.3557 25.482 19.3525L23.1546 18.7302Z" fill="#667085" stroke="#667085" stroke-width="0.1"/>
<path d="M28.7751 19.3524H36.0862C36.5909 19.3524 37.0596 19.3809 37.4794 19.4371C37.7035 19.4675 37.9317 19.3729 38.0694 19.194L38.0298 19.1635L38.0694 19.194C39.5314 17.2958 40.9922 14.2896 39.6148 10.7792L39.5696 10.7969L39.6148 10.7792C39.486 10.4511 39.1159 10.2891 38.7879 10.4182C38.4598 10.5467 38.2982 10.917 38.427 11.2451C39.5198 14.03 38.4598 16.4791 37.2715 18.1296C36.8996 18.0946 36.5024 18.0765 36.0862 18.0765H28.7751C28.4228 18.0765 28.137 18.3623 28.137 18.7146C28.137 19.0669 28.4228 19.3524 28.7751 19.3524Z" fill="#667085" stroke="#667085" stroke-width="0.1"/>
<path d="M34.1311 5.13538L34.1311 5.13537C35.276 4.80986 37.0059 4.51239 38.7317 4.95406L38.7204 4.99838L38.7317 4.95406C40.7538 5.47203 42.2874 6.84841 43.2908 9.03775C44.2268 11.0797 44.2976 13.2475 43.5028 15.4788C43.0009 16.8876 42.1679 18.2899 41.0243 19.6544C41.4702 20.0895 41.8266 20.6157 42.088 21.2248C42.4625 22.0972 42.6515 23.1669 42.6515 24.4025C42.6515 28.6225 41.3361 31.8278 41.0261 32.5241V40.6195C41.0261 42.1177 39.8074 43.3367 38.3092 43.3367C36.8106 43.3367 35.5916 42.1177 35.5916 40.6195V36.1886C33.9273 35.3224 33.05 33.4743 32.7182 32.6159H22.6979V40.6634C22.6979 42.1376 21.4988 43.3367 20.0246 43.3367C18.5585 43.3367 17.3594 42.1448 17.351 40.679C17.3397 38.7147 17.312 35.8269 17.2427 33.2234L17.2427 33.2234C17.2334 32.8711 17.5112 32.5781 17.8635 32.5687C17.8635 32.5687 17.8635 32.5687 17.8636 32.5687L17.8649 32.6187C18.1887 32.6096 18.4594 32.8662 18.4682 33.1909L34.1311 5.13538ZM34.1311 5.13538C33.6865 5.26195 33.3871 5.67637 33.4063 6.138L34.1311 5.13538ZM39.8129 32.1097C39.7714 32.1956 39.7503 32.29 39.7503 32.3853V40.6195C39.7503 41.4143 39.1037 42.0609 38.3089 42.0609C37.514 42.0609 36.8675 41.4143 36.8675 40.6195V35.7788C36.8675 35.5162 36.7066 35.2805 36.4622 35.1848L36.4622 35.1848C35.529 34.8197 34.8609 33.9834 34.4239 33.2283C34.2058 32.8515 34.0463 32.4969 33.9409 32.2348C33.8882 32.1038 33.8491 31.996 33.8229 31.9203C33.8098 31.8824 33.8 31.8526 33.7933 31.8319L33.7857 31.8079L33.7837 31.8013L33.7831 31.7994L33.7829 31.7989L33.7829 31.7987L33.7829 31.7987L39.8579 32.1313M39.8129 32.1097C39.8129 32.1097 39.8129 32.1096 39.8129 32.1096L39.8579 32.1313M39.8129 32.1097C39.8128 32.1098 39.8128 32.1099 39.8127 32.11L39.8579 32.1313M39.8129 32.1097C39.8348 32.0631 41.3753 28.7696 41.3753 24.4028C41.3753 22.3797 40.838 21.0256 39.7464 20.2439L39.7756 20.2033C40.8858 20.9983 41.4253 22.3718 41.4253 24.4028C41.4253 28.7918 39.8732 32.099 39.8579 32.1313M37.396 9.30158L37.396 9.30157C36.3304 7.80966 35.0664 7.26898 34.1954 7.0777L34.2061 7.02886L37.396 9.30158ZM37.396 9.30158C37.6009 9.58828 37.9993 9.65488 38.286 9.44992L37.396 9.30158ZM22.6479 32.6159V32.5659H22.6979L22.6479 32.6159ZM35.4537 6.13765C35.4243 6.12571 35.395 6.11409 35.3659 6.10278C35.3345 6.10862 35.3033 6.11458 35.2724 6.12066C35.3018 6.13163 35.3313 6.14293 35.361 6.15455C35.3917 6.1488 35.4226 6.14316 35.4537 6.13765Z" fill="#667085" stroke="#667085" stroke-width="0.1"/>
<path d="M15.2234 12.268C14.8814 12.3518 14.6718 12.6971 14.7555 13.0392L14.7555 13.0392C14.8273 13.3318 15.0608 14.199 15.4842 14.9941C15.6959 15.3917 15.9563 15.7738 16.2698 16.057C16.5838 16.3407 16.9532 16.527 17.3807 16.527C17.4065 16.527 17.4327 16.5264 17.4588 16.5251L17.459 16.5251C17.9138 16.5012 18.2652 16.2792 18.5348 15.9544C18.8036 15.6306 18.9923 15.2036 19.1253 14.7637C19.3913 13.8838 19.4385 12.9382 19.447 12.6234L19.447 12.6234C19.4562 12.2714 19.1786 11.9785 18.8267 11.9687C18.4718 11.9559 18.1811 12.2375 18.1715 12.5889C18.1528 13.2588 18.0417 13.927 17.8885 14.4289C17.8119 14.6802 17.7254 14.8875 17.6361 15.0321C17.5915 15.1045 17.5472 15.1593 17.5048 15.1961C17.4622 15.233 17.4245 15.2492 17.3918 15.2509M15.2234 12.268C15.5662 12.1836 15.9112 12.3936 15.9949 12.7358M15.2234 12.268C15.2234 12.268 15.2234 12.268 15.2234 12.268L15.2353 12.3166L15.2234 12.268C15.2234 12.268 15.2234 12.268 15.2234 12.268ZM15.9949 12.7358C15.9949 12.7359 15.9949 12.7359 15.9949 12.7359L15.9464 12.7478L15.9949 12.7358C15.9949 12.7358 15.9949 12.7358 15.9949 12.7358ZM15.9949 12.7358C16.1437 13.3393 16.3856 13.9736 16.647 14.456C16.7778 14.6974 16.9125 14.8988 17.0415 15.0391C17.1728 15.1819 17.2888 15.2512 17.3819 15.2512L17.3865 15.251L17.3918 15.2509M17.3918 15.2509L17.3944 15.3009V15.2509L17.3918 15.2509ZM17.4564 16.4752C19.2084 16.383 19.3802 13.2492 19.397 12.622L14.8041 13.0273C14.9469 13.6099 15.7337 16.477 17.3807 16.477C17.4057 16.477 17.4311 16.4764 17.4564 16.4752Z" fill="#667085" stroke="#667085" stroke-width="0.1"/>
<path d="M11.8377 13.726C11.8377 14.4819 12.3259 15.0919 12.9683 15.0919C13.6108 15.0919 14.0993 14.4819 14.0993 13.726C14.0993 12.9701 13.6107 12.3604 12.9683 12.3604C12.3262 12.3604 11.8377 12.9701 11.8377 13.726Z" fill="#667085" stroke="#667085" stroke-width="0.1"/>
</svg>
