<svg width="48" height="48" viewBox="0 0 48 48" fill="none" xmlns="http://www.w3.org/2000/svg">
<g clip-path="url(#clip0_87_6659)">
<mask id="path-1-outside-1_87_6659" maskUnits="userSpaceOnUse" x="5.42188" y="28.9031" width="37" height="16" fill="black">
<rect fill="white" x="5.42188" y="28.9031" width="37" height="16"/>
<path d="M41.6262 37.2587C41.5307 36.3337 40.2828 35.7594 37.4956 35.3825C37.7355 34.8558 37.9158 34.2686 38.0397 33.61C38.2036 32.7406 38.1426 31.6484 37.8588 30.3642C37.7886 30.0471 37.4749 29.8469 37.1581 29.9171C36.841 29.9873 36.6411 30.301 36.711 30.6178C36.9606 31.7463 37.0189 32.6799 36.8846 33.3925C36.426 35.8268 35.1625 37.4989 30.4897 38.1883C31.5996 35.3227 31.8895 33.1096 31.9045 32.9914C31.9447 32.6695 31.7168 32.3756 31.3948 32.335C31.0735 32.2941 30.7787 32.5224 30.7381 32.8447C30.7338 32.8798 30.2727 36.4027 28.2808 40.2315C28.1416 40.4985 28.2271 40.8275 28.4789 40.9932C29.0935 41.3985 29.695 41.8776 30.0478 42.227C29.9818 42.2111 29.9196 42.1953 29.8692 42.1822C29.5064 42.0897 29.164 42.0018 28.8551 42.0744C28.4572 42.1681 28.2075 42.451 28.0254 42.6576C27.9832 42.7052 27.9256 42.7708 27.8835 42.8108C27.7501 42.7632 27.509 42.6143 27.3708 42.5291C27.0467 42.3296 26.7909 42.1721 26.5044 42.1721C26.2785 42.1721 26.0545 42.2697 25.645 42.4568C25.6013 42.4767 25.5488 42.5008 25.4924 42.5261C25.6596 42.0396 25.9956 41.3463 26.3759 40.9148C26.4836 40.7921 26.5358 40.6303 26.5196 40.468C26.3499 38.755 25.9083 34.2894 25.8885 34.0562C25.8699 33.7483 25.6145 33.5045 25.302 33.5045C24.9773 33.5045 24.7142 33.7678 24.7142 34.0922C24.7142 34.1267 24.7142 34.16 25.1485 38.5472C24.7859 38.5524 24.4124 38.5551 24.0288 38.5551C23.6452 38.5551 23.2716 38.5521 22.9094 38.5472C23.3433 34.1603 23.3433 34.1267 23.3433 34.0922C23.3433 33.7678 23.0803 33.5045 22.7556 33.5045C22.4434 33.5045 22.1879 33.7483 22.169 34.0562C22.1495 34.2897 21.7079 38.755 21.5379 40.468C21.5217 40.6303 21.5739 40.7921 21.6819 40.9148C22.0622 41.3463 22.3979 42.0396 22.5651 42.5261C22.509 42.5008 22.4565 42.4767 22.4128 42.4568C22.0033 42.2697 21.779 42.1721 21.5532 42.1721C21.2666 42.1721 21.0109 42.3296 20.6871 42.5291C20.5476 42.6152 20.3035 42.7657 20.1753 42.8117C20.1329 42.7718 20.0746 42.7058 20.0322 42.6576C19.85 42.451 19.6003 42.1681 19.2027 42.0744C18.8935 42.0018 18.5511 42.0894 18.1883 42.1822C18.1379 42.195 18.076 42.2108 18.0104 42.2267C18.3632 41.8776 18.9643 41.3988 19.579 40.9932C19.8304 40.8275 19.9159 40.4985 19.7767 40.2315C17.7906 36.4137 17.324 32.8794 17.3194 32.8444C17.2786 32.5224 16.985 32.2944 16.663 32.335C16.3407 32.3756 16.1128 32.6695 16.1534 32.9914C16.1683 33.1099 16.4582 35.3242 17.5688 38.1911C14.0595 37.6927 11.778 36.6044 11.1729 33.3925C11.1253 33.1404 11.1018 32.8566 11.103 32.5483C11.1039 32.2239 10.8418 31.96 10.5171 31.9587C10.5164 31.9587 10.5158 31.9587 10.5152 31.9587C10.1914 31.9587 9.92867 32.2206 9.92745 32.5444C9.92623 32.9264 9.95675 33.285 10.0178 33.61C10.142 34.2686 10.3223 34.8558 10.5622 35.3825C7.77504 35.7594 6.52717 36.3337 6.43165 37.2584C6.31263 38.4114 7.30842 38.7144 7.90352 38.8954C8.21602 38.9906 8.5392 39.0889 8.67012 39.2445C8.83126 39.4365 8.84041 39.6052 8.84377 39.9119C8.84712 40.2598 8.85262 40.786 9.33907 41.2038C9.70192 41.5153 10.2515 41.465 10.8881 41.4067C11.1854 41.3795 11.7362 41.3289 11.8903 41.3997C11.9731 41.4702 12.064 41.6515 12.1446 41.8123C12.3518 42.2246 12.6902 42.8987 13.5356 42.8987C13.588 42.8987 13.6427 42.896 13.6994 42.8905C14.3186 42.831 14.7254 42.2533 15.2885 41.4537C15.7591 40.7857 16.3368 39.9666 17.1403 39.3123C17.4449 39.3605 17.762 39.4041 18.0915 39.4438C18.2194 39.7294 18.3555 40.0191 18.4999 40.3117C18.2811 40.4689 18.0043 40.6755 17.7324 40.9004C17.0143 41.494 16.3175 42.1919 16.5947 42.8691C16.9404 43.7144 17.9417 43.4584 18.4794 43.3211C18.6274 43.2832 18.8459 43.2274 18.9396 43.2231C18.9912 43.2542 19.0901 43.3662 19.1508 43.4352C19.3501 43.6613 19.6489 44.0001 20.1326 44.0001C20.1454 44.0001 20.1585 43.9998 20.1716 43.9992C20.5656 43.9845 20.9578 43.7431 21.3038 43.5298C21.3841 43.4804 21.494 43.4126 21.5718 43.3705C21.67 43.4096 21.8171 43.477 21.9243 43.5258C22.5145 43.7956 23.0244 44.0288 23.4392 43.8033C23.5603 43.7376 23.7727 43.575 23.8344 43.2253C23.9625 42.5014 23.3095 41.1095 22.7315 40.3441C22.7528 40.1289 22.7733 39.9217 22.7931 39.7212C23.1917 39.7273 23.6046 39.7304 24.0288 39.7304C24.453 39.7304 24.8659 39.727 25.2644 39.7212C25.2843 39.9214 25.305 40.128 25.3261 40.3425C25.0542 40.6987 24.7856 41.1638 24.5701 41.6569C24.3672 42.1205 24.1426 42.769 24.2232 43.2253C24.2851 43.5747 24.4972 43.7373 24.6184 43.8033C25.0334 44.0288 25.543 43.7956 26.1336 43.5255C26.2407 43.4767 26.3878 43.4096 26.486 43.3705C26.5636 43.4123 26.6734 43.4801 26.754 43.5298C27.0998 43.7428 27.4919 43.9845 27.8859 43.9992C27.8993 43.9995 27.9121 43.9998 27.925 43.9998C28.4087 43.9998 28.7074 43.661 28.9067 43.4349C28.9684 43.3653 29.0691 43.2509 29.1161 43.2228C29.2088 43.2265 29.4292 43.2826 29.5781 43.3208C30.1161 43.4584 31.1174 43.7144 31.4632 42.8691C31.7403 42.1916 31.0436 41.4937 30.3255 40.9004C30.0533 40.6755 29.7768 40.4689 29.5577 40.3114C29.7023 40.0191 29.8381 39.7294 29.966 39.4435C30.2959 39.4041 30.6126 39.3602 30.9175 39.312C31.7211 39.9663 32.2988 40.7857 32.769 41.4534C33.3324 42.2533 33.7392 42.831 34.3584 42.8905C34.4148 42.896 34.4695 42.8984 34.522 42.8984C35.3673 42.8984 35.7061 42.2246 35.913 41.812C35.9935 41.6515 36.0848 41.4702 36.1672 41.3997C36.3216 41.3286 36.8721 41.3792 37.1697 41.4064C37.806 41.465 38.3559 41.5153 38.7185 41.2038C39.2052 40.7857 39.2104 40.2598 39.2141 39.9119C39.2171 39.6052 39.2263 39.4365 39.3874 39.2445C39.5183 39.0886 39.8415 38.9903 40.154 38.8954C40.7491 38.7144 41.7452 38.4114 41.6262 37.2587ZM14.3278 40.7768C14.0714 41.1406 13.7229 41.6359 13.5624 41.7229C13.4547 41.7311 13.4068 41.7061 13.195 41.2846C13.0561 41.0084 12.8987 40.695 12.6048 40.4661C12.1479 40.1109 11.453 40.1747 10.7807 40.2363C10.5503 40.2574 10.2137 40.2882 10.0654 40.2702C10.0306 40.2193 10.0214 40.1387 10.019 39.9C10.0153 39.5463 10.0098 39.012 9.57039 38.4889C9.21517 38.0659 8.70033 37.9091 8.24593 37.7708C7.6429 37.5874 7.59102 37.5313 7.59742 37.4165C7.67799 37.3295 8.25356 36.8403 11.2177 36.4842C11.5629 36.9352 11.9758 37.3286 12.4638 37.6726C13.3 38.2625 14.3605 38.7089 15.7136 39.0327C15.1325 39.6348 14.6852 40.2696 14.3278 40.7768ZM39.8119 37.7711C39.3575 37.9094 38.8427 38.0659 38.4874 38.4889C38.0477 39.012 38.0422 39.5463 38.0385 39.9C38.0364 40.1387 38.0269 40.2196 37.9921 40.2702C37.8438 40.2882 37.5075 40.2574 37.2771 40.2363C36.6051 40.1747 35.9099 40.1109 35.4531 40.4661C35.1589 40.695 35.0014 41.0084 34.8628 41.2846C34.6511 41.7061 34.6028 41.7311 34.4954 41.7229C34.3349 41.6359 33.9864 41.1406 33.73 40.7768C33.3727 40.2696 32.9253 39.6348 32.3442 39.0327C33.6974 38.7089 34.7576 38.2628 35.5941 37.6729C36.0817 37.3286 36.4949 36.9356 36.8401 36.4842C39.804 36.8403 40.3798 37.3295 40.4601 37.4165C40.4668 37.5313 40.4149 37.5877 39.8119 37.7711Z"/>
</mask>
<path d="M41.6262 37.2587C41.5307 36.3337 40.2828 35.7594 37.4956 35.3825C37.7355 34.8558 37.9158 34.2686 38.0397 33.61C38.2036 32.7406 38.1426 31.6484 37.8588 30.3642C37.7886 30.0471 37.4749 29.8469 37.1581 29.9171C36.841 29.9873 36.6411 30.301 36.711 30.6178C36.9606 31.7463 37.0189 32.6799 36.8846 33.3925C36.426 35.8268 35.1625 37.4989 30.4897 38.1883C31.5996 35.3227 31.8895 33.1096 31.9045 32.9914C31.9447 32.6695 31.7168 32.3756 31.3948 32.335C31.0735 32.2941 30.7787 32.5224 30.7381 32.8447C30.7338 32.8798 30.2727 36.4027 28.2808 40.2315C28.1416 40.4985 28.2271 40.8275 28.4789 40.9932C29.0935 41.3985 29.695 41.8776 30.0478 42.227C29.9818 42.2111 29.9196 42.1953 29.8692 42.1822C29.5064 42.0897 29.164 42.0018 28.8551 42.0744C28.4572 42.1681 28.2075 42.451 28.0254 42.6576C27.9832 42.7052 27.9256 42.7708 27.8835 42.8108C27.7501 42.7632 27.509 42.6143 27.3708 42.5291C27.0467 42.3296 26.7909 42.1721 26.5044 42.1721C26.2785 42.1721 26.0545 42.2697 25.645 42.4568C25.6013 42.4767 25.5488 42.5008 25.4924 42.5261C25.6596 42.0396 25.9956 41.3463 26.3759 40.9148C26.4836 40.7921 26.5358 40.6303 26.5196 40.468C26.3499 38.755 25.9083 34.2894 25.8885 34.0562C25.8699 33.7483 25.6145 33.5045 25.302 33.5045C24.9773 33.5045 24.7142 33.7678 24.7142 34.0922C24.7142 34.1267 24.7142 34.16 25.1485 38.5472C24.7859 38.5524 24.4124 38.5551 24.0288 38.5551C23.6452 38.5551 23.2716 38.5521 22.9094 38.5472C23.3433 34.1603 23.3433 34.1267 23.3433 34.0922C23.3433 33.7678 23.0803 33.5045 22.7556 33.5045C22.4434 33.5045 22.1879 33.7483 22.169 34.0562C22.1495 34.2897 21.7079 38.755 21.5379 40.468C21.5217 40.6303 21.5739 40.7921 21.6819 40.9148C22.0622 41.3463 22.3979 42.0396 22.5651 42.5261C22.509 42.5008 22.4565 42.4767 22.4128 42.4568C22.0033 42.2697 21.779 42.1721 21.5532 42.1721C21.2666 42.1721 21.0109 42.3296 20.6871 42.5291C20.5476 42.6152 20.3035 42.7657 20.1753 42.8117C20.1329 42.7718 20.0746 42.7058 20.0322 42.6576C19.85 42.451 19.6003 42.1681 19.2027 42.0744C18.8935 42.0018 18.5511 42.0894 18.1883 42.1822C18.1379 42.195 18.076 42.2108 18.0104 42.2267C18.3632 41.8776 18.9643 41.3988 19.579 40.9932C19.8304 40.8275 19.9159 40.4985 19.7767 40.2315C17.7906 36.4137 17.324 32.8794 17.3194 32.8444C17.2786 32.5224 16.985 32.2944 16.663 32.335C16.3407 32.3756 16.1128 32.6695 16.1534 32.9914C16.1683 33.1099 16.4582 35.3242 17.5688 38.1911C14.0595 37.6927 11.778 36.6044 11.1729 33.3925C11.1253 33.1404 11.1018 32.8566 11.103 32.5483C11.1039 32.2239 10.8418 31.96 10.5171 31.9587C10.5164 31.9587 10.5158 31.9587 10.5152 31.9587C10.1914 31.9587 9.92867 32.2206 9.92745 32.5444C9.92623 32.9264 9.95675 33.285 10.0178 33.61C10.142 34.2686 10.3223 34.8558 10.5622 35.3825C7.77504 35.7594 6.52717 36.3337 6.43165 37.2584C6.31263 38.4114 7.30842 38.7144 7.90352 38.8954C8.21602 38.9906 8.5392 39.0889 8.67012 39.2445C8.83126 39.4365 8.84041 39.6052 8.84377 39.9119C8.84712 40.2598 8.85262 40.786 9.33907 41.2038C9.70192 41.5153 10.2515 41.465 10.8881 41.4067C11.1854 41.3795 11.7362 41.3289 11.8903 41.3997C11.9731 41.4702 12.064 41.6515 12.1446 41.8123C12.3518 42.2246 12.6902 42.8987 13.5356 42.8987C13.588 42.8987 13.6427 42.896 13.6994 42.8905C14.3186 42.831 14.7254 42.2533 15.2885 41.4537C15.7591 40.7857 16.3368 39.9666 17.1403 39.3123C17.4449 39.3605 17.762 39.4041 18.0915 39.4438C18.2194 39.7294 18.3555 40.0191 18.4999 40.3117C18.2811 40.4689 18.0043 40.6755 17.7324 40.9004C17.0143 41.494 16.3175 42.1919 16.5947 42.8691C16.9404 43.7144 17.9417 43.4584 18.4794 43.3211C18.6274 43.2832 18.8459 43.2274 18.9396 43.2231C18.9912 43.2542 19.0901 43.3662 19.1508 43.4352C19.3501 43.6613 19.6489 44.0001 20.1326 44.0001C20.1454 44.0001 20.1585 43.9998 20.1716 43.9992C20.5656 43.9845 20.9578 43.7431 21.3038 43.5298C21.3841 43.4804 21.494 43.4126 21.5718 43.3705C21.67 43.4096 21.8171 43.477 21.9243 43.5258C22.5145 43.7956 23.0244 44.0288 23.4392 43.8033C23.5603 43.7376 23.7727 43.575 23.8344 43.2253C23.9625 42.5014 23.3095 41.1095 22.7315 40.3441C22.7528 40.1289 22.7733 39.9217 22.7931 39.7212C23.1917 39.7273 23.6046 39.7304 24.0288 39.7304C24.453 39.7304 24.8659 39.727 25.2644 39.7212C25.2843 39.9214 25.305 40.128 25.3261 40.3425C25.0542 40.6987 24.7856 41.1638 24.5701 41.6569C24.3672 42.1205 24.1426 42.769 24.2232 43.2253C24.2851 43.5747 24.4972 43.7373 24.6184 43.8033C25.0334 44.0288 25.543 43.7956 26.1336 43.5255C26.2407 43.4767 26.3878 43.4096 26.486 43.3705C26.5636 43.4123 26.6734 43.4801 26.754 43.5298C27.0998 43.7428 27.4919 43.9845 27.8859 43.9992C27.8993 43.9995 27.9121 43.9998 27.925 43.9998C28.4087 43.9998 28.7074 43.661 28.9067 43.4349C28.9684 43.3653 29.0691 43.2509 29.1161 43.2228C29.2088 43.2265 29.4292 43.2826 29.5781 43.3208C30.1161 43.4584 31.1174 43.7144 31.4632 42.8691C31.7403 42.1916 31.0436 41.4937 30.3255 40.9004C30.0533 40.6755 29.7768 40.4689 29.5577 40.3114C29.7023 40.0191 29.8381 39.7294 29.966 39.4435C30.2959 39.4041 30.6126 39.3602 30.9175 39.312C31.7211 39.9663 32.2988 40.7857 32.769 41.4534C33.3324 42.2533 33.7392 42.831 34.3584 42.8905C34.4148 42.896 34.4695 42.8984 34.522 42.8984C35.3673 42.8984 35.7061 42.2246 35.913 41.812C35.9935 41.6515 36.0848 41.4702 36.1672 41.3997C36.3216 41.3286 36.8721 41.3792 37.1697 41.4064C37.806 41.465 38.3559 41.5153 38.7185 41.2038C39.2052 40.7857 39.2104 40.2598 39.2141 39.9119C39.2171 39.6052 39.2263 39.4365 39.3874 39.2445C39.5183 39.0886 39.8415 38.9903 40.154 38.8954C40.7491 38.7144 41.7452 38.4114 41.6262 37.2587ZM14.3278 40.7768C14.0714 41.1406 13.7229 41.6359 13.5624 41.7229C13.4547 41.7311 13.4068 41.7061 13.195 41.2846C13.0561 41.0084 12.8987 40.695 12.6048 40.4661C12.1479 40.1109 11.453 40.1747 10.7807 40.2363C10.5503 40.2574 10.2137 40.2882 10.0654 40.2702C10.0306 40.2193 10.0214 40.1387 10.019 39.9C10.0153 39.5463 10.0098 39.012 9.57039 38.4889C9.21517 38.0659 8.70033 37.9091 8.24593 37.7708C7.6429 37.5874 7.59102 37.5313 7.59742 37.4165C7.67799 37.3295 8.25356 36.8403 11.2177 36.4842C11.5629 36.9352 11.9758 37.3286 12.4638 37.6726C13.3 38.2625 14.3605 38.7089 15.7136 39.0327C15.1325 39.6348 14.6852 40.2696 14.3278 40.7768ZM39.8119 37.7711C39.3575 37.9094 38.8427 38.0659 38.4874 38.4889C38.0477 39.012 38.0422 39.5463 38.0385 39.9C38.0364 40.1387 38.0269 40.2196 37.9921 40.2702C37.8438 40.2882 37.5075 40.2574 37.2771 40.2363C36.6051 40.1747 35.9099 40.1109 35.4531 40.4661C35.1589 40.695 35.0014 41.0084 34.8628 41.2846C34.6511 41.7061 34.6028 41.7311 34.4954 41.7229C34.3349 41.6359 33.9864 41.1406 33.73 40.7768C33.3727 40.2696 32.9253 39.6348 32.3442 39.0327C33.6974 38.7089 34.7576 38.2628 35.5941 37.6729C36.0817 37.3286 36.4949 36.9356 36.8401 36.4842C39.804 36.8403 40.3798 37.3295 40.4601 37.4165C40.4668 37.5313 40.4149 37.5877 39.8119 37.7711Z" fill="#667085"/>
<path d="M41.6262 37.2587C41.5307 36.3337 40.2828 35.7594 37.4956 35.3825C37.7355 34.8558 37.9158 34.2686 38.0397 33.61C38.2036 32.7406 38.1426 31.6484 37.8588 30.3642C37.7886 30.0471 37.4749 29.8469 37.1581 29.9171C36.841 29.9873 36.6411 30.301 36.711 30.6178C36.9606 31.7463 37.0189 32.6799 36.8846 33.3925C36.426 35.8268 35.1625 37.4989 30.4897 38.1883C31.5996 35.3227 31.8895 33.1096 31.9045 32.9914C31.9447 32.6695 31.7168 32.3756 31.3948 32.335C31.0735 32.2941 30.7787 32.5224 30.7381 32.8447C30.7338 32.8798 30.2727 36.4027 28.2808 40.2315C28.1416 40.4985 28.2271 40.8275 28.4789 40.9932C29.0935 41.3985 29.695 41.8776 30.0478 42.227C29.9818 42.2111 29.9196 42.1953 29.8692 42.1822C29.5064 42.0897 29.164 42.0018 28.8551 42.0744C28.4572 42.1681 28.2075 42.451 28.0254 42.6576C27.9832 42.7052 27.9256 42.7708 27.8835 42.8108C27.7501 42.7632 27.509 42.6143 27.3708 42.5291C27.0467 42.3296 26.7909 42.1721 26.5044 42.1721C26.2785 42.1721 26.0545 42.2697 25.645 42.4568C25.6013 42.4767 25.5488 42.5008 25.4924 42.5261C25.6596 42.0396 25.9956 41.3463 26.3759 40.9148C26.4836 40.7921 26.5358 40.6303 26.5196 40.468C26.3499 38.755 25.9083 34.2894 25.8885 34.0562C25.8699 33.7483 25.6145 33.5045 25.302 33.5045C24.9773 33.5045 24.7142 33.7678 24.7142 34.0922C24.7142 34.1267 24.7142 34.16 25.1485 38.5472C24.7859 38.5524 24.4124 38.5551 24.0288 38.5551C23.6452 38.5551 23.2716 38.5521 22.9094 38.5472C23.3433 34.1603 23.3433 34.1267 23.3433 34.0922C23.3433 33.7678 23.0803 33.5045 22.7556 33.5045C22.4434 33.5045 22.1879 33.7483 22.169 34.0562C22.1495 34.2897 21.7079 38.755 21.5379 40.468C21.5217 40.6303 21.5739 40.7921 21.6819 40.9148C22.0622 41.3463 22.3979 42.0396 22.5651 42.5261C22.509 42.5008 22.4565 42.4767 22.4128 42.4568C22.0033 42.2697 21.779 42.1721 21.5532 42.1721C21.2666 42.1721 21.0109 42.3296 20.6871 42.5291C20.5476 42.6152 20.3035 42.7657 20.1753 42.8117C20.1329 42.7718 20.0746 42.7058 20.0322 42.6576C19.85 42.451 19.6003 42.1681 19.2027 42.0744C18.8935 42.0018 18.5511 42.0894 18.1883 42.1822C18.1379 42.195 18.076 42.2108 18.0104 42.2267C18.3632 41.8776 18.9643 41.3988 19.579 40.9932C19.8304 40.8275 19.9159 40.4985 19.7767 40.2315C17.7906 36.4137 17.324 32.8794 17.3194 32.8444C17.2786 32.5224 16.985 32.2944 16.663 32.335C16.3407 32.3756 16.1128 32.6695 16.1534 32.9914C16.1683 33.1099 16.4582 35.3242 17.5688 38.1911C14.0595 37.6927 11.778 36.6044 11.1729 33.3925C11.1253 33.1404 11.1018 32.8566 11.103 32.5483C11.1039 32.2239 10.8418 31.96 10.5171 31.9587C10.5164 31.9587 10.5158 31.9587 10.5152 31.9587C10.1914 31.9587 9.92867 32.2206 9.92745 32.5444C9.92623 32.9264 9.95675 33.285 10.0178 33.61C10.142 34.2686 10.3223 34.8558 10.5622 35.3825C7.77504 35.7594 6.52717 36.3337 6.43165 37.2584C6.31263 38.4114 7.30842 38.7144 7.90352 38.8954C8.21602 38.9906 8.5392 39.0889 8.67012 39.2445C8.83126 39.4365 8.84041 39.6052 8.84377 39.9119C8.84712 40.2598 8.85262 40.786 9.33907 41.2038C9.70192 41.5153 10.2515 41.465 10.8881 41.4067C11.1854 41.3795 11.7362 41.3289 11.8903 41.3997C11.9731 41.4702 12.064 41.6515 12.1446 41.8123C12.3518 42.2246 12.6902 42.8987 13.5356 42.8987C13.588 42.8987 13.6427 42.896 13.6994 42.8905C14.3186 42.831 14.7254 42.2533 15.2885 41.4537C15.7591 40.7857 16.3368 39.9666 17.1403 39.3123C17.4449 39.3605 17.762 39.4041 18.0915 39.4438C18.2194 39.7294 18.3555 40.0191 18.4999 40.3117C18.2811 40.4689 18.0043 40.6755 17.7324 40.9004C17.0143 41.494 16.3175 42.1919 16.5947 42.8691C16.9404 43.7144 17.9417 43.4584 18.4794 43.3211C18.6274 43.2832 18.8459 43.2274 18.9396 43.2231C18.9912 43.2542 19.0901 43.3662 19.1508 43.4352C19.3501 43.6613 19.6489 44.0001 20.1326 44.0001C20.1454 44.0001 20.1585 43.9998 20.1716 43.9992C20.5656 43.9845 20.9578 43.7431 21.3038 43.5298C21.3841 43.4804 21.494 43.4126 21.5718 43.3705C21.67 43.4096 21.8171 43.477 21.9243 43.5258C22.5145 43.7956 23.0244 44.0288 23.4392 43.8033C23.5603 43.7376 23.7727 43.575 23.8344 43.2253C23.9625 42.5014 23.3095 41.1095 22.7315 40.3441C22.7528 40.1289 22.7733 39.9217 22.7931 39.7212C23.1917 39.7273 23.6046 39.7304 24.0288 39.7304C24.453 39.7304 24.8659 39.727 25.2644 39.7212C25.2843 39.9214 25.305 40.128 25.3261 40.3425C25.0542 40.6987 24.7856 41.1638 24.5701 41.6569C24.3672 42.1205 24.1426 42.769 24.2232 43.2253C24.2851 43.5747 24.4972 43.7373 24.6184 43.8033C25.0334 44.0288 25.543 43.7956 26.1336 43.5255C26.2407 43.4767 26.3878 43.4096 26.486 43.3705C26.5636 43.4123 26.6734 43.4801 26.754 43.5298C27.0998 43.7428 27.4919 43.9845 27.8859 43.9992C27.8993 43.9995 27.9121 43.9998 27.925 43.9998C28.4087 43.9998 28.7074 43.661 28.9067 43.4349C28.9684 43.3653 29.0691 43.2509 29.1161 43.2228C29.2088 43.2265 29.4292 43.2826 29.5781 43.3208C30.1161 43.4584 31.1174 43.7144 31.4632 42.8691C31.7403 42.1916 31.0436 41.4937 30.3255 40.9004C30.0533 40.6755 29.7768 40.4689 29.5577 40.3114C29.7023 40.0191 29.8381 39.7294 29.966 39.4435C30.2959 39.4041 30.6126 39.3602 30.9175 39.312C31.7211 39.9663 32.2988 40.7857 32.769 41.4534C33.3324 42.2533 33.7392 42.831 34.3584 42.8905C34.4148 42.896 34.4695 42.8984 34.522 42.8984C35.3673 42.8984 35.7061 42.2246 35.913 41.812C35.9935 41.6515 36.0848 41.4702 36.1672 41.3997C36.3216 41.3286 36.8721 41.3792 37.1697 41.4064C37.806 41.465 38.3559 41.5153 38.7185 41.2038C39.2052 40.7857 39.2104 40.2598 39.2141 39.9119C39.2171 39.6052 39.2263 39.4365 39.3874 39.2445C39.5183 39.0886 39.8415 38.9903 40.154 38.8954C40.7491 38.7144 41.7452 38.4114 41.6262 37.2587ZM14.3278 40.7768C14.0714 41.1406 13.7229 41.6359 13.5624 41.7229C13.4547 41.7311 13.4068 41.7061 13.195 41.2846C13.0561 41.0084 12.8987 40.695 12.6048 40.4661C12.1479 40.1109 11.453 40.1747 10.7807 40.2363C10.5503 40.2574 10.2137 40.2882 10.0654 40.2702C10.0306 40.2193 10.0214 40.1387 10.019 39.9C10.0153 39.5463 10.0098 39.012 9.57039 38.4889C9.21517 38.0659 8.70033 37.9091 8.24593 37.7708C7.6429 37.5874 7.59102 37.5313 7.59742 37.4165C7.67799 37.3295 8.25356 36.8403 11.2177 36.4842C11.5629 36.9352 11.9758 37.3286 12.4638 37.6726C13.3 38.2625 14.3605 38.7089 15.7136 39.0327C15.1325 39.6348 14.6852 40.2696 14.3278 40.7768ZM39.8119 37.7711C39.3575 37.9094 38.8427 38.0659 38.4874 38.4889C38.0477 39.012 38.0422 39.5463 38.0385 39.9C38.0364 40.1387 38.0269 40.2196 37.9921 40.2702C37.8438 40.2882 37.5075 40.2574 37.2771 40.2363C36.6051 40.1747 35.9099 40.1109 35.4531 40.4661C35.1589 40.695 35.0014 41.0084 34.8628 41.2846C34.6511 41.7061 34.6028 41.7311 34.4954 41.7229C34.3349 41.6359 33.9864 41.1406 33.73 40.7768C33.3727 40.2696 32.9253 39.6348 32.3442 39.0327C33.6974 38.7089 34.7576 38.2628 35.5941 37.6729C36.0817 37.3286 36.4949 36.9356 36.8401 36.4842C39.804 36.8403 40.3798 37.3295 40.4601 37.4165C40.4668 37.5313 40.4149 37.5877 39.8119 37.7711Z" stroke="#667085" stroke-width="0.2" mask="url(#path-1-outside-1_87_6659)"/>
<path d="M10.6752 30.8319L10.6752 30.8319C10.3435 30.7448 10.136 30.3996 10.2166 30.0657M10.6752 30.8319L8.92755 13.875C8.58647 13.7895 8.23947 13.9971 8.15402 14.3386C7.56383 16.6963 7.53333 18.8705 8.06956 20.6257C8.63533 22.478 9.71753 24.0688 11.2845 25.3538C11.4354 25.4776 11.591 25.5984 11.7508 25.7167C11.2214 26.9151 10.5901 28.5157 10.2166 30.0657M10.6752 30.8319C11.0167 30.9215 11.3739 30.7071 11.4564 30.3644C11.7884 28.9872 12.3426 27.5529 12.8305 26.4305M10.6752 30.8319L12.7872 26.4047C12.8016 26.4133 12.816 26.4219 12.8305 26.4305M10.2166 30.0657L10.2652 30.0774L10.2166 30.0657C10.2166 30.0657 10.2166 30.0657 10.2166 30.0657ZM9.24512 20.2666L9.28916 20.2532C10.1955 23.2197 12.5945 25.3767 16.4337 26.6599C16.4337 26.6599 16.4337 26.6599 16.4337 26.6599L16.4179 26.7073L9.24512 20.2666ZM9.24512 20.2666L9.28916 20.2532C8.82205 18.7246 8.85577 16.787 9.39116 14.6485L9.39117 14.6485M9.24512 20.2666L9.39117 14.6485M16.0294 27.8696C16.3596 27.9799 16.7263 27.7967 16.8364 27.4669L12.8506 26.3843C12.8439 26.3997 12.8372 26.4151 12.8305 26.4305M16.0294 27.8696L16.0453 27.8221L16.0294 27.8696C16.0294 27.8696 16.0294 27.8696 16.0294 27.8696ZM16.0294 27.8696C14.848 27.4749 13.7786 26.9929 12.8305 26.4305M9.39117 14.6485C9.47659 14.3068 9.26901 13.9604 8.92756 13.875L9.39117 14.6485Z" fill="#667085" stroke="#667085" stroke-width="0.1"/>
<path d="M9.26128 12.8432L9.2613 12.8432C9.58882 12.9717 9.95901 12.8104 10.0878 12.4826L10.0878 12.4826C10.8498 10.5405 11.8999 8.81017 13.0289 7.52805C14.1595 6.24423 15.3631 5.41658 16.4307 5.26618C18.7623 4.93817 20.0003 6.75433 20.0511 6.83102C20.169 7.0114 20.3699 7.12031 20.5855 7.12031H27.4724C27.688 7.12031 27.8889 7.01137 28.0068 6.83093L28.0068 6.83086C28.0068 6.83087 28.0072 6.83034 28.0079 6.8292L28.0111 6.82463L28.0228 6.80783C28.033 6.79337 28.0481 6.77257 28.0681 6.74643C28.1079 6.69416 28.1671 6.62059 28.2451 6.53374C28.4014 6.35999 28.6332 6.13342 28.9383 5.91787C29.5481 5.48702 30.4497 5.10052 31.6274 5.26618C32.3641 5.36995 33.1767 5.79731 33.9928 6.49376C34.8084 7.1897 35.6243 8.15161 36.3676 9.31856L36.4098 9.2917L36.3676 9.31856C37.4371 10.997 38.2725 12.9681 38.7198 14.8681C39.2031 16.9193 39.2184 18.7812 38.7686 20.2534C37.8625 23.2199 35.4636 25.3772 31.6243 26.6601L31.6402 26.7075L31.6243 26.6601C31.3071 26.7662 31.1232 27.1101 31.2111 27.4326L31.2564 27.4203L31.2111 27.4327C31.3062 27.7817 31.6852 27.9845 32.0284 27.8698C33.2098 27.4752 34.2795 26.9931 35.2273 26.4307C35.5306 27.1273 35.798 27.8025 36.0242 28.4447C36.1459 28.7902 36.5461 28.9638 36.8818 28.8169L36.8818 28.8169C37.1839 28.6847 37.3366 28.3318 37.2272 28.0212C36.9686 27.2871 36.6596 26.5137 36.307 25.7169C36.4669 25.5988 36.6225 25.4778 36.7732 25.3543L36.7732 25.3543C38.3405 24.069 39.4224 22.4782 39.9885 20.6262L39.9407 20.6116L39.9885 20.6262C40.56 18.7554 40.4442 16.5751 39.9263 14.4556C39.4084 12.3357 38.4872 10.2725 37.4432 8.63342C35.7425 5.96347 33.6896 4.26874 31.8052 4.00352C29.2632 3.64586 27.6999 5.18332 27.1554 5.84508H20.9024C20.3579 5.18332 18.7938 3.64556 16.2529 4.00352C14.8749 4.19751 13.4226 5.13461 12.0505 6.70199L12.0505 6.702C10.805 8.12536 9.6868 10.0125 8.90038 12.0167L8.90037 12.0167C8.77188 12.3445 8.9335 12.7144 9.26128 12.8432Z" fill="#667085" stroke="#667085" stroke-width="0.1"/>
<path d="M21.3406 9.89675L21.3407 9.89676C21.6884 9.95102 21.9268 10.2764 21.8733 10.6242C21.8706 10.646 21.8177 11.1215 22.154 11.5044L22.154 11.5044C22.483 11.879 23.1256 12.0855 24.0283 12.0855C24.9402 12.0855 25.5855 11.8753 25.9121 11.4941C26.0763 11.3022 26.1446 11.0857 26.1716 10.9153C26.1965 10.7579 26.1856 10.6429 26.1842 10.628C26.1841 10.6267 26.184 10.6262 26.1841 10.6265L26.1838 10.6249L26.1838 10.6249C26.1299 10.2769 26.3683 9.95106 26.7163 9.89676L26.7163 9.89675C27.0637 9.84311 27.3901 10.0811 27.4441 10.4292C27.4442 10.4292 27.4442 10.4292 27.4442 10.4292L27.3947 10.4369C27.4112 10.5416 27.5339 11.4839 26.8427 12.2911C26.2632 12.9677 25.3165 13.3107 24.0286 13.3107C22.7408 13.3107 21.7941 12.9677 21.2146 12.2911L21.3406 9.89675ZM21.3406 9.89675C20.993 9.84312 20.6669 10.0811 20.6128 10.4291L21.3406 9.89675Z" fill="#667085" stroke="#667085" stroke-width="0.1"/>
<path d="M15.7911 10.1591C16.1799 10.3413 16.5757 10.2823 16.9112 10.0947C17.2457 9.90762 17.5231 9.59172 17.682 9.25248C17.8408 8.91391 17.9051 8.49818 17.8344 8.1211C17.7635 7.74295 17.5559 7.40058 17.169 7.21914L17.169 7.21913L15.2776 8.12575C14.8957 8.94016 15.109 9.83954 15.7911 10.1591ZM15.7911 10.1591L15.8124 10.1138L15.7911 10.1591C15.7911 10.1591 15.7911 10.1591 15.7911 10.1591Z" fill="#667085" stroke="#667085" stroke-width="0.1"/>
<path d="M32.2667 10.1592L32.2667 10.1592C32.9486 9.83964 33.1615 8.94057 32.78 8.12589L32.78 8.12588C32.3981 7.31117 31.571 6.89968 30.8885 7.21924L30.8885 7.21925C30.5017 7.40054 30.294 7.74292 30.2232 8.1211C30.1525 8.49823 30.2168 8.91404 30.3756 9.25262C30.5345 9.59185 30.8118 9.90774 31.1464 10.0948C31.4819 10.2824 31.8778 10.3414 32.2667 10.1592Z" fill="#667085" stroke="#667085" stroke-width="0.1"/>
</g>
<defs>
<clipPath id="clip0_87_6659">
<rect width="40" height="40" fill="white" transform="translate(4 4)"/>
</clipPath>
</defs>
</svg>
