<svg width="48" height="48" viewBox="0 0 48 48" fill="none" xmlns="http://www.w3.org/2000/svg">
<g clip-path="url(#clip0_87_6783)">
<path d="M8.92559 18.9369C8.92559 21.3882 10.9197 23.3824 13.3707 23.3824C15.8218 23.3824 17.8159 21.3882 17.8159 18.9369C17.8159 16.4859 15.8218 14.4917 13.3707 14.4917C10.9197 14.4917 8.92559 16.4859 8.92559 18.9369ZM16.5376 18.9369C16.5376 20.6833 15.1171 22.1041 13.3707 22.1041C11.6247 22.1041 10.2039 20.6833 10.2039 18.9369C10.2039 17.1908 11.6247 15.77 13.3707 15.77C15.1171 15.77 16.5376 17.1908 16.5376 18.9369Z" fill="#667085" stroke="#667085" stroke-width="0.1"/>
<path d="M12.1248 18.9369C12.1248 19.7867 12.6628 20.4722 13.3705 20.4722C14.0782 20.4722 14.6162 19.7867 14.6162 18.9369C14.6162 18.0874 14.0782 17.4019 13.3705 17.4019C12.6628 17.4019 12.1248 18.0874 12.1248 18.9369Z" fill="#667085" stroke="#667085" stroke-width="0.1"/>
<path d="M33.376 16.295L33.376 16.295L32.9898 17.461L32.9741 17.5084C32.9741 17.5084 32.9741 17.5084 32.9741 17.5084C33.22 17.59 33.4681 17.678 33.7121 17.7705L33.7121 17.7705C37.3668 19.1555 39.9648 21.2007 41.4407 23.8461C42.6977 26.0988 43.0738 28.7071 42.5267 31.3902C42.0328 33.8138 39.6799 36.7986 35.5286 37.983C35.2064 38.0749 35.0071 38.4112 35.0806 38.7382L35.1294 38.7272L35.0806 38.7382C35.1602 39.0916 35.5309 39.3114 35.8795 39.212L35.8658 39.1639L35.8795 39.212C39.2343 38.2549 42.9839 35.5469 43.7792 31.6455C44.3878 28.6608 43.9656 25.7479 42.5571 23.2234C40.9277 20.3029 38.1023 18.0673 34.1651 16.5753C33.9044 16.4765 33.6388 16.3822 33.376 16.295Z" fill="#667085" stroke="#667085" stroke-width="0.1"/>
<path d="M32.1063 27.4284L32.1063 27.4284C32.1443 27.406 33.0053 26.9042 34.14 26.7706C35.7086 26.5853 37.0381 27.1719 37.9806 28.4634C38.9198 29.75 39.0452 31.3945 38.3303 32.9722C37.4265 34.9669 35.3827 36.3848 33.1238 36.5875C31.834 36.7032 30.6883 36.6474 29.7187 36.4207C29.3555 36.336 28.9859 36.5632 28.8957 36.9284C28.8052 37.2955 29.029 37.6697 29.3938 37.7627C29.3938 37.7627 29.3938 37.7627 29.3938 37.7627L29.3815 37.8112L32.1063 27.4284ZM32.1063 27.4284C32.0165 27.4814 31.9414 27.5556 31.8868 27.6442L31.8868 27.6443M32.1063 27.4284L31.8868 27.6443M31.8868 27.6443L28.9248 32.463C28.7041 32.822 28.3046 33.0453 27.8831 33.0453H24.3072C24.4431 32.6552 24.7453 32.3532 25.2284 32.1318C25.5328 31.9924 25.8474 31.9146 26.0872 31.8718C26.3169 31.8308 26.4756 31.8222 26.4882 31.8215C26.4888 31.8214 26.4891 31.8214 26.489 31.8215L26.4909 31.8214M31.8868 27.6443L26.4909 31.8214M26.4909 31.8214C26.7091 31.8131 26.9081 31.6939 27.0183 31.5055L28.8945 28.3018C29.1403 27.8823 28.8276 27.34 28.343 27.34H21.1847C20.9629 27.34 20.7567 27.4552 20.6404 27.6443L19.4326 29.6093M26.4909 31.8214L19.6422 30.4887M19.6422 30.4887L19.6421 30.4886C19.3415 30.3036 19.2475 29.9099 19.4326 29.6093M19.6422 30.4887C19.9431 30.6734 20.3367 30.5794 20.5215 30.2787C20.5215 30.2787 20.5215 30.2787 20.5215 30.2787L21.5423 28.618H27.2282L26.0795 30.5792L19.6422 30.4887ZM19.4326 29.6093L19.4751 29.6355L19.4325 29.6093L19.4326 29.6093ZM30.0137 33.1324L30.0137 33.1325C29.5618 33.8672 28.7458 34.3236 27.8831 34.3236H23.5853C23.2416 34.3236 22.9592 34.0518 22.9466 33.7084M30.0137 33.1324L26.1103 30.6255C25.7856 30.6688 25.268 30.7689 24.7523 30.9993L24.7319 30.9537C24.7319 30.9537 24.7319 30.9537 24.7319 30.9537C23.537 31.4872 22.9 32.4667 22.9466 33.7084M30.0137 33.1324L32.8843 28.4627L30.0137 33.1324ZM22.9466 33.7084L22.9966 33.7065L22.9466 33.7084C22.9466 33.7084 22.9466 33.7084 22.9466 33.7084Z" fill="#667085" stroke="#667085" stroke-width="0.1"/>
<path d="M10.6624 25.957L10.6926 25.9898C10.4067 26.2528 10.0803 26.5528 9.71343 26.8355C10.6955 27.5323 12.7195 28.6329 15.0807 28.0183C16.7894 27.5733 17.8989 26.8797 18.5818 26.2967C18.9234 26.0052 19.1584 25.7411 19.3084 25.5492C19.3834 25.4533 19.4372 25.3755 19.4723 25.3213C19.4899 25.2942 19.5028 25.273 19.5114 25.2584L19.5212 25.2416L19.5237 25.2372C19.5242 25.2362 19.5245 25.2357 19.5245 25.2356L19.5245 25.2356L19.5685 25.259L19.5244 25.2357C19.689 24.9235 20.0757 24.804 20.3879 24.9685C20.7001 25.1331 20.8199 25.5197 20.6551 25.832M10.6624 25.957L15.7286 31.4801C15.627 31.6537 15.4436 31.7633 15.2425 31.7709L15.2419 31.7709C15.2199 31.7721 14.5716 31.8065 13.961 32.0862C13.4621 32.3148 13.1464 32.6312 13.0078 33.0451H13.0607M10.6624 25.957L10.6926 25.9898C10.8911 25.8072 11.1013 25.6139 11.2899 25.4615C11.3842 25.3853 11.472 25.3202 11.5495 25.272C11.6282 25.2231 11.6916 25.1946 11.7378 25.1869L11.7379 25.1869M10.6624 25.957L11.7379 25.1869M20.6551 25.832C20.6551 25.832 20.6551 25.832 20.6551 25.832L20.6111 25.8088L20.6551 25.8319C20.6551 25.8319 20.6551 25.8319 20.6551 25.832ZM20.6551 25.832C20.6111 25.9158 19.821 27.3598 17.5494 28.47L15.7718 31.5053C15.7718 31.5053 15.7718 31.5053 15.7718 31.5054C15.6615 31.6937 15.4626 31.8125 15.2446 31.8209M15.2446 31.8209C15.2445 31.8209 15.2445 31.8209 15.2444 31.8209L15.2425 31.7709L15.2456 31.8208L15.2451 31.8208C15.245 31.8209 15.2448 31.8209 15.2446 31.8209ZM15.2446 31.8209C15.2155 31.8224 14.5796 31.8578 13.9819 32.1316C13.4987 32.353 13.1966 32.655 13.0607 33.0451M13.0607 33.0451C13.0549 33.0616 13.0495 33.0783 13.0443 33.0951L13.506 30.9991M13.0607 33.0451H16.6365C17.058 33.0451 17.4575 32.8216 17.6782 32.4625L18.1979 31.6172C18.3827 31.3165 18.7764 31.2229 19.077 31.4076C19.3776 31.5923 19.4716 31.986 19.2869 32.2866L18.7675 33.1319L18.7279 33.1076L18.7675 33.1319C18.3155 33.867 17.4996 34.3234 16.6368 34.3234H12.3387C11.995 34.3234 11.713 34.0515 11.7001 33.7079C11.6538 32.4666 12.2904 31.487 13.4856 30.9535M13.4856 30.9535L13.506 30.9991M13.4856 30.9535C13.4856 30.9535 13.4856 30.9535 13.4856 30.9535L13.506 30.9991M13.4856 30.9535C13.9947 30.7261 14.5047 30.6244 14.8332 30.579M13.506 30.9991C14.0218 30.7687 14.5394 30.6686 14.8641 30.6253M14.8332 30.579L14.8209 30.6L14.8641 30.6253M14.8332 30.579C14.8414 30.5779 14.8495 30.5768 14.8575 30.5757L14.8641 30.6253M14.8332 30.579L14.8641 30.6253M11.7379 25.1869C12.1164 25.1235 12.3443 25.2113 12.7415 25.3652L12.7415 25.3652M11.7379 25.1869L12.7415 25.3652M12.7415 25.3652L12.7421 25.3654C13.2845 25.5753 13.9643 25.8383 15.1934 25.7459C17.5345 25.5703 18.4863 23.7206 18.5276 23.6378C18.6854 23.3224 18.5585 22.9367 18.2428 22.7787L18.2428 22.7787M12.7415 25.3652L18.2428 22.7787M18.2428 22.7787C17.9273 22.621 17.5441 22.7464 17.3863 23.0623C17.358 23.117 16.699 24.3512 15.0978 24.4713C14.155 24.5419 13.6736 24.3553 13.2034 24.1732L13.203 24.173L13.185 24.2196L13.203 24.173C12.7412 23.9941 12.2535 23.8054 11.5276 23.9258L11.5276 23.9259M18.2428 22.7787L11.5276 23.9259M11.5276 23.9259C11.2315 23.9753 10.9537 24.1215 10.6774 24.3214C10.402 24.5205 10.1246 24.7757 9.82984 25.0467L9.82746 25.0489C9.31486 25.5204 8.77435 26.017 8.16684 26.322C7.56209 26.6255 6.89269 26.7381 6.11973 26.4416C5.70544 26.2827 5.43884 25.9358 5.30952 25.3649C5.00977 24.0413 5.48765 22.1557 6.3918 20.2306C7.29468 18.3083 8.6174 16.3576 9.99248 14.9083L9.95621 14.8739M11.5276 23.9259L9.95621 14.8739M9.95621 14.8739L9.99249 14.9083C11.9506 12.8442 14.2575 11.2348 16.4864 10.3758L16.4684 10.3292L9.95621 14.8739ZM15.6839 29.1265C15.7073 29.1199 15.7305 29.1132 15.7537 29.1064L15.717 29.1691C15.6939 29.1757 15.6707 29.1823 15.6474 29.1888L15.6839 29.1265ZM7.01675 27.8973C7.57169 27.8973 8.07987 27.7628 8.54257 27.555L22.6946 17.4905L22.7158 17.5358C22.7158 17.5358 22.7158 17.5358 22.7158 17.5358C22.7444 17.5224 26.0346 16.0206 30.7733 16.9326L30.7733 16.9326C31.1199 16.9991 31.4549 16.7724 31.5215 16.4257C31.5884 16.0791 31.3616 15.744 31.0146 15.6775C27.3953 14.981 24.5819 15.5694 23.1692 16.0091C23.2278 15.0889 23.259 13.7105 23.07 12.3973C22.8764 11.0524 22.4498 9.76024 21.5689 9.10857C20.9825 8.67452 20.1825 8.46771 19.2382 8.48167C18.2937 8.49562 17.2016 8.73041 16.0265 9.18329C13.6216 10.1102 11.1497 11.8312 9.06514 14.0286C7.40741 15.776 5.97772 17.9351 5.03937 20.1095C4.09843 22.2898 3.74796 24.2572 4.0627 25.6473C4.28487 26.6285 4.83687 27.3188 5.66186 27.6352C6.14008 27.8185 6.59139 27.8973 7.01675 27.8973Z" fill="#667085" stroke="#667085" stroke-width="0.1"/>
</g>
<defs>
<clipPath id="clip0_87_6783">
<rect width="40" height="40" fill="white" transform="translate(4 4)"/>
</clipPath>
</defs>
</svg>
