<svg width="48" height="48" viewBox="0 0 48 48" fill="none" xmlns="http://www.w3.org/2000/svg">
<g clip-path="url(#clip0_87_6655)">
<path d="M13.9662 25.6338L14.0047 25.6085C14.0702 25.7079 14.8705 26.9291 15.7174 28.4402C16.5632 29.9492 17.4599 31.7549 17.7131 33.0211C17.854 33.7241 17.9716 34.9066 18.0635 36.5337M13.9662 25.6338L4.92441 19.3728L4.97402 19.379L4.92441 19.3728C4.72703 20.9585 5.32191 22.3533 6.6904 23.5462C8.05381 24.7346 10.1859 25.7238 13.0722 26.5089C13.3653 26.9662 14.1067 28.1438 14.8278 29.4602C15.5585 30.7943 16.2646 32.264 16.4658 33.2705L16.5062 33.2625L16.4658 33.2705C16.5941 33.9122 16.7045 35.0336 16.7933 36.6052C16.8125 36.944 17.093 37.2057 17.4279 37.2057C17.7889 37.2057 18.084 36.8942 18.0635 36.5337M13.9662 25.6338L14.0047 25.6085C13.9186 25.4776 13.7874 25.3832 13.6358 25.3432C10.9993 24.6461 9.05774 23.8059 7.815 22.8318C6.57396 21.8591 6.03394 20.757 6.18667 19.5301C6.25811 18.9561 6.63958 18.3601 7.21362 17.7735C7.78662 17.188 8.54581 16.6176 9.36151 16.0944C10.9928 15.0483 12.8432 14.1957 13.8632 13.7935C14.106 13.6977 14.2659 13.4629 14.2659 13.2019V5.59665C14.2659 5.31435 14.5788 5.13369 14.8247 5.27388L14.8495 5.23044M13.9662 25.6338L14.8495 5.23044M18.0635 36.5337L18.0135 36.5365M18.0635 36.5337C18.0635 36.5337 18.0635 36.5337 18.0635 36.5336L18.0135 36.5365M18.0135 36.5365C17.9217 34.9096 17.8042 33.7301 17.6641 33.0309C17.1612 30.516 14.0933 25.834 13.963 25.636C13.8836 25.5154 13.7628 25.4284 13.623 25.3915L16.5148 33.2607C16.6439 33.9062 16.7544 35.0308 16.8432 36.6024C16.8609 36.9146 17.1194 37.1557 17.4279 37.1557C17.7602 37.1557 18.0325 36.8682 18.0135 36.5365ZM14.8495 5.23044L14.8247 5.27388C15.7305 5.79012 16.9721 6.69851 17.7578 8.09762C18.6605 9.70522 18.7763 11.6255 18.0949 13.8102L18.0949 13.8102M14.8495 5.23044L18.0949 13.8102M18.0949 13.8102C18.0171 14.0603 18.1002 14.3322 18.3042 14.4961L18.3043 14.4961M18.0949 13.8102L18.3043 14.4961M18.3043 14.4961L18.3044 14.4963L18.3049 14.4966L18.3065 14.4979L18.3121 14.5026L18.3326 14.52C18.3503 14.5351 18.3757 14.5573 18.4079 14.5866C18.4723 14.6451 18.5638 14.7317 18.6745 14.8458C18.8958 15.0741 19.1935 15.4124 19.5039 15.8561C20.1246 16.7437 20.7953 18.0526 21.0074 19.7474M18.3043 14.4961L21.5078 20.291M21.5078 20.291L21.5076 20.2909C21.242 20.2349 21.0409 20.0167 21.0074 19.7474M21.5078 20.291C21.5628 20.3023 27.1936 21.51 32.0676 24.396L32.0676 24.396M21.5078 20.291L32.0676 24.396M21.0074 19.7474L21.0565 19.7413L21.0074 19.7474C21.0074 19.7474 21.0074 19.7474 21.0074 19.7474ZM32.0676 24.396C32.37 24.5749 32.7601 24.4752 32.939 24.1728C33.1178 23.8704 33.0182 23.4803 32.7158 23.3014C28.3966 20.7436 23.6497 19.4885 22.204 19.1445C21.7147 16.2833 20.1191 14.4687 19.425 13.796C20.0791 11.4291 19.8938 9.303 18.8671 7.47463C17.9375 5.81938 16.4974 4.76304 15.4547 4.16863L15.4547 4.16863M32.0676 24.396L15.4547 4.16863M15.4547 4.16863C14.939 3.87478 14.3243 3.87729 13.8115 4.17525M15.4547 4.16863L13.8115 4.17525M13.8115 4.17525C13.6522 4.26756 13.5136 4.38308 13.3974 4.51576C13.2241 4.41415 13.0461 4.31474 12.8643 4.21828L13.8115 4.17525ZM10.9999 4.26657L10.9999 4.26656C11.575 3.92121 12.272 3.90335 12.8643 4.21827L10.9999 4.26657ZM10.9999 4.26657C10.4264 4.61131 10.0836 5.21748 10.0836 5.88687M10.9999 4.26657L10.0836 5.88687M10.0836 5.88687V8.66182M10.0836 5.88687V8.66182M10.0836 8.66182C10.0836 9.0132 10.3681 9.29807 10.7196 9.29807M10.0836 8.66182L10.7196 9.29807M10.7196 9.29807C11.071 9.29807 11.3558 9.01323 11.3558 8.66182M10.7196 9.29807L11.3558 8.66182M11.3558 8.66182V5.88718M11.3558 8.66182V5.88718M11.3558 5.88718C11.3558 5.42639 11.8587 5.12437 12.2671 5.34142M11.3558 5.88718L12.2671 5.34142M12.2671 5.34142C12.5188 5.4752 12.7617 5.61465 12.9938 5.75732M12.2671 5.34142C12.2671 5.34142 12.2671 5.34142 12.2671 5.34142L12.9938 5.75732M12.9938 5.75732V12.7764C12.6295 12.9312 12.0465 13.1884 11.3558 13.5285V11.0062C11.3558 10.6551 11.0709 10.3702 10.7196 10.3702C10.3681 10.3702 10.0836 10.6551 10.0836 11.0062V14.191C9.86517 14.3114 9.64338 14.4372 9.42069 14.5684C9.42069 14.5684 9.42068 14.5684 9.42068 14.5684L9.44606 14.6115L12.9938 5.75732Z" fill="#667085" stroke="#667085" stroke-width="0.1"/>
<path d="M11.3655 18.7527C11.3655 19.5982 11.9008 20.2804 12.6051 20.2804C13.3091 20.2804 13.8447 19.5982 13.8447 18.7527C13.8447 17.9075 13.3091 17.2254 12.6051 17.2254C11.9008 17.2254 11.3655 17.9075 11.3655 18.7527Z" fill="#667085" stroke="#667085" stroke-width="0.1"/>
<path d="M32.236 30.4329L32.236 30.433C32.2409 30.7827 31.9626 31.0704 31.6136 31.0779C31.5256 31.0808 29.4677 31.1744 28.5081 33.8363C27.4429 36.7913 29.3786 38.8276 29.4603 38.9117C29.8446 39.3066 29.5582 39.9926 29.0058 39.9926H23.6652C22.9099 39.9926 22.2945 40.5977 22.2745 41.3483V41.395L22.2743 41.4056L22.2742 41.4133C22.2893 42.1684 22.907 42.7778 23.6652 42.7778H30.7767C32.3579 42.7778 33.906 42.3499 35.2535 41.5407C36.6091 40.7264 37.7009 39.5605 38.4113 38.1694C39.5203 35.9972 39.5756 33.6256 38.572 31.1169C37.7833 29.145 36.2369 27.3041 33.9713 25.6462C33.6878 25.4389 33.6259 25.0408 33.8336 24.7572C33.8336 24.7572 33.8336 24.7572 33.8336 24.7572L33.8739 24.7867C34.0649 24.5258 34.4318 24.4688 34.693 24.6601C37.1439 26.453 38.8309 28.473 39.7067 30.6629C40.2774 32.0896 40.5447 33.4818 40.509 34.8307L32.236 30.4329ZM32.236 30.4329C32.2307 30.0849 31.9472 29.806 31.6 29.806H31.6H31.6H31.6H31.6H31.6H31.6H31.5999H31.5999H31.5999H31.5999H31.5999H31.5999H31.5998H31.5998H31.5998H31.5998H31.5998H31.5998H31.5997H31.5997H31.5997H31.5997H31.5997H31.5997H31.5996H31.5996H31.5996H31.5996H31.5996H31.5996H31.5995H31.5995H31.5995H31.5995H31.5995H31.5995H31.5994H31.5994H31.5994H31.5994H31.5994H31.5994H31.5994H31.5993H31.5993H31.5993H31.5993H31.5993H31.5993H31.5992H31.5992H31.5992H31.5992H31.5992H31.5992H31.5991H31.5991H31.5991H31.5991H31.5991H31.5991H31.599H31.599H31.599H31.599H31.599H31.599H31.5989H31.5989H31.5989H31.5989H31.5989H31.5989H31.5988H31.5988H31.5988H31.5988H31.5988H31.5988H31.5987H31.5987H31.5987H31.5987H31.5987H31.5987H31.5986H31.5986H31.5986H31.5986H31.5986H31.5986H31.5985H31.5985H31.5985H31.5985H31.5985H31.5985H31.5984H31.5984H31.5984H31.5984H31.5984H31.5984H31.5983H31.5983H31.5983H31.5983H31.5983H31.5983H31.5982H31.5982H31.5982H31.5982H31.5982H31.5982H31.5981H31.5981H31.5981H31.5981H31.5981H31.5981H31.598H31.598H31.598H31.598H31.598H31.598H31.5979H31.5979H31.5979H31.5979H31.5979H31.5979H31.5978H31.5978H31.5978H31.5978H31.5978H31.5978H31.5977H31.5977H31.5977H31.5977H31.5977H31.5977H31.5976H31.5976H31.5976H31.5976H31.5976H31.5976H31.5975H31.5975H31.5975H31.5975H31.5975H31.5975H31.5974H31.5974H31.5974H31.5974H31.5974H31.5974H31.5973H31.5973H31.5973H31.5973H31.5973H31.5973H31.5972H31.5972H31.5972H31.5972H31.5972H31.5971H31.5971H31.5971H31.5971H31.5971H31.5971H31.597H31.597H31.597H31.597H31.597H31.597H31.5969H31.5969H31.5969H31.5969H31.5969H31.5969H31.5968H31.5968H31.5968H31.5968H31.5968H31.5968H31.5967H31.5967H31.5967H31.5967H31.5967H31.5967H31.5966H31.5966H31.5966H31.5966H31.5966H31.5966H31.5965H31.5965H31.5965H31.5965H31.5965H31.5965H31.5964H31.5964H31.5964H31.5964H31.5964H31.5964H31.5963H31.5963H31.5963H31.5963H31.5963H31.5963H31.5962H31.5962H31.5962H31.5962H31.5962H31.5962H31.5961H31.5961H31.5961H31.5961H31.5961H31.596H31.596H31.596H31.596H31.596H31.596H31.5959H31.5959H31.5959H31.5959H31.5959H31.5959H31.5958H31.5958H31.5958H31.5958H31.5958H31.5958H31.5957H31.5957H31.5957H31.5957H31.5957H31.5957H31.5956H31.5956H31.5956H31.5956H31.5956H31.5956H31.5955H31.5955H31.5955H31.5955H31.5955H31.5955H31.5954H31.5954H31.5954H31.5954H31.5954H31.5954H31.5953H31.5953H31.5953H31.5953H31.5953H31.5953H31.5952H31.5952H31.5952H31.5952H31.5952H31.5951H31.5951H31.5951H31.5951H31.5951H31.5951H31.595H31.595H31.595H31.595H31.595H31.595H31.5949H31.5949H31.5949H31.5949H31.5949H31.5949H31.5948H31.5948H31.5948H31.5948H31.5948H31.5948H31.5947H31.5947H31.5947H31.5947H31.5947H31.5947H31.5946H31.5946H31.5946H31.5946H31.5946H31.5946H31.5945H31.5945H31.5945H31.5945H31.5945H31.5945H31.5944H31.5944H31.5944H31.5944H31.5944H31.5944H31.5943H31.5943H31.5943H31.5943H31.5943H31.5943H31.5942H31.5942H31.5942H31.5942H31.5942H31.5941H31.5941H31.5941H31.5941H31.5941H31.5941H31.594H31.594H31.594H31.594H31.594H31.594H31.5939H31.5939H31.5939H31.5939H31.5939H31.5939H31.5938H31.5938H31.5938H31.5938H31.5938H31.5938H31.5937H31.5937H31.5937H31.5937H31.5937H31.5937H31.5936H31.5936H31.5936H31.5936H31.5936H31.5936H31.5935H31.5935H31.5935H31.5935H31.5935H31.5935H31.5934H31.5934H31.5934H31.5934H31.5934H31.5934H31.5933H31.5933H31.5933H31.5933H31.5933H31.5933H31.5932H31.5932H31.5932H31.5932H31.5932H31.5932H31.5931H31.5931H31.5931H31.5931H31.5931H31.5931H31.593H31.593H31.593H31.593H31.593H31.593H31.5929H31.5929H31.5929H31.5929H31.5929H31.5929H31.5928H31.5928H31.5928H31.5928H31.5928H31.5928H31.5927H31.5927H31.5927H31.5927H31.5927H31.5927H31.5926H31.5926H31.5926H31.5926H31.5926H31.5926H31.5925H31.5925H31.5925H31.5925H31.5925H31.5925H31.5924H31.5924H31.5924H31.5924H31.5924H31.5924H31.5924H31.5923H31.5923H31.5923H31.5923H31.5923H31.5923H31.5922H31.5922H31.5922H31.5922H31.5922H31.5922H31.5921H31.5921H31.5921H31.5921H31.5921H31.5921H31.592H31.592H31.592H31.592H31.592H31.592H31.5919H31.5919H31.5919H31.5919H31.5919H31.5919H31.5918H31.5918H31.5918H31.5918H31.5918H31.5918H31.5917H31.5917H31.5917H31.5917H31.5917H31.5917H31.5916H31.5916H31.5916H31.5916H31.5916H31.5916H31.5916H31.5915H31.5915L31.5915 29.806L31.5907 29.806M32.236 30.4329L31.5907 29.806M40.5599 34.7935C42.082 35.2477 43.1689 36.6606 43.1689 38.2953C43.1689 40.3114 41.5288 41.9516 39.5129 41.9516C38.8155 41.9516 38.1398 41.7525 37.5583 41.384C37.0576 41.8537 36.5056 42.2725 35.9083 42.6314C34.363 43.5595 32.5884 44.0499 30.7767 44.0499H23.6652C22.8555 44.0499 22.129 43.6867 21.6401 43.1152C21.153 43.6867 20.428 44.0499 19.6195 44.0499C18.1845 44.0499 16.9938 42.8835 16.9651 41.4491M40.5599 34.7935L16.8986 38.9773C16.9252 39.7515 16.9474 40.5832 16.9651 41.4491M40.5599 34.7935C40.5898 33.449 40.3206 32.0629 39.7531 30.6443C38.8729 28.4435 37.1788 26.4166 34.7225 24.6198L40.5599 34.7935ZM16.9651 41.4491L17.0131 41.4481L16.9651 41.4491C16.9651 41.4491 16.9651 41.4491 16.9651 41.4491ZM31.5907 29.806C31.462 29.808 28.5778 29.892 27.3114 33.405C26.5894 35.4078 26.9726 37.0764 27.4973 38.2067C24.1644 36.9004 22.1442 34.6486 22.1163 34.6174C21.7363 34.185 21.0026 34.4634 21.0026 35.0373V41.3092C21.0017 41.3338 21.0008 41.3594 21.0008 41.3852C21.0008 41.3913 21.0009 41.3972 21.0011 41.4022L21.0011 41.4025L21.0014 41.4168L31.5907 29.806ZM17.5124 38.3195L17.5124 38.3195C17.8631 38.3079 18.1579 38.582 18.1698 38.9332C18.1698 38.9332 18.1698 38.9332 18.1698 38.9333L18.1199 38.935C18.147 39.715 18.1693 40.5527 18.187 41.4246C18.2026 42.1985 18.8453 42.8278 19.6195 42.8278C20.4023 42.8278 21.0395 42.197 21.0514 41.4169L17.5124 38.3195ZM17.5124 38.3195C17.1613 38.3318 16.8864 38.6258 16.8986 38.9773L17.5124 38.3195ZM22.2745 36.5265C23.0213 37.1669 24.1266 37.9946 25.5407 38.7208H23.6652C23.156 38.7208 22.6796 38.8649 22.2745 39.1138V36.5265ZM39.5129 40.6794C39.1403 40.6794 38.7771 40.5925 38.4494 40.4291C38.9571 39.805 39.3845 39.1149 39.7198 38.384C40.0629 37.6392 40.3013 36.8763 40.4348 36.097C41.2999 36.4601 41.8967 37.3173 41.8967 38.2953C41.8967 39.6099 40.8275 40.6794 39.5129 40.6794Z" fill="#667085" stroke="#667085" stroke-width="0.1"/>
</g>
<defs>
<clipPath id="clip0_87_6655">
<rect width="40" height="40" fill="white" transform="translate(4 4)"/>
</clipPath>
</defs>
</svg>
