<svg width="48" height="48" viewBox="0 0 48 48" fill="none" xmlns="http://www.w3.org/2000/svg">
<g clip-path="url(#clip0_87_6656)">
<path d="M23.9999 24.3611C25.0951 24.3611 25.986 25.252 25.986 26.3473C25.986 27.4426 25.0951 28.3335 23.9999 28.3335C22.9047 28.3335 22.0137 27.4425 22.0137 26.3473C22.0137 25.2521 22.9047 24.3611 23.9999 24.3611ZM23.9999 27.0615C24.3936 27.0615 24.7139 26.7411 24.7139 26.3474C24.7139 25.9537 24.3935 25.6333 23.9999 25.6333C23.6061 25.6333 23.2858 25.9537 23.2858 26.3474C23.2858 26.741 23.6061 27.0615 23.9999 27.0615Z" fill="#667085" stroke="#667085" stroke-width="0.1"/>
<path d="M12.317 26.411L12.3169 26.411C12.1223 26.7034 12.2015 27.0983 12.4938 27.293L12.317 26.411ZM12.317 26.411L12.7023 25.8323M12.317 26.411L12.7023 25.8323M13.3833 27.1049L13.3923 27.0912L13.436 27.0256L13.5685 26.8266L13.7009 26.6277L13.7446 26.5621L13.7568 26.5438L13.76 26.5389L13.7608 26.5377L13.7611 26.5374L13.7611 26.5373L13.7611 26.5373L13.7611 26.5373L13.7195 26.5096L13.3833 27.1049ZM13.3833 27.1049L13.3833 27.1049L13.3757 27.1162C13.1878 27.3983 12.7868 27.4883 12.4938 27.293L13.3833 27.1049ZM12.7023 25.8323C12.7023 25.8322 12.7023 25.8322 12.7023 25.8322L12.7023 25.8323Z" fill="#667085" stroke="#667085" stroke-width="0.1"/>
<mask id="path-3-outside-1_87_6656" maskUnits="userSpaceOnUse" x="2.96484" y="3" width="42" height="42" fill="black">
<rect fill="white" x="2.96484" y="3" width="42" height="42"/>
<path d="M10.8447 38.9816C6.51007 35.1836 4.03562 29.7438 4.03562 23.9646C4.03562 18.6318 6.11234 13.6182 9.88313 9.84736C13.6538 6.07672 18.6674 4 24.0002 4C29.3329 4 34.3465 6.07672 38.1174 9.84751C41.8882 13.6183 43.9648 18.6319 43.9648 23.9646C43.9648 26.5136 43.4892 28.9993 42.551 31.3528C42.4312 31.6535 42.0903 31.8001 41.7897 31.6802C41.489 31.5604 41.3424 31.2195 41.4623 30.9188C42.3451 28.704 42.7927 26.3643 42.7927 23.9647C42.7927 18.9451 40.838 14.2259 37.2886 10.6764C33.7392 7.12696 29.0198 5.17211 24.0002 5.17211C18.9806 5.17211 14.2613 7.12688 10.7119 10.6763C7.16242 14.2256 5.20773 18.9449 5.20773 23.9646C5.20773 29.3911 7.5257 34.5005 11.5875 38.0744L13.0826 36.2485C12.7953 35.9933 12.5182 35.7273 12.2495 35.4528C9.26282 32.4021 7.56594 28.2337 7.56594 23.9646C7.56594 20.106 8.93094 16.3554 11.4095 13.4035C11.6177 13.1556 11.9874 13.1235 12.2351 13.3316C12.483 13.5397 12.5152 13.9094 12.307 14.1572C10.0056 16.8983 8.73805 20.3812 8.73805 23.9645C8.73805 25.3366 8.92188 26.6833 9.27289 27.9758C9.34906 27.4558 9.47758 26.9455 9.66039 26.4528C9.34883 26.3105 9.13196 25.997 9.13196 25.6321C9.13196 25.1336 9.53602 24.7295 10.0346 24.7295C10.2122 24.7295 10.3774 24.7815 10.517 24.8701C11.3692 23.7514 12.5866 23.0587 14.096 22.8453C14.4221 21.4672 15.6682 20.4478 17.1253 20.4478C18.8419 20.4478 20.2385 21.8445 20.2385 23.5611C20.2385 23.6162 20.2364 23.6712 20.2335 23.7261C20.446 23.7725 20.6584 23.8174 20.8703 23.8593C21.6039 22.9381 22.734 22.3461 24.0004 22.3461C25.4492 22.3461 26.7205 23.12 27.4228 24.2761C29.8715 24.3784 32.3716 24.6644 34.2987 25.8579C34.3673 25.9004 34.4349 25.9439 34.5015 25.9882C34.6626 25.8078 34.8507 25.5793 34.9929 25.3524C35.2033 25.0171 35.5657 24.8169 35.9625 24.8169C36.3203 24.8169 36.6515 24.9789 36.8715 25.2615C37.7141 26.3441 37.6967 27.6125 36.8405 28.7881C37.1449 29.4776 37.3601 30.2519 37.4874 31.1146C38.641 28.9408 39.2629 26.495 39.2629 23.9644C39.2629 15.5487 32.4162 8.70212 24.0005 8.70212C20.2678 8.70212 16.6745 10.0648 13.8827 12.5392C13.6404 12.7538 13.27 12.7316 13.0554 12.4893C12.8407 12.247 12.8631 11.8767 13.1052 11.662C16.1117 8.99751 19.9811 7.53009 24.0007 7.53009C33.0626 7.53009 40.4351 14.9026 40.4351 23.9645C40.4351 28.6816 38.4318 33.1258 34.9184 36.2484L36.4135 38.0744C38.0251 36.6565 39.3713 34.9889 40.4201 33.1101C40.5779 32.8275 40.9348 32.7262 41.2176 32.884C41.5002 33.0417 41.6014 33.3987 41.4437 33.6813C40.3228 35.6891 38.8815 37.4691 37.1558 38.9809L38.3639 40.4564C39.1234 41.3841 38.9867 42.7567 38.059 43.5164C37.1419 44.2673 35.7481 44.1264 34.9989 43.2116L33.5824 41.4816C30.6574 43.0838 27.3558 43.929 24.0005 43.929C20.6453 43.929 17.3436 43.0838 14.4186 41.4816C14.4186 41.4816 13.0034 43.21 13.0021 43.2116C12.252 44.1278 10.8581 44.2663 9.94203 43.5164C9.0143 42.7567 8.87758 41.3841 9.63719 40.4563L10.8447 38.9816ZM10.4301 28.4627C10.4318 28.4636 10.3943 28.444 10.3945 28.4429C10.3054 29.3116 10.3712 30.2553 10.5914 31.2595C10.7522 31.5547 10.9229 31.8444 11.1029 32.1281C11.836 33.2837 12.7246 34.3407 13.7382 35.2603C13.7675 35.2869 13.797 35.3133 13.8265 35.3398L17.2206 31.1944C14.8637 30.5634 12.5656 29.645 10.4301 28.4627ZM17.1251 21.6201C16.34 21.6201 15.6532 22.0946 15.3499 22.7779C15.4317 22.78 15.5143 22.7836 15.5974 22.788C15.6006 22.7882 15.6038 22.7883 15.607 22.7885C15.9457 22.8086 16.2827 22.8447 16.6178 22.8982C17.2094 22.9926 17.7826 23.1561 18.3665 23.2858C18.5971 23.3423 18.8297 23.3993 19.0635 23.4556C19.0084 22.4343 18.16 21.6201 17.1251 21.6201ZM14.7046 23.9613C13.4142 24.0441 12.1999 24.5525 11.4167 25.613C11.0733 26.078 10.8284 26.6097 10.6558 27.1597C10.6486 27.1826 10.6414 27.2058 10.6344 27.2293C11.5468 27.7544 14.0962 29.1199 17.3733 30.0209C17.3746 30.0213 17.3758 30.0216 17.3771 30.0219C17.5886 30.0796 17.8006 30.1354 18.0135 30.1882C18.0221 30.1903 18.0309 30.1925 18.0396 30.1946L20.1892 27.5693C20.1664 27.4981 20.1464 27.4263 20.1276 27.3541C19.9219 26.565 19.9686 25.7164 20.2505 24.9523C20.2531 24.9451 20.2553 24.9379 20.2581 24.9307C18.4334 24.5468 16.5952 23.8399 14.7046 23.9613ZM24.4881 23.5604C24.3271 23.5323 24.1636 23.5183 24.0002 23.5183C22.5796 23.5183 21.3583 24.6148 21.1909 26.0236C21.0383 27.3083 21.8417 28.584 23.0589 29.0148C23.6778 29.234 24.3738 29.2276 24.9886 28.9977C26.0704 28.5933 26.8282 27.502 26.8292 26.3471C26.8303 24.9916 25.8229 23.7934 24.4881 23.5604ZM22.715 31.354C22.7233 31.3575 22.7314 31.3614 22.7398 31.3648C23.9901 31.8868 25.1607 32.6557 26.1431 33.5993C27.4568 34.8612 28.6349 36.5693 28.804 38.4296C28.8046 38.4363 28.8056 38.4433 28.8062 38.45C28.8821 38.4249 28.9582 38.4008 29.0338 38.3744C29.5009 38.2139 29.96 38.0252 30.4083 37.8181C30.4503 37.7987 30.4918 37.7784 30.5336 37.7587L24.4457 30.3237C24.15 30.3572 23.8504 30.3561 23.5546 30.3237L22.7121 31.3527C22.7131 31.3532 22.714 31.3536 22.715 31.354ZM21.9451 32.3087C21.9411 32.3072 21.9369 32.3059 21.9329 32.3044L17.4669 37.7586C17.5074 37.7779 17.6831 37.8599 17.7306 37.8813C19.6941 38.766 21.8467 39.2269 24.0002 39.2269C25.2318 39.2269 26.4586 39.0762 27.6487 38.784C27.7193 38.7661 27.5743 38.1142 27.5562 38.0369C27.1632 36.3639 25.9954 34.9298 24.6811 33.8699C23.8625 33.2098 22.9292 32.6797 21.9451 32.3087ZM35.9656 26.007C35.7989 26.2673 35.5952 26.5195 35.4159 26.7236C35.698 26.9961 35.9528 27.293 36.1802 27.615C36.4277 27.0531 36.3558 26.5222 35.9656 26.007ZM36.4501 32.7933C36.3926 30.2938 35.7029 28.5008 34.35 27.343C32.6169 25.86 30.101 25.6034 27.9063 25.4749C27.91 25.4915 27.9125 25.5084 27.9161 25.525C28.0581 26.1998 28.0219 26.9126 27.8113 27.5693L34.1738 35.3399C34.1843 35.3306 34.1946 35.3212 34.205 35.3119C35.0435 34.5592 35.7976 33.7117 36.4501 32.7933ZM35.9054 42.4693C36.2512 42.8916 36.8948 42.9546 37.3159 42.6098C37.7435 42.2597 37.8065 41.6269 37.4564 41.1993L27.2301 28.71C26.8411 29.2419 26.326 29.6684 25.7332 29.9533C25.715 29.9619 25.6975 29.9718 25.6793 29.9802C25.6795 29.9803 35.8899 42.4503 35.9054 42.4693ZM24.0002 42.7572C27.0852 42.7572 30.1216 41.9991 32.8262 40.5589L31.2981 38.6926C31.2963 38.6935 31.2944 38.6944 31.2926 38.6952C29.0068 39.7905 26.5407 40.3992 24.0003 40.3992C21.4818 40.3992 18.9595 39.8111 16.7024 38.6926L15.1742 40.5589C17.8787 41.9991 20.9151 42.7572 24.0002 42.7572ZM10.6843 42.6098C11.1084 42.957 11.7484 42.8923 12.0949 42.4693L22.3209 29.9804C21.7051 29.6958 21.1711 29.2583 20.7701 28.71L10.5438 41.1993C10.1936 41.6269 10.2567 42.2596 10.6843 42.6098Z"/>
</mask>
<path d="M10.8447 38.9816C6.51007 35.1836 4.03562 29.7438 4.03562 23.9646C4.03562 18.6318 6.11234 13.6182 9.88313 9.84736C13.6538 6.07672 18.6674 4 24.0002 4C29.3329 4 34.3465 6.07672 38.1174 9.84751C41.8882 13.6183 43.9648 18.6319 43.9648 23.9646C43.9648 26.5136 43.4892 28.9993 42.551 31.3528C42.4312 31.6535 42.0903 31.8001 41.7897 31.6802C41.489 31.5604 41.3424 31.2195 41.4623 30.9188C42.3451 28.704 42.7927 26.3643 42.7927 23.9647C42.7927 18.9451 40.838 14.2259 37.2886 10.6764C33.7392 7.12696 29.0198 5.17211 24.0002 5.17211C18.9806 5.17211 14.2613 7.12688 10.7119 10.6763C7.16242 14.2256 5.20773 18.9449 5.20773 23.9646C5.20773 29.3911 7.5257 34.5005 11.5875 38.0744L13.0826 36.2485C12.7953 35.9933 12.5182 35.7273 12.2495 35.4528C9.26282 32.4021 7.56594 28.2337 7.56594 23.9646C7.56594 20.106 8.93094 16.3554 11.4095 13.4035C11.6177 13.1556 11.9874 13.1235 12.2351 13.3316C12.483 13.5397 12.5152 13.9094 12.307 14.1572C10.0056 16.8983 8.73805 20.3812 8.73805 23.9645C8.73805 25.3366 8.92188 26.6833 9.27289 27.9758C9.34906 27.4558 9.47758 26.9455 9.66039 26.4528C9.34883 26.3105 9.13196 25.997 9.13196 25.6321C9.13196 25.1336 9.53602 24.7295 10.0346 24.7295C10.2122 24.7295 10.3774 24.7815 10.517 24.8701C11.3692 23.7514 12.5866 23.0587 14.096 22.8453C14.4221 21.4672 15.6682 20.4478 17.1253 20.4478C18.8419 20.4478 20.2385 21.8445 20.2385 23.5611C20.2385 23.6162 20.2364 23.6712 20.2335 23.7261C20.446 23.7725 20.6584 23.8174 20.8703 23.8593C21.6039 22.9381 22.734 22.3461 24.0004 22.3461C25.4492 22.3461 26.7205 23.12 27.4228 24.2761C29.8715 24.3784 32.3716 24.6644 34.2987 25.8579C34.3673 25.9004 34.4349 25.9439 34.5015 25.9882C34.6626 25.8078 34.8507 25.5793 34.9929 25.3524C35.2033 25.0171 35.5657 24.8169 35.9625 24.8169C36.3203 24.8169 36.6515 24.9789 36.8715 25.2615C37.7141 26.3441 37.6967 27.6125 36.8405 28.7881C37.1449 29.4776 37.3601 30.2519 37.4874 31.1146C38.641 28.9408 39.2629 26.495 39.2629 23.9644C39.2629 15.5487 32.4162 8.70212 24.0005 8.70212C20.2678 8.70212 16.6745 10.0648 13.8827 12.5392C13.6404 12.7538 13.27 12.7316 13.0554 12.4893C12.8407 12.247 12.8631 11.8767 13.1052 11.662C16.1117 8.99751 19.9811 7.53009 24.0007 7.53009C33.0626 7.53009 40.4351 14.9026 40.4351 23.9645C40.4351 28.6816 38.4318 33.1258 34.9184 36.2484L36.4135 38.0744C38.0251 36.6565 39.3713 34.9889 40.4201 33.1101C40.5779 32.8275 40.9348 32.7262 41.2176 32.884C41.5002 33.0417 41.6014 33.3987 41.4437 33.6813C40.3228 35.6891 38.8815 37.4691 37.1558 38.9809L38.3639 40.4564C39.1234 41.3841 38.9867 42.7567 38.059 43.5164C37.1419 44.2673 35.7481 44.1264 34.9989 43.2116L33.5824 41.4816C30.6574 43.0838 27.3558 43.929 24.0005 43.929C20.6453 43.929 17.3436 43.0838 14.4186 41.4816C14.4186 41.4816 13.0034 43.21 13.0021 43.2116C12.252 44.1278 10.8581 44.2663 9.94203 43.5164C9.0143 42.7567 8.87758 41.3841 9.63719 40.4563L10.8447 38.9816ZM10.4301 28.4627C10.4318 28.4636 10.3943 28.444 10.3945 28.4429C10.3054 29.3116 10.3712 30.2553 10.5914 31.2595C10.7522 31.5547 10.9229 31.8444 11.1029 32.1281C11.836 33.2837 12.7246 34.3407 13.7382 35.2603C13.7675 35.2869 13.797 35.3133 13.8265 35.3398L17.2206 31.1944C14.8637 30.5634 12.5656 29.645 10.4301 28.4627ZM17.1251 21.6201C16.34 21.6201 15.6532 22.0946 15.3499 22.7779C15.4317 22.78 15.5143 22.7836 15.5974 22.788C15.6006 22.7882 15.6038 22.7883 15.607 22.7885C15.9457 22.8086 16.2827 22.8447 16.6178 22.8982C17.2094 22.9926 17.7826 23.1561 18.3665 23.2858C18.5971 23.3423 18.8297 23.3993 19.0635 23.4556C19.0084 22.4343 18.16 21.6201 17.1251 21.6201ZM14.7046 23.9613C13.4142 24.0441 12.1999 24.5525 11.4167 25.613C11.0733 26.078 10.8284 26.6097 10.6558 27.1597C10.6486 27.1826 10.6414 27.2058 10.6344 27.2293C11.5468 27.7544 14.0962 29.1199 17.3733 30.0209C17.3746 30.0213 17.3758 30.0216 17.3771 30.0219C17.5886 30.0796 17.8006 30.1354 18.0135 30.1882C18.0221 30.1903 18.0309 30.1925 18.0396 30.1946L20.1892 27.5693C20.1664 27.4981 20.1464 27.4263 20.1276 27.3541C19.9219 26.565 19.9686 25.7164 20.2505 24.9523C20.2531 24.9451 20.2553 24.9379 20.2581 24.9307C18.4334 24.5468 16.5952 23.8399 14.7046 23.9613ZM24.4881 23.5604C24.3271 23.5323 24.1636 23.5183 24.0002 23.5183C22.5796 23.5183 21.3583 24.6148 21.1909 26.0236C21.0383 27.3083 21.8417 28.584 23.0589 29.0148C23.6778 29.234 24.3738 29.2276 24.9886 28.9977C26.0704 28.5933 26.8282 27.502 26.8292 26.3471C26.8303 24.9916 25.8229 23.7934 24.4881 23.5604ZM22.715 31.354C22.7233 31.3575 22.7314 31.3614 22.7398 31.3648C23.9901 31.8868 25.1607 32.6557 26.1431 33.5993C27.4568 34.8612 28.6349 36.5693 28.804 38.4296C28.8046 38.4363 28.8056 38.4433 28.8062 38.45C28.8821 38.4249 28.9582 38.4008 29.0338 38.3744C29.5009 38.2139 29.96 38.0252 30.4083 37.8181C30.4503 37.7987 30.4918 37.7784 30.5336 37.7587L24.4457 30.3237C24.15 30.3572 23.8504 30.3561 23.5546 30.3237L22.7121 31.3527C22.7131 31.3532 22.714 31.3536 22.715 31.354ZM21.9451 32.3087C21.9411 32.3072 21.9369 32.3059 21.9329 32.3044L17.4669 37.7586C17.5074 37.7779 17.6831 37.8599 17.7306 37.8813C19.6941 38.766 21.8467 39.2269 24.0002 39.2269C25.2318 39.2269 26.4586 39.0762 27.6487 38.784C27.7193 38.7661 27.5743 38.1142 27.5562 38.0369C27.1632 36.3639 25.9954 34.9298 24.6811 33.8699C23.8625 33.2098 22.9292 32.6797 21.9451 32.3087ZM35.9656 26.007C35.7989 26.2673 35.5952 26.5195 35.4159 26.7236C35.698 26.9961 35.9528 27.293 36.1802 27.615C36.4277 27.0531 36.3558 26.5222 35.9656 26.007ZM36.4501 32.7933C36.3926 30.2938 35.7029 28.5008 34.35 27.343C32.6169 25.86 30.101 25.6034 27.9063 25.4749C27.91 25.4915 27.9125 25.5084 27.9161 25.525C28.0581 26.1998 28.0219 26.9126 27.8113 27.5693L34.1738 35.3399C34.1843 35.3306 34.1946 35.3212 34.205 35.3119C35.0435 34.5592 35.7976 33.7117 36.4501 32.7933ZM35.9054 42.4693C36.2512 42.8916 36.8948 42.9546 37.3159 42.6098C37.7435 42.2597 37.8065 41.6269 37.4564 41.1993L27.2301 28.71C26.8411 29.2419 26.326 29.6684 25.7332 29.9533C25.715 29.9619 25.6975 29.9718 25.6793 29.9802C25.6795 29.9803 35.8899 42.4503 35.9054 42.4693ZM24.0002 42.7572C27.0852 42.7572 30.1216 41.9991 32.8262 40.5589L31.2981 38.6926C31.2963 38.6935 31.2944 38.6944 31.2926 38.6952C29.0068 39.7905 26.5407 40.3992 24.0003 40.3992C21.4818 40.3992 18.9595 39.8111 16.7024 38.6926L15.1742 40.5589C17.8787 41.9991 20.9151 42.7572 24.0002 42.7572ZM10.6843 42.6098C11.1084 42.957 11.7484 42.8923 12.0949 42.4693L22.3209 29.9804C21.7051 29.6958 21.1711 29.2583 20.7701 28.71L10.5438 41.1993C10.1936 41.6269 10.2567 42.2596 10.6843 42.6098Z" fill="#667085"/>
<path d="M10.8447 38.9816C6.51007 35.1836 4.03562 29.7438 4.03562 23.9646C4.03562 18.6318 6.11234 13.6182 9.88313 9.84736C13.6538 6.07672 18.6674 4 24.0002 4C29.3329 4 34.3465 6.07672 38.1174 9.84751C41.8882 13.6183 43.9648 18.6319 43.9648 23.9646C43.9648 26.5136 43.4892 28.9993 42.551 31.3528C42.4312 31.6535 42.0903 31.8001 41.7897 31.6802C41.489 31.5604 41.3424 31.2195 41.4623 30.9188C42.3451 28.704 42.7927 26.3643 42.7927 23.9647C42.7927 18.9451 40.838 14.2259 37.2886 10.6764C33.7392 7.12696 29.0198 5.17211 24.0002 5.17211C18.9806 5.17211 14.2613 7.12688 10.7119 10.6763C7.16242 14.2256 5.20773 18.9449 5.20773 23.9646C5.20773 29.3911 7.5257 34.5005 11.5875 38.0744L13.0826 36.2485C12.7953 35.9933 12.5182 35.7273 12.2495 35.4528C9.26282 32.4021 7.56594 28.2337 7.56594 23.9646C7.56594 20.106 8.93094 16.3554 11.4095 13.4035C11.6177 13.1556 11.9874 13.1235 12.2351 13.3316C12.483 13.5397 12.5152 13.9094 12.307 14.1572C10.0056 16.8983 8.73805 20.3812 8.73805 23.9645C8.73805 25.3366 8.92188 26.6833 9.27289 27.9758C9.34906 27.4558 9.47758 26.9455 9.66039 26.4528C9.34883 26.3105 9.13196 25.997 9.13196 25.6321C9.13196 25.1336 9.53602 24.7295 10.0346 24.7295C10.2122 24.7295 10.3774 24.7815 10.517 24.8701C11.3692 23.7514 12.5866 23.0587 14.096 22.8453C14.4221 21.4672 15.6682 20.4478 17.1253 20.4478C18.8419 20.4478 20.2385 21.8445 20.2385 23.5611C20.2385 23.6162 20.2364 23.6712 20.2335 23.7261C20.446 23.7725 20.6584 23.8174 20.8703 23.8593C21.6039 22.9381 22.734 22.3461 24.0004 22.3461C25.4492 22.3461 26.7205 23.12 27.4228 24.2761C29.8715 24.3784 32.3716 24.6644 34.2987 25.8579C34.3673 25.9004 34.4349 25.9439 34.5015 25.9882C34.6626 25.8078 34.8507 25.5793 34.9929 25.3524C35.2033 25.0171 35.5657 24.8169 35.9625 24.8169C36.3203 24.8169 36.6515 24.9789 36.8715 25.2615C37.7141 26.3441 37.6967 27.6125 36.8405 28.7881C37.1449 29.4776 37.3601 30.2519 37.4874 31.1146C38.641 28.9408 39.2629 26.495 39.2629 23.9644C39.2629 15.5487 32.4162 8.70212 24.0005 8.70212C20.2678 8.70212 16.6745 10.0648 13.8827 12.5392C13.6404 12.7538 13.27 12.7316 13.0554 12.4893C12.8407 12.247 12.8631 11.8767 13.1052 11.662C16.1117 8.99751 19.9811 7.53009 24.0007 7.53009C33.0626 7.53009 40.4351 14.9026 40.4351 23.9645C40.4351 28.6816 38.4318 33.1258 34.9184 36.2484L36.4135 38.0744C38.0251 36.6565 39.3713 34.9889 40.4201 33.1101C40.5779 32.8275 40.9348 32.7262 41.2176 32.884C41.5002 33.0417 41.6014 33.3987 41.4437 33.6813C40.3228 35.6891 38.8815 37.4691 37.1558 38.9809L38.3639 40.4564C39.1234 41.3841 38.9867 42.7567 38.059 43.5164C37.1419 44.2673 35.7481 44.1264 34.9989 43.2116L33.5824 41.4816C30.6574 43.0838 27.3558 43.929 24.0005 43.929C20.6453 43.929 17.3436 43.0838 14.4186 41.4816C14.4186 41.4816 13.0034 43.21 13.0021 43.2116C12.252 44.1278 10.8581 44.2663 9.94203 43.5164C9.0143 42.7567 8.87758 41.3841 9.63719 40.4563L10.8447 38.9816ZM10.4301 28.4627C10.4318 28.4636 10.3943 28.444 10.3945 28.4429C10.3054 29.3116 10.3712 30.2553 10.5914 31.2595C10.7522 31.5547 10.9229 31.8444 11.1029 32.1281C11.836 33.2837 12.7246 34.3407 13.7382 35.2603C13.7675 35.2869 13.797 35.3133 13.8265 35.3398L17.2206 31.1944C14.8637 30.5634 12.5656 29.645 10.4301 28.4627ZM17.1251 21.6201C16.34 21.6201 15.6532 22.0946 15.3499 22.7779C15.4317 22.78 15.5143 22.7836 15.5974 22.788C15.6006 22.7882 15.6038 22.7883 15.607 22.7885C15.9457 22.8086 16.2827 22.8447 16.6178 22.8982C17.2094 22.9926 17.7826 23.1561 18.3665 23.2858C18.5971 23.3423 18.8297 23.3993 19.0635 23.4556C19.0084 22.4343 18.16 21.6201 17.1251 21.6201ZM14.7046 23.9613C13.4142 24.0441 12.1999 24.5525 11.4167 25.613C11.0733 26.078 10.8284 26.6097 10.6558 27.1597C10.6486 27.1826 10.6414 27.2058 10.6344 27.2293C11.5468 27.7544 14.0962 29.1199 17.3733 30.0209C17.3746 30.0213 17.3758 30.0216 17.3771 30.0219C17.5886 30.0796 17.8006 30.1354 18.0135 30.1882C18.0221 30.1903 18.0309 30.1925 18.0396 30.1946L20.1892 27.5693C20.1664 27.4981 20.1464 27.4263 20.1276 27.3541C19.9219 26.565 19.9686 25.7164 20.2505 24.9523C20.2531 24.9451 20.2553 24.9379 20.2581 24.9307C18.4334 24.5468 16.5952 23.8399 14.7046 23.9613ZM24.4881 23.5604C24.3271 23.5323 24.1636 23.5183 24.0002 23.5183C22.5796 23.5183 21.3583 24.6148 21.1909 26.0236C21.0383 27.3083 21.8417 28.584 23.0589 29.0148C23.6778 29.234 24.3738 29.2276 24.9886 28.9977C26.0704 28.5933 26.8282 27.502 26.8292 26.3471C26.8303 24.9916 25.8229 23.7934 24.4881 23.5604ZM22.715 31.354C22.7233 31.3575 22.7314 31.3614 22.7398 31.3648C23.9901 31.8868 25.1607 32.6557 26.1431 33.5993C27.4568 34.8612 28.6349 36.5693 28.804 38.4296C28.8046 38.4363 28.8056 38.4433 28.8062 38.45C28.8821 38.4249 28.9582 38.4008 29.0338 38.3744C29.5009 38.2139 29.96 38.0252 30.4083 37.8181C30.4503 37.7987 30.4918 37.7784 30.5336 37.7587L24.4457 30.3237C24.15 30.3572 23.8504 30.3561 23.5546 30.3237L22.7121 31.3527C22.7131 31.3532 22.714 31.3536 22.715 31.354ZM21.9451 32.3087C21.9411 32.3072 21.9369 32.3059 21.9329 32.3044L17.4669 37.7586C17.5074 37.7779 17.6831 37.8599 17.7306 37.8813C19.6941 38.766 21.8467 39.2269 24.0002 39.2269C25.2318 39.2269 26.4586 39.0762 27.6487 38.784C27.7193 38.7661 27.5743 38.1142 27.5562 38.0369C27.1632 36.3639 25.9954 34.9298 24.6811 33.8699C23.8625 33.2098 22.9292 32.6797 21.9451 32.3087ZM35.9656 26.007C35.7989 26.2673 35.5952 26.5195 35.4159 26.7236C35.698 26.9961 35.9528 27.293 36.1802 27.615C36.4277 27.0531 36.3558 26.5222 35.9656 26.007ZM36.4501 32.7933C36.3926 30.2938 35.7029 28.5008 34.35 27.343C32.6169 25.86 30.101 25.6034 27.9063 25.4749C27.91 25.4915 27.9125 25.5084 27.9161 25.525C28.0581 26.1998 28.0219 26.9126 27.8113 27.5693L34.1738 35.3399C34.1843 35.3306 34.1946 35.3212 34.205 35.3119C35.0435 34.5592 35.7976 33.7117 36.4501 32.7933ZM35.9054 42.4693C36.2512 42.8916 36.8948 42.9546 37.3159 42.6098C37.7435 42.2597 37.8065 41.6269 37.4564 41.1993L27.2301 28.71C26.8411 29.2419 26.326 29.6684 25.7332 29.9533C25.715 29.9619 25.6975 29.9718 25.6793 29.9802C25.6795 29.9803 35.8899 42.4503 35.9054 42.4693ZM24.0002 42.7572C27.0852 42.7572 30.1216 41.9991 32.8262 40.5589L31.2981 38.6926C31.2963 38.6935 31.2944 38.6944 31.2926 38.6952C29.0068 39.7905 26.5407 40.3992 24.0003 40.3992C21.4818 40.3992 18.9595 39.8111 16.7024 38.6926L15.1742 40.5589C17.8787 41.9991 20.9151 42.7572 24.0002 42.7572ZM10.6843 42.6098C11.1084 42.957 11.7484 42.8923 12.0949 42.4693L22.3209 29.9804C21.7051 29.6958 21.1711 29.2583 20.7701 28.71L10.5438 41.1993C10.1936 41.6269 10.2567 42.2596 10.6843 42.6098Z" stroke="#667085" stroke-width="0.2" mask="url(#path-3-outside-1_87_6656)"/>
</g>
<defs>
<clipPath id="clip0_87_6656">
<rect width="40" height="40" fill="white" transform="matrix(-1 0 0 1 44 4)"/>
</clipPath>
</defs>
</svg>
