<svg width="48" height="48" viewBox="0 0 48 48" fill="none" xmlns="http://www.w3.org/2000/svg">
<g clip-path="url(#clip0_87_6657)">
<path d="M8.36389 23.3333C7.66114 23.3333 7.12676 24.0136 7.12676 24.857C7.12676 25.7004 7.66113 26.381 8.36389 26.381C9.06697 26.381 9.60103 25.7004 9.60103 24.857C9.60103 24.0136 9.06696 23.3333 8.36389 23.3333Z" fill="#667085" stroke="#667085" stroke-width="0.1"/>
<mask id="path-2-outside-1_87_6657" maskUnits="userSpaceOnUse" x="3" y="9.48438" width="42" height="29" fill="black">
<rect fill="white" x="3" y="9.48438" width="42" height="29"/>
<path d="M43.9836 33.5685C43.643 29.9738 42.9442 26.4857 42.9372 26.4509C42.9372 26.4506 42.9372 26.4506 42.9372 26.4506C42.6079 24.809 41.9542 22.32 40.71 19.7849C40.5675 19.4941 40.2165 19.3741 39.9257 19.5167C39.6352 19.6595 39.5152 20.0107 39.6577 20.301C40.2086 21.4231 40.6383 22.537 40.9724 23.5657L39.4478 24.491L35.6956 22.2849V17.8208L37.3619 16.6694C37.7757 17.1781 38.1697 17.7253 38.5435 18.3112C38.7175 18.584 39.0797 18.6643 39.3526 18.4901C39.6254 18.3158 39.7057 17.9536 39.5314 17.6807C37.9066 15.1343 35.8788 13.2331 33.5045 12.0301C30.5855 10.5512 27.1397 10.131 23.2628 10.7804C18.9293 11.5064 15.6605 13.8929 13.5475 17.8736C13.3958 18.1595 13.5048 18.5145 13.7904 18.6661C14.0727 18.816 14.4331 18.7052 14.583 18.4232C14.8915 17.8422 15.2272 17.2983 15.5888 16.7917L16.8327 17.7936V22.2382L12.6952 24.0662C12.8792 23.0509 13.1758 21.8009 13.6546 20.5067C13.7669 20.203 13.6119 19.8661 13.3086 19.7538C13.0049 19.6415 12.6677 19.7965 12.5554 20.0999C12.2655 20.8838 12.0393 21.6514 11.8617 22.3658C9.50057 21.0367 7.62557 20.5732 6.28128 20.9888C5.45547 21.2443 4.83901 21.8119 4.44869 22.6768C3.51821 24.7385 4.04098 26.8775 5.96054 28.8621C7.40585 30.3562 9.40841 31.5372 10.9596 32.3136C10.8992 32.7524 10.8522 33.2081 10.825 33.6759C10.764 34.7202 11.1262 35.7148 11.8449 36.4768C12.5652 37.2407 13.5402 37.6612 14.5897 37.6612C16.3683 37.6612 17.8816 36.4475 18.2701 34.7098C18.492 33.7162 18.8362 32.7402 19.2946 31.8021C21.4311 32.2773 23.586 32.4778 25.3834 32.5486C25.9401 32.5706 26.4833 32.5809 27.0158 32.5809C30.6715 32.5809 33.7566 32.0884 36.2129 31.4564C36.3176 32.2492 36.4217 33.1898 36.523 34.2643C36.7061 36.2009 38.3098 37.6612 40.2531 37.6612C41.3066 37.6612 42.3177 37.2141 43.0269 36.4347C43.7337 35.6577 44.0825 34.6128 43.9836 33.5685ZM41.7882 26.6819C41.9435 27.457 41.5532 28.2355 40.8388 28.5746C40.5989 28.6884 40.331 28.8096 40.0386 28.935V25.5036L41.321 24.7254C41.5236 25.4572 41.6756 26.1213 41.7882 26.6819ZM31.2727 31.1722V25.5121L35.1067 23.2987L38.8664 25.5091V29.4031C37.0116 30.0928 34.4603 30.8115 31.2727 31.1722ZM26.8501 17.8519L30.6868 15.6367L34.5235 17.8519V22.2819L30.6868 24.4971L26.8501 22.2819V17.8519ZM36.5831 15.7828L35.0813 16.8204L31.2727 14.6216V12.3588C33.2796 13.0268 35.0523 14.1694 36.5831 15.7828ZM23.4566 11.9367C25.8797 11.5308 28.0965 11.5629 30.1009 12.0289V14.6216L26.2642 16.8369L22.4275 14.6216V12.1494C22.7629 12.0667 23.1056 11.9953 23.4566 11.9367ZM21.8413 24.4971L18.0046 22.2819V17.8519L21.8413 15.6367L25.6779 17.8519V22.2819L21.8413 24.4971ZM21.2553 12.4976V14.6216L17.4736 16.8052L16.313 15.8698C17.6601 14.3064 19.312 13.1788 21.2553 12.4976ZM6.80313 28.0472C5.20095 26.3907 4.78012 24.7919 5.51711 23.1592C5.76644 22.6063 6.1296 22.2626 6.62734 22.1088C7.69363 21.7789 9.40719 22.2828 11.5968 23.5654C11.4955 24.0876 11.4214 24.5603 11.3683 24.9595C11.2233 26.0526 11.4754 27.1488 12.0378 28.0558C11.7699 28.7745 11.4247 29.8362 11.1662 31.1039C9.75418 30.3739 8.04153 29.3275 6.80313 28.0472ZM17.126 34.4544C16.8584 35.6525 15.8156 36.4893 14.5897 36.4893C13.8661 36.4893 13.1941 36.1994 12.6976 35.6727C12.2026 35.1481 11.953 34.4633 11.9951 33.7446C12.1037 31.8857 12.5371 30.2292 12.9152 29.0928C13.0635 29.2231 13.2204 29.3445 13.3867 29.4556C14.7829 30.3879 16.4308 31.0493 18.1346 31.5156C17.69 32.4662 17.35 33.4516 17.126 34.4544ZM25.4295 31.3776C24.3452 31.3349 23.3479 31.254 22.4275 31.1445V29.3983C22.4275 29.0745 22.1651 28.812 21.8413 28.812C21.5178 28.812 21.2553 29.0745 21.2553 29.3983V30.9836C17.6146 30.4117 15.3667 29.368 14.0373 28.4806C13.0351 27.8113 12.4547 26.6404 12.5032 25.4325L17.3833 23.2764L21.2553 25.5121V27.0539C21.2553 27.3777 21.5178 27.6401 21.8413 27.6401C22.1651 27.6401 22.4275 27.3777 22.4275 27.0539V25.5121L26.2642 23.2969L30.1009 25.5121V31.2861C29.1261 31.3648 28.0986 31.4091 27.0186 31.4091C26.501 31.4094 25.9709 31.399 25.4295 31.3776ZM42.1596 35.6461C41.6722 36.182 40.9773 36.4893 40.2531 36.4893C38.9177 36.4893 37.8157 35.4853 37.69 34.1541C37.5801 32.9923 37.4672 31.9822 37.3534 31.1408C39.0578 30.6351 40.3972 30.0818 41.3414 29.6335C41.6725 29.4764 41.9618 29.2628 42.2023 29.0088C42.412 30.2955 42.6552 31.9755 42.8166 33.679C42.8856 34.4062 42.6521 35.1047 42.1596 35.6461Z"/>
</mask>
<path d="M43.9836 33.5685C43.643 29.9738 42.9442 26.4857 42.9372 26.4509C42.9372 26.4506 42.9372 26.4506 42.9372 26.4506C42.6079 24.809 41.9542 22.32 40.71 19.7849C40.5675 19.4941 40.2165 19.3741 39.9257 19.5167C39.6352 19.6595 39.5152 20.0107 39.6577 20.301C40.2086 21.4231 40.6383 22.537 40.9724 23.5657L39.4478 24.491L35.6956 22.2849V17.8208L37.3619 16.6694C37.7757 17.1781 38.1697 17.7253 38.5435 18.3112C38.7175 18.584 39.0797 18.6643 39.3526 18.4901C39.6254 18.3158 39.7057 17.9536 39.5314 17.6807C37.9066 15.1343 35.8788 13.2331 33.5045 12.0301C30.5855 10.5512 27.1397 10.131 23.2628 10.7804C18.9293 11.5064 15.6605 13.8929 13.5475 17.8736C13.3958 18.1595 13.5048 18.5145 13.7904 18.6661C14.0727 18.816 14.4331 18.7052 14.583 18.4232C14.8915 17.8422 15.2272 17.2983 15.5888 16.7917L16.8327 17.7936V22.2382L12.6952 24.0662C12.8792 23.0509 13.1758 21.8009 13.6546 20.5067C13.7669 20.203 13.6119 19.8661 13.3086 19.7538C13.0049 19.6415 12.6677 19.7965 12.5554 20.0999C12.2655 20.8838 12.0393 21.6514 11.8617 22.3658C9.50057 21.0367 7.62557 20.5732 6.28128 20.9888C5.45547 21.2443 4.83901 21.8119 4.44869 22.6768C3.51821 24.7385 4.04098 26.8775 5.96054 28.8621C7.40585 30.3562 9.40841 31.5372 10.9596 32.3136C10.8992 32.7524 10.8522 33.2081 10.825 33.6759C10.764 34.7202 11.1262 35.7148 11.8449 36.4768C12.5652 37.2407 13.5402 37.6612 14.5897 37.6612C16.3683 37.6612 17.8816 36.4475 18.2701 34.7098C18.492 33.7162 18.8362 32.7402 19.2946 31.8021C21.4311 32.2773 23.586 32.4778 25.3834 32.5486C25.9401 32.5706 26.4833 32.5809 27.0158 32.5809C30.6715 32.5809 33.7566 32.0884 36.2129 31.4564C36.3176 32.2492 36.4217 33.1898 36.523 34.2643C36.7061 36.2009 38.3098 37.6612 40.2531 37.6612C41.3066 37.6612 42.3177 37.2141 43.0269 36.4347C43.7337 35.6577 44.0825 34.6128 43.9836 33.5685ZM41.7882 26.6819C41.9435 27.457 41.5532 28.2355 40.8388 28.5746C40.5989 28.6884 40.331 28.8096 40.0386 28.935V25.5036L41.321 24.7254C41.5236 25.4572 41.6756 26.1213 41.7882 26.6819ZM31.2727 31.1722V25.5121L35.1067 23.2987L38.8664 25.5091V29.4031C37.0116 30.0928 34.4603 30.8115 31.2727 31.1722ZM26.8501 17.8519L30.6868 15.6367L34.5235 17.8519V22.2819L30.6868 24.4971L26.8501 22.2819V17.8519ZM36.5831 15.7828L35.0813 16.8204L31.2727 14.6216V12.3588C33.2796 13.0268 35.0523 14.1694 36.5831 15.7828ZM23.4566 11.9367C25.8797 11.5308 28.0965 11.5629 30.1009 12.0289V14.6216L26.2642 16.8369L22.4275 14.6216V12.1494C22.7629 12.0667 23.1056 11.9953 23.4566 11.9367ZM21.8413 24.4971L18.0046 22.2819V17.8519L21.8413 15.6367L25.6779 17.8519V22.2819L21.8413 24.4971ZM21.2553 12.4976V14.6216L17.4736 16.8052L16.313 15.8698C17.6601 14.3064 19.312 13.1788 21.2553 12.4976ZM6.80313 28.0472C5.20095 26.3907 4.78012 24.7919 5.51711 23.1592C5.76644 22.6063 6.1296 22.2626 6.62734 22.1088C7.69363 21.7789 9.40719 22.2828 11.5968 23.5654C11.4955 24.0876 11.4214 24.5603 11.3683 24.9595C11.2233 26.0526 11.4754 27.1488 12.0378 28.0558C11.7699 28.7745 11.4247 29.8362 11.1662 31.1039C9.75418 30.3739 8.04153 29.3275 6.80313 28.0472ZM17.126 34.4544C16.8584 35.6525 15.8156 36.4893 14.5897 36.4893C13.8661 36.4893 13.1941 36.1994 12.6976 35.6727C12.2026 35.1481 11.953 34.4633 11.9951 33.7446C12.1037 31.8857 12.5371 30.2292 12.9152 29.0928C13.0635 29.2231 13.2204 29.3445 13.3867 29.4556C14.7829 30.3879 16.4308 31.0493 18.1346 31.5156C17.69 32.4662 17.35 33.4516 17.126 34.4544ZM25.4295 31.3776C24.3452 31.3349 23.3479 31.254 22.4275 31.1445V29.3983C22.4275 29.0745 22.1651 28.812 21.8413 28.812C21.5178 28.812 21.2553 29.0745 21.2553 29.3983V30.9836C17.6146 30.4117 15.3667 29.368 14.0373 28.4806C13.0351 27.8113 12.4547 26.6404 12.5032 25.4325L17.3833 23.2764L21.2553 25.5121V27.0539C21.2553 27.3777 21.5178 27.6401 21.8413 27.6401C22.1651 27.6401 22.4275 27.3777 22.4275 27.0539V25.5121L26.2642 23.2969L30.1009 25.5121V31.2861C29.1261 31.3648 28.0986 31.4091 27.0186 31.4091C26.501 31.4094 25.9709 31.399 25.4295 31.3776ZM42.1596 35.6461C41.6722 36.182 40.9773 36.4893 40.2531 36.4893C38.9177 36.4893 37.8157 35.4853 37.69 34.1541C37.5801 32.9923 37.4672 31.9822 37.3534 31.1408C39.0578 30.6351 40.3972 30.0818 41.3414 29.6335C41.6725 29.4764 41.9618 29.2628 42.2023 29.0088C42.412 30.2955 42.6552 31.9755 42.8166 33.679C42.8856 34.4062 42.6521 35.1047 42.1596 35.6461Z" fill="#667085"/>
<path d="M43.9836 33.5685C43.643 29.9738 42.9442 26.4857 42.9372 26.4509C42.9372 26.4506 42.9372 26.4506 42.9372 26.4506C42.6079 24.809 41.9542 22.32 40.71 19.7849C40.5675 19.4941 40.2165 19.3741 39.9257 19.5167C39.6352 19.6595 39.5152 20.0107 39.6577 20.301C40.2086 21.4231 40.6383 22.537 40.9724 23.5657L39.4478 24.491L35.6956 22.2849V17.8208L37.3619 16.6694C37.7757 17.1781 38.1697 17.7253 38.5435 18.3112C38.7175 18.584 39.0797 18.6643 39.3526 18.4901C39.6254 18.3158 39.7057 17.9536 39.5314 17.6807C37.9066 15.1343 35.8788 13.2331 33.5045 12.0301C30.5855 10.5512 27.1397 10.131 23.2628 10.7804C18.9293 11.5064 15.6605 13.8929 13.5475 17.8736C13.3958 18.1595 13.5048 18.5145 13.7904 18.6661C14.0727 18.816 14.4331 18.7052 14.583 18.4232C14.8915 17.8422 15.2272 17.2983 15.5888 16.7917L16.8327 17.7936V22.2382L12.6952 24.0662C12.8792 23.0509 13.1758 21.8009 13.6546 20.5067C13.7669 20.203 13.6119 19.8661 13.3086 19.7538C13.0049 19.6415 12.6677 19.7965 12.5554 20.0999C12.2655 20.8838 12.0393 21.6514 11.8617 22.3658C9.50057 21.0367 7.62557 20.5732 6.28128 20.9888C5.45547 21.2443 4.83901 21.8119 4.44869 22.6768C3.51821 24.7385 4.04098 26.8775 5.96054 28.8621C7.40585 30.3562 9.40841 31.5372 10.9596 32.3136C10.8992 32.7524 10.8522 33.2081 10.825 33.6759C10.764 34.7202 11.1262 35.7148 11.8449 36.4768C12.5652 37.2407 13.5402 37.6612 14.5897 37.6612C16.3683 37.6612 17.8816 36.4475 18.2701 34.7098C18.492 33.7162 18.8362 32.7402 19.2946 31.8021C21.4311 32.2773 23.586 32.4778 25.3834 32.5486C25.9401 32.5706 26.4833 32.5809 27.0158 32.5809C30.6715 32.5809 33.7566 32.0884 36.2129 31.4564C36.3176 32.2492 36.4217 33.1898 36.523 34.2643C36.7061 36.2009 38.3098 37.6612 40.2531 37.6612C41.3066 37.6612 42.3177 37.2141 43.0269 36.4347C43.7337 35.6577 44.0825 34.6128 43.9836 33.5685ZM41.7882 26.6819C41.9435 27.457 41.5532 28.2355 40.8388 28.5746C40.5989 28.6884 40.331 28.8096 40.0386 28.935V25.5036L41.321 24.7254C41.5236 25.4572 41.6756 26.1213 41.7882 26.6819ZM31.2727 31.1722V25.5121L35.1067 23.2987L38.8664 25.5091V29.4031C37.0116 30.0928 34.4603 30.8115 31.2727 31.1722ZM26.8501 17.8519L30.6868 15.6367L34.5235 17.8519V22.2819L30.6868 24.4971L26.8501 22.2819V17.8519ZM36.5831 15.7828L35.0813 16.8204L31.2727 14.6216V12.3588C33.2796 13.0268 35.0523 14.1694 36.5831 15.7828ZM23.4566 11.9367C25.8797 11.5308 28.0965 11.5629 30.1009 12.0289V14.6216L26.2642 16.8369L22.4275 14.6216V12.1494C22.7629 12.0667 23.1056 11.9953 23.4566 11.9367ZM21.8413 24.4971L18.0046 22.2819V17.8519L21.8413 15.6367L25.6779 17.8519V22.2819L21.8413 24.4971ZM21.2553 12.4976V14.6216L17.4736 16.8052L16.313 15.8698C17.6601 14.3064 19.312 13.1788 21.2553 12.4976ZM6.80313 28.0472C5.20095 26.3907 4.78012 24.7919 5.51711 23.1592C5.76644 22.6063 6.1296 22.2626 6.62734 22.1088C7.69363 21.7789 9.40719 22.2828 11.5968 23.5654C11.4955 24.0876 11.4214 24.5603 11.3683 24.9595C11.2233 26.0526 11.4754 27.1488 12.0378 28.0558C11.7699 28.7745 11.4247 29.8362 11.1662 31.1039C9.75418 30.3739 8.04153 29.3275 6.80313 28.0472ZM17.126 34.4544C16.8584 35.6525 15.8156 36.4893 14.5897 36.4893C13.8661 36.4893 13.1941 36.1994 12.6976 35.6727C12.2026 35.1481 11.953 34.4633 11.9951 33.7446C12.1037 31.8857 12.5371 30.2292 12.9152 29.0928C13.0635 29.2231 13.2204 29.3445 13.3867 29.4556C14.7829 30.3879 16.4308 31.0493 18.1346 31.5156C17.69 32.4662 17.35 33.4516 17.126 34.4544ZM25.4295 31.3776C24.3452 31.3349 23.3479 31.254 22.4275 31.1445V29.3983C22.4275 29.0745 22.1651 28.812 21.8413 28.812C21.5178 28.812 21.2553 29.0745 21.2553 29.3983V30.9836C17.6146 30.4117 15.3667 29.368 14.0373 28.4806C13.0351 27.8113 12.4547 26.6404 12.5032 25.4325L17.3833 23.2764L21.2553 25.5121V27.0539C21.2553 27.3777 21.5178 27.6401 21.8413 27.6401C22.1651 27.6401 22.4275 27.3777 22.4275 27.0539V25.5121L26.2642 23.2969L30.1009 25.5121V31.2861C29.1261 31.3648 28.0986 31.4091 27.0186 31.4091C26.501 31.4094 25.9709 31.399 25.4295 31.3776ZM42.1596 35.6461C41.6722 36.182 40.9773 36.4893 40.2531 36.4893C38.9177 36.4893 37.8157 35.4853 37.69 34.1541C37.5801 32.9923 37.4672 31.9822 37.3534 31.1408C39.0578 30.6351 40.3972 30.0818 41.3414 29.6335C41.6725 29.4764 41.9618 29.2628 42.2023 29.0088C42.412 30.2955 42.6552 31.9755 42.8166 33.679C42.8856 34.4062 42.6521 35.1047 42.1596 35.6461Z" stroke="#667085" stroke-width="0.2" mask="url(#path-2-outside-1_87_6657)"/>
</g>
<defs>
<clipPath id="clip0_87_6657">
<rect width="40" height="40" fill="white" transform="translate(4 4)"/>
</clipPath>
</defs>
</svg>
