<svg width="48" height="48" viewBox="0 0 48 48" fill="none" xmlns="http://www.w3.org/2000/svg">
<g clip-path="url(#clip0_87_6785)">
<path fill-rule="evenodd" clip-rule="evenodd" d="M24 4C12.9645 4 4 12.9645 4 24C4 35.0355 12.9645 44 24 44C35.0355 44 44 35.0355 44 24C44 12.9645 35.0355 4 24 4ZM24 5.7189C34.1066 5.7189 42.2811 13.8934 42.2811 24C42.2811 34.1066 34.1066 42.2812 24 42.2812C13.8934 42.2812 5.71875 34.1066 5.71875 24C5.71875 13.8934 13.8934 5.7189 24 5.7189Z" fill="#667085"/>
<path fill-rule="evenodd" clip-rule="evenodd" d="M13.366 21.0139C11.727 21.0139 10.3799 22.361 10.3799 24.0001C10.3799 25.6391 11.727 26.9862 13.366 26.9862C15.005 26.9862 16.3522 25.6391 16.3522 24.0001C16.3522 22.361 15.005 21.0139 13.366 21.0139ZM13.366 22.7327C14.0761 22.7327 14.6334 23.2899 14.6334 24.0001C14.6334 24.7102 14.0761 25.2675 13.366 25.2675C12.6559 25.2675 12.0986 24.7102 12.0986 24.0001C12.0986 23.2899 12.6559 22.7327 13.366 22.7327Z" fill="#667085"/>
<path fill-rule="evenodd" clip-rule="evenodd" d="M23.9997 21.0139C22.3607 21.0139 21.0137 22.361 21.0137 24.0001C21.0137 25.6391 22.3607 26.9862 23.9997 26.9862C25.6388 26.9862 26.9859 25.6391 26.9859 24.0001C26.9859 22.361 25.6388 21.0139 23.9997 21.0139ZM23.9997 22.7327C24.7099 22.7327 25.2671 23.2899 25.2671 24.0001C25.2671 24.7102 24.7099 25.2675 23.9997 25.2675C23.2896 25.2675 22.7325 24.7102 22.7325 24.0001C22.7325 23.2899 23.2896 22.7327 23.9997 22.7327Z" fill="#667085"/>
<path fill-rule="evenodd" clip-rule="evenodd" d="M34.6336 21.0139C32.9946 21.0139 31.6475 22.361 31.6475 24.0001C31.6475 25.6391 32.9946 26.9862 34.6336 26.9862C36.2726 26.9862 37.6198 25.6391 37.6198 24.0001C37.6198 22.361 36.2726 21.0139 34.6336 21.0139ZM34.6336 22.7327C35.3437 22.7327 35.9008 23.2899 35.9008 24.0001C35.9008 24.7102 35.3437 25.2675 34.6336 25.2675C33.9235 25.2675 33.3662 24.7102 33.3662 24.0001C33.3662 23.2899 33.9235 22.7327 34.6336 22.7327Z" fill="#667085"/>
</g>
<defs>
<clipPath id="clip0_87_6785">
<rect width="40" height="40" fill="white" transform="translate(4 4)"/>
</clipPath>
</defs>
</svg>
