<svg width="52" height="18" viewBox="0 0 52 18" fill="none" xmlns="http://www.w3.org/2000/svg">
<path d="M4.81055 4.4654H6.6082L5.70937 2.17749L4.81055 4.4654Z" fill="#2FABF7"/>
<path d="M27.118 2.50383C26.9546 2.42212 26.7094 2.42212 26.4643 2.42212H24.8301V3.7295H26.4643C26.7094 3.7295 26.9546 3.7295 27.118 3.64779C27.2814 3.56607 27.3631 3.32094 27.3631 3.07581C27.4448 2.74896 27.2814 2.58554 27.118 2.50383Z" fill="#228FE0"/>
<path d="M44.6037 0.0526123V1.03314L44.1134 0.0526123H40.273V1.03314L39.7827 0.0526123H34.5532C33.6544 0.0526123 32.919 0.216035 32.2653 0.542879V0.0526123H28.5883V0.542879C28.1797 0.216035 27.6895 0.0526123 27.0358 0.0526123H13.8803L12.9815 2.09539L12.0826 0.0526123H7.91537V1.03314L7.42511 0.0526123H3.91153L2.27731 3.89303L0.397949 8.14201H4.56522L5.05548 6.83463H6.19944L6.68971 8.14201H11.429V7.16148L11.8375 8.14201H14.2071L14.6157 7.16148V8.14201H25.9735V6.01752H26.137C26.3004 6.01752 26.3004 6.01752 26.3004 6.26266V8.0603H32.1836V7.57003C32.6738 7.81517 33.4092 8.0603 34.3898 8.0603H36.8411L37.3314 6.75292H38.4753L38.9656 8.0603H43.7048V6.83463L44.4403 8.0603H48.2807V0.0526123H44.6037ZM16.9853 6.91635H15.5962V2.42223L13.6352 6.91635H12.4095L10.4484 2.42223V6.91635H7.67024L7.09826 5.69068H4.32008L3.82982 6.99806H2.27731L4.72864 1.19657H6.77142L9.05933 6.67121V1.19657H11.2655L13.0632 5.1187L14.6974 1.19657H16.9853V6.91635ZM22.5417 2.42223H19.3549V3.48448H22.46V4.62843H19.3549V5.77239H22.5417V6.99806H17.9658V1.19657H22.5417V2.42223ZM28.67 4.79186C28.8334 5.1187 28.9151 5.36383 28.9151 5.8541V6.99806H27.526V6.26266C27.526 5.93581 27.526 5.44554 27.2809 5.1187C27.0358 4.87357 26.7906 4.87357 26.3004 4.87357H24.8296V6.99806H23.4405V1.19657H26.5455C27.2809 1.19657 27.7712 1.19657 28.1797 1.4417C28.5883 1.68683 28.8334 2.09539 28.8334 2.74908C28.8334 3.6479 28.2614 4.13817 27.8529 4.30159C28.2614 4.3833 28.5066 4.62843 28.67 4.79186ZM31.1213 6.91635H29.7322V1.11486H31.1213V6.91635ZM47.2184 6.91635H45.2574L42.6426 2.58566V6.91635H39.8644L39.3742 5.69068H36.5143L36.024 6.99806H34.4715C33.8178 6.99806 33.0007 6.83463 32.5104 6.34437C32.0202 5.8541 31.775 5.20041 31.775 4.13817C31.775 3.32106 31.9384 2.50394 32.5104 1.85026C32.919 1.35999 33.6544 1.19657 34.5532 1.19657H35.8606V2.42223H34.5532C34.0629 2.42223 33.8178 2.50394 33.491 2.74908C33.2458 2.99421 33.0824 3.48448 33.0824 4.05646C33.0824 4.71014 33.1641 5.1187 33.491 5.44555C33.7361 5.69068 34.0629 5.77239 34.4715 5.77239H35.0435L36.9228 1.27828H38.9656L41.2535 6.75292V1.27828H43.2963L45.6659 5.28212V1.27828H47.055V6.91635H47.2184Z" fill="#0571C1"/>
<path d="M37.0046 4.4654H38.884L37.9852 2.17749L37.0046 4.4654ZM23.1137 16.2318V11.5743L20.9893 13.8622L23.1137 16.2318Z" fill="#228FE0"/>
<path d="M14.3711 12.1469V13.2091H17.3944V14.3531H14.3711V15.5787H17.7212L19.2738 13.8628L17.803 12.1469H14.3711Z" fill="#2FABF7"/>
<path d="M26.2194 12.1469H24.5034V13.6177H26.3011C26.7913 13.6177 27.1182 13.3725 27.1182 12.8822C27.0365 12.392 26.7096 12.1469 26.2194 12.1469Z" fill="#228FE0"/>
<path d="M51.4674 13.5355V9.85852H48.0356C47.3002 9.85852 46.7282 10.0219 46.3197 10.3488V9.85852H42.5609C41.989 9.85852 41.2536 10.0219 40.9267 10.3488V9.85852H34.3081V10.3488C33.8179 9.94023 32.919 9.85852 32.5105 9.85852H28.0981V10.3488C27.6895 9.94023 26.709 9.85852 26.2187 9.85852H21.3161L20.1721 11.0842L19.1099 9.85852H11.7559V17.8662H18.9464L20.0904 16.6405L21.1526 17.8662H25.565V15.9869H26.137C26.709 15.9869 27.4444 15.9869 28.0164 15.7417V17.9479H31.6934V15.8234H31.8568C32.1019 15.8234 32.1019 15.8234 32.1019 16.0686V17.9479H43.2146C43.95 17.9479 44.6854 17.7845 45.094 17.4577V17.9479H48.6076C49.343 17.9479 50.0784 17.8662 50.5686 17.5394C51.3857 17.0491 51.876 16.1503 51.876 15.088C51.876 14.5161 51.7126 13.9441 51.4674 13.5355ZM26.137 14.8429H24.5028V16.804H21.888L20.2538 14.9246L18.5379 16.804H13.1449V11.0025H18.6196L20.2538 12.8818L21.9697 11.0025H26.3004C27.3627 11.0025 28.5883 11.3293 28.5883 12.8818C28.5066 14.5161 27.3627 14.8429 26.137 14.8429ZM34.3081 14.5161C34.4715 14.7612 34.5533 15.088 34.5533 15.5783V16.7223H33.1642V15.9869C33.1642 15.66 33.1642 15.088 32.919 14.8429C32.7556 14.5978 32.4288 14.5978 31.9385 14.5978H30.4677V16.7223H29.0786V10.9208H32.1836C32.8373 10.9208 33.4093 10.9208 33.8179 11.1659C34.2264 11.411 34.5533 11.8196 34.5533 12.4733C34.5533 13.3721 33.9813 13.8624 33.5727 14.0258C33.9813 14.1892 34.2264 14.3526 34.3081 14.5161ZM39.9462 12.1464H36.7595V13.2087H39.8645V14.3526H36.7595V15.4966H39.9462V16.7223H35.3704V10.9208H39.9462V12.1464ZM43.3781 16.7223H40.7633V15.4966H43.3781C43.6232 15.4966 43.7866 15.4966 43.95 15.3332C44.0317 15.2515 44.1135 15.088 44.1135 14.9246C44.1135 14.7612 44.0317 14.5978 43.95 14.5161C43.8683 14.4343 43.7049 14.3526 43.4598 14.3526C42.1524 14.2709 40.5999 14.3526 40.5999 12.555C40.5999 11.7379 41.0901 10.8391 42.5609 10.8391H45.2574V12.2281H42.7244C42.4792 12.2281 42.3158 12.2281 42.1524 12.3099C41.989 12.3916 41.989 12.555 41.989 12.7184C41.989 12.9635 42.1524 13.0453 42.3158 13.127C42.4792 13.2087 42.6427 13.2087 42.8061 13.2087H43.5415C44.2769 13.2087 44.7671 13.3721 45.094 13.6989C45.3391 13.9441 45.5025 14.3526 45.5025 14.9246C45.5025 16.1503 44.7671 16.7223 43.3781 16.7223ZM50.4052 16.1503C50.0784 16.4771 49.5064 16.7223 48.6893 16.7223H46.0745V15.4966H48.6893C48.9344 15.4966 49.0978 15.4966 49.2613 15.3332C49.343 15.2515 49.4247 15.088 49.4247 14.9246C49.4247 14.7612 49.343 14.5978 49.2613 14.5161C49.1795 14.4343 49.0161 14.3526 48.771 14.3526C47.4636 14.2709 45.9111 14.3526 45.9111 12.555C45.9111 11.7379 46.4014 10.8391 47.8722 10.8391H50.5686V12.2281H48.1173C47.8722 12.2281 47.7087 12.2281 47.5453 12.3099C47.3819 12.3916 47.3819 12.555 47.3819 12.7184C47.3819 12.9635 47.4636 13.0453 47.7087 13.127C47.8722 13.2087 48.0356 13.2087 48.199 13.2087H48.9344C49.6698 13.2087 50.1601 13.3721 50.4869 13.6989C50.5686 13.6989 50.5686 13.7807 50.5686 13.7807C50.8138 14.1075 50.8955 14.5161 50.8955 14.9246C50.8955 15.4149 50.7321 15.8234 50.4052 16.1503Z" fill="#0571C1"/>
<path d="M32.8374 12.3097C32.6739 12.228 32.4288 12.228 32.1837 12.228H30.5495V13.5353H32.1837C32.4288 13.5353 32.6739 13.5353 32.8374 13.4536C33.0008 13.3719 33.0825 13.1268 33.0825 12.8816C33.1642 12.5548 33.0008 12.3914 32.8374 12.3097ZM27.1176 2.50433C26.9542 2.42262 26.709 2.42262 26.4639 2.42262H24.8297V3.73H26.4639C26.709 3.73 26.9542 3.73 27.1176 3.64829C27.281 3.56658 27.3627 3.32144 27.3627 3.07631C27.4444 2.74947 27.281 2.58605 27.1176 2.50433ZM37.0046 4.4654H38.884L37.9852 2.17749L37.0046 4.4654ZM23.1137 16.2318V11.5743L20.9893 13.8622L23.1137 16.2318ZM26.2188 12.1462H24.5028V13.617H26.3005C26.7907 13.617 27.1176 13.3719 27.1176 12.8816C27.0359 12.3914 26.709 12.1462 26.2188 12.1462Z" fill="#228FE0"/>
<path d="M32.8377 12.3097C32.6743 12.228 32.4292 12.228 32.184 12.228H30.5498V13.5354H32.184C32.4292 13.5354 32.6743 13.5354 32.8377 13.4537C33.0011 13.372 33.0828 13.1268 33.0828 12.8817C33.1645 12.5549 33.0011 12.3914 32.8377 12.3097Z" fill="#228FE0"/>
<path d="M25.6468 16.5588L24.5028 15.3332V16.7223H21.8063L20.1721 14.8429L18.3745 16.7223H12.9815V11.0025H18.4562L20.1721 12.8818L20.9892 11.9013L18.9464 9.85852H11.7559V17.8662H18.9464L20.1721 16.6405L21.2344 17.8662H25.6468V16.5588Z" fill="#2FABF7"/>
<path d="M17.1487 8.0603L16.0865 6.91635H15.5962V6.42608L14.3706 5.20041L13.5534 6.91635H12.4095L10.4484 2.42223V6.91635H7.67024L7.09826 5.69068H4.32008L3.7481 6.91635H2.2773L4.72864 1.19657H6.77142L9.05933 6.67121V1.19657H10.285L9.14104 0.0526123H7.91537V1.03314L7.50682 0.0526123H3.91153L2.2773 3.89303L0.397949 8.0603H4.64693L5.13719 6.83463H6.28115L6.85313 8.0603H11.4289V7.07977L11.8375 8.0603H14.2071L14.6157 7.07977V8.0603H17.1487Z" fill="#2FABF7"/>
<path d="M13.3899 4.30213L12.0825 2.99475L13.063 5.11924L13.3899 4.30213Z" fill="#2FABF7"/>
<path d="M50.569 17.4571C51.3044 16.9668 51.7947 16.1497 51.8764 15.2509L50.7324 14.1069C50.8142 14.352 50.8959 14.5972 50.8959 14.924C50.8959 15.4143 50.7324 15.8228 50.4056 16.1497C50.0788 16.4765 49.5068 16.7217 48.6897 16.7217H46.0749V15.496H48.6897C48.9348 15.496 49.0982 15.496 49.2616 15.3326C49.3434 15.2509 49.4251 15.0874 49.4251 14.924C49.4251 14.7606 49.3434 14.5972 49.2616 14.5155C49.1799 14.4337 49.0165 14.352 48.7714 14.352C47.464 14.2703 45.9115 14.352 45.9115 12.5544C45.9115 11.7373 46.4018 11.0019 47.6274 10.8385L46.7286 9.93964C46.5652 10.0213 46.4835 10.1031 46.4018 10.1031V9.61279H42.643C42.0711 9.61279 41.3357 9.77622 41.0088 10.1031V9.61279H34.3085V10.1031C33.8182 9.69451 32.9194 9.61279 32.5109 9.61279H28.0985V10.1031C27.6899 9.69451 26.7094 9.61279 26.2191 9.61279H21.3164L20.1725 10.8385L19.1102 9.61279H18.2114L20.6628 12.0641L21.8884 10.7567H26.2191C27.2814 10.7567 28.507 11.0836 28.507 12.6361C28.507 14.2703 27.3631 14.5972 26.1374 14.5972H24.5032V15.8228L25.7288 17.0485V15.8228H26.1374C26.7094 15.8228 27.4448 15.8228 28.0168 15.5777V17.7839H31.6938V15.6594H31.8572C32.1023 15.6594 32.1023 15.6594 32.1023 15.9045V17.7839H43.215C43.9504 17.7839 44.6858 17.6205 45.0944 17.2936V17.7839H48.608C49.2616 17.8656 49.997 17.7839 50.569 17.4571ZM34.3085 14.5155C34.4719 14.7606 34.5536 15.0874 34.5536 15.5777V16.7217H33.1646V15.9863C33.1646 15.6594 33.1646 15.0874 32.9194 14.8423C32.756 14.5972 32.4292 14.5972 31.9389 14.5972H30.4681V16.7217H29.079V10.9202H32.184C32.8377 10.9202 33.4097 10.9202 33.8182 11.1653C34.2268 11.4104 34.5536 11.819 34.5536 12.4727C34.5536 13.3715 33.9817 13.8618 33.5731 14.0252C33.9817 14.1886 34.2268 14.352 34.3085 14.5155ZM39.9466 12.1458H36.7598V13.2081H39.8649V14.352H36.7598V15.496H39.9466V16.7217H35.3708V10.9202H39.9466V12.1458ZM43.3784 16.7217H40.7637V15.496H43.3784C43.6236 15.496 43.787 15.496 43.9504 15.3326C44.0321 15.2509 44.1138 15.0874 44.1138 14.924C44.1138 14.7606 44.0321 14.5972 43.9504 14.5155C43.8687 14.4337 43.7053 14.352 43.4602 14.352C42.1528 14.2703 40.6003 14.352 40.6003 12.5544C40.6003 11.7373 41.0905 10.8385 42.5613 10.8385H45.2578V12.2275H42.7248C42.4796 12.2275 42.3162 12.2275 42.1528 12.3093C41.9894 12.391 41.9894 12.5544 41.9894 12.7178C41.9894 12.9629 42.1528 13.0447 42.3162 13.1264C42.4796 13.2081 42.643 13.2081 42.8065 13.2081H43.5419C44.2773 13.2081 44.7675 13.3715 45.0944 13.6983C45.3395 13.9435 45.5029 14.352 45.5029 14.924C45.5029 16.1497 44.7675 16.7217 43.3784 16.7217Z" fill="#228FE0"/>
<path d="M47.3013 12.7183C47.3013 12.9634 47.383 13.0451 47.6281 13.1268C47.7915 13.2086 47.955 13.2086 48.1184 13.2086H48.8538C49.3441 13.2086 49.6709 13.2903 49.9977 13.4537L48.7721 12.228H48.0367C47.7915 12.228 47.6281 12.228 47.4647 12.3097C47.383 12.3914 47.3013 12.5549 47.3013 12.7183Z" fill="#228FE0"/>
<path d="M44.4409 7.81576L44.6043 8.0609H44.686L44.4409 7.81576ZM39.9468 3.32166L41.3359 6.67181V4.71074L39.9468 3.32166Z" fill="#228FE0"/>
<path d="M25.9735 6.01809H26.1369C26.3003 6.01809 26.3003 6.01809 26.3003 6.26322V8.06087H32.1835V7.5706C32.6738 7.81573 33.4092 8.06087 34.3897 8.06087H36.8411L37.3313 6.75349H38.4753L38.9656 8.06087H43.7048V7.24376L42.5608 6.0998V6.99862H39.7827L39.3741 5.69124H36.5142L36.024 6.99862H34.4714C33.8178 6.99862 33.0006 6.8352 32.5104 6.34493C32.0201 5.85467 31.775 5.20098 31.775 4.13873C31.775 3.32162 31.9384 2.50451 32.5104 1.85082C32.9189 1.36055 33.6543 1.19713 34.5532 1.19713H35.8605V2.4228H34.5532C34.0629 2.4228 33.8178 2.50451 33.4909 2.74964C33.2458 2.99478 33.0824 3.48504 33.0824 4.05702C33.0824 4.71071 33.1641 5.11927 33.4909 5.44611C33.736 5.69124 34.0629 5.77296 34.4714 5.77296H35.0434L36.9228 1.27884H37.7399L36.5959 0.134888H34.4714C33.5726 0.134888 32.8372 0.298309 32.1835 0.625153V0.134888H28.5882V0.625153C28.1797 0.298309 27.6894 0.134888 27.0357 0.134888H13.8802L12.9814 2.17767L12.0826 0.134888H8.4873L9.63126 1.27884H11.2655L12.6546 4.30215L13.1448 4.79242L14.6156 1.19713H16.9036V6.99862H15.5145V2.50451L14.1254 5.77296L16.495 8.14258H25.8918L25.9735 6.01809ZM29.7322 1.19713H31.1213V6.99862H29.7322V1.19713ZM22.5416 2.4228H19.3549V3.48504H22.4599V4.629H19.3549V5.77296H22.5416V6.99862H17.9658V1.19713H22.5416V2.4228ZM24.8295 6.91691H23.4404V1.11542H26.5455C27.2809 1.11542 27.7711 1.11542 28.1797 1.36055C28.5882 1.60569 28.8334 2.01424 28.8334 2.66793C28.8334 3.56675 28.2614 4.05702 27.8528 4.22044C28.1797 4.30216 28.4248 4.54729 28.5065 4.71071C28.67 5.03755 28.7517 5.28269 28.7517 5.77296V6.91691H27.3626V6.18151C27.3626 5.85467 27.3626 5.3644 27.1174 5.03756C27.0357 4.87413 26.7906 4.87413 26.3003 4.87413H24.8295V6.91691Z" fill="#228FE0"/>
</svg>
