<svg width="40" height="40" viewBox="0 0 40 40" fill="none" xmlns="http://www.w3.org/2000/svg">
<g clip-path="url(#clip0_80_4023)">
<path d="M4.92559 14.9368C4.92559 17.3881 6.91972 19.3822 9.37074 19.3822C11.8218 19.3822 13.8159 17.3881 13.8159 14.9368C13.8159 12.4858 11.8218 10.4916 9.37074 10.4916C6.91972 10.4916 4.92559 12.4858 4.92559 14.9368ZM12.5376 14.9368C12.5376 16.6832 11.1171 18.104 9.37074 18.104C7.62467 18.104 6.20387 16.6832 6.20387 14.9368C6.20387 13.1907 7.62467 11.7699 9.37074 11.7699C11.1171 11.7699 12.5376 13.1907 12.5376 14.9368Z" fill="#667085" stroke="#667085" stroke-width="0.1"/>
<path d="M8.12529 14.9368C8.12529 15.7865 8.66331 16.4721 9.37098 16.4721C10.0786 16.4721 10.6167 15.7865 10.6167 14.9368C10.6167 14.0873 10.0786 13.4018 9.37098 13.4018C8.66331 13.4018 8.12529 14.0873 8.12529 14.9368Z" fill="#667085" stroke="#667085" stroke-width="0.1"/>
<path d="M31.5286 33.983C31.2064 34.0748 31.0071 34.4112 31.0806 34.7382L31.1294 34.7272L31.0806 34.7382C31.1602 35.0916 31.5309 35.3114 31.8795 35.212C35.2343 34.2549 38.9839 31.5469 39.7792 27.6455C40.3878 24.6608 39.9656 21.7479 38.5571 19.2234C36.9277 16.3029 34.1023 14.0673 30.1651 12.5753C29.9044 12.4765 29.6388 12.3822 29.376 12.295L29.376 12.295C29.0409 12.1841 28.6794 12.3659 28.5685 12.7009C28.4576 13.036 28.639 13.3975 28.9741 13.5084M31.5286 33.983L31.5423 34.0311L31.5286 33.983C31.5286 33.983 31.5286 33.983 31.5286 33.983ZM31.5286 33.983C35.6799 32.7986 38.0328 29.8138 38.5267 27.3902C39.0738 24.7071 38.6977 22.0988 37.4407 19.8461C35.9648 17.2007 33.3668 15.1555 29.7121 13.7705L29.7121 13.7705C29.4681 13.678 29.22 13.59 28.9741 13.5084M28.9741 13.5084L28.9898 13.461L28.9741 13.5084C28.9741 13.5084 28.9741 13.5084 28.9741 13.5084Z" fill="#667085" stroke="#667085" stroke-width="0.1"/>
<path d="M28.1063 23.4283L28.1063 23.4283C28.1443 23.4059 29.0053 22.9041 30.14 22.7705C31.7086 22.5852 33.0381 23.1718 33.9806 24.4633C34.9198 25.7499 35.0452 27.3944 34.3303 28.9721C33.4265 30.9667 31.3827 32.3847 29.1238 32.5874C27.834 32.703 26.6883 32.6473 25.7186 32.4205M28.1063 23.4283L18.9966 29.7064M28.1063 23.4283C28.0165 23.4813 27.9414 23.5555 27.8868 23.6441L27.8868 23.6441L24.9248 28.4629C24.7041 28.8219 24.3046 29.0452 23.8831 29.0452H20.3072M28.1063 23.4283L20.3072 29.0452M25.7186 32.4205L25.73 32.3718M25.7186 32.4205C25.7186 32.4205 25.7186 32.4205 25.7187 32.4205L25.73 32.3718M25.7186 32.4205C25.3555 32.3359 24.9859 32.5631 24.8957 32.9282C24.8052 33.2954 25.029 33.6696 25.3938 33.7626C26.369 34.0108 27.8523 34.3076 29.3832 34.3134C29.7361 34.3147 30.0212 34.6018 30.0198 34.955C30.0185 35.307 29.7325 35.5917 29.3808 35.5917H29.3784H29.3782C27.7157 35.5856 26.122 35.2669 25.0786 35.0015C24.0351 34.7359 23.3968 33.6685 23.6548 32.6223L23.6548 32.6223C23.9119 31.5815 24.9681 30.9323 26.0096 31.176C26.8435 31.371 27.8525 31.4181 29.0095 31.3143C30.8188 31.152 32.4505 30.0246 33.1662 28.4449C33.6878 27.2934 33.6057 26.1182 32.9479 25.2168C32.2827 24.3052 31.3898 23.9092 30.2894 24.0398L30.2894 24.0398C29.6549 24.1147 29.1203 24.3462 28.8843 24.4625L26.0137 29.1323L26.0137 29.1323C25.5618 29.867 24.7458 30.3234 23.8831 30.3234H19.5853C19.2416 30.3234 18.9592 30.0517 18.9466 29.7083M25.73 32.3718C26.6931 32.5971 27.8333 32.6529 29.1193 32.5376C31.3611 32.3364 33.3887 30.929 34.2847 28.9514C34.993 27.3883 34.8676 25.7632 33.9402 24.4928L25.73 32.3718ZM18.9466 29.7083L18.9966 29.7064M18.9466 29.7083C18.9466 29.7083 18.9466 29.7083 18.9466 29.7083L18.9966 29.7064M18.9466 29.7083C18.9 28.4666 19.537 27.4871 20.7319 26.9536M18.9966 29.7064C18.9508 28.4866 19.5746 27.525 20.7523 26.9992M20.7319 26.9536L20.7523 26.9992M20.7319 26.9536C20.7319 26.9535 20.7319 26.9535 20.7319 26.9535L20.7523 26.9992M20.7319 26.9536C21.2409 26.7261 21.7509 26.6245 22.0795 26.5791L23.2282 24.6179H17.5423L16.5215 26.2786C16.5215 26.2786 16.5215 26.2786 16.5215 26.2786C16.3367 26.5793 15.9431 26.6732 15.6422 26.4885L15.6421 26.4885C15.3415 26.3035 15.2475 25.9098 15.4326 25.6092M20.7523 26.9992L15.4751 25.6354M15.4326 25.6092L15.4751 25.6354M15.4326 25.6092L15.4325 25.6092L15.4751 25.6354M15.4326 25.6092L16.6404 23.6441C16.7567 23.4551 16.9629 23.3399 17.1847 23.3399H24.343C24.8276 23.3399 25.1403 23.8822 24.8945 24.3017L23.0183 27.5054M15.4751 25.6354L16.683 23.6703C16.7902 23.4961 16.9803 23.3899 17.1847 23.3899H24.343C24.7891 23.3899 25.0775 23.8904 24.8514 24.2764L22.9752 27.4802M23.0183 27.5054L22.9752 27.4802M23.0183 27.5054C22.9081 27.6938 22.7091 27.813 22.4909 27.8213L22.489 27.8213C22.4891 27.8213 22.4888 27.8213 22.4882 27.8213C22.4756 27.822 22.3169 27.8306 22.0872 27.8717C21.8474 27.9145 21.5328 27.9923 21.2284 28.1317M23.0183 27.5054L23.0183 27.5054L22.9752 27.4802M22.9752 27.4802C22.8735 27.6538 22.6901 27.7637 22.489 27.7713L21.2284 28.1317M21.2284 28.1317L21.2076 28.0862L21.2284 28.1317C21.2284 28.1317 21.2284 28.1317 21.2284 28.1317ZM21.2284 28.1317C20.7453 28.3531 20.4431 28.6551 20.3072 29.0452M21.2284 28.1317L20.3072 29.0452" fill="#667085" stroke="#667085" stroke-width="0.1"/>
<path d="M7.73786 21.187L7.73782 21.187C7.69159 21.1947 7.62816 21.2233 7.54953 21.2721C7.47204 21.3203 7.38417 21.3855 7.2899 21.4616C7.10135 21.614 6.8911 21.8073 6.69258 21.9899L6.65873 21.9531L6.69257 21.99C6.40667 22.2529 6.08026 22.5529 5.71343 22.8356C6.69554 23.5324 8.71948 24.633 11.0807 24.0184C12.7894 23.5734 13.8989 22.8798 14.5818 22.2969C14.9234 22.0053 15.1584 21.7412 15.3084 21.5494C15.3834 21.4534 15.4372 21.3756 15.4723 21.3214C15.4899 21.2943 15.5028 21.2731 15.5114 21.2585L15.5212 21.2418L15.5237 21.2373C15.5242 21.2363 15.5245 21.2358 15.5245 21.2357L15.5245 21.2357M7.73786 21.187L16.6109 21.8088L16.6551 21.8321C16.82 21.5199 16.7001 21.1332 16.3879 20.9687C16.0758 20.8042 15.6892 20.9236 15.5245 21.2357M7.73786 21.187C8.11636 21.1236 8.34427 21.2114 8.7415 21.3653L8.74152 21.3653M7.73786 21.187L8.74152 21.3653M15.5245 21.2357L15.5687 21.2592L15.5244 21.2359C15.5245 21.2358 15.5245 21.2357 15.5245 21.2357ZM8.74152 21.3653L8.74214 21.3656C9.28454 21.5754 9.96429 21.8384 11.1934 21.746C13.5353 21.5703 14.4869 19.7194 14.5276 19.6378C14.6854 19.3224 14.5584 18.9368 14.2428 18.7788L14.2428 18.7788M8.74152 21.3653L14.2428 18.7788M14.2428 18.7788C13.9273 18.6211 13.5442 18.7466 13.3863 19.0624C13.3584 19.1163 12.6996 20.3513 11.0978 20.4714C10.155 20.542 9.67355 20.3554 9.20344 20.1733L9.20305 20.1731C8.74117 19.9942 8.25353 19.8055 7.52762 19.926L7.52758 19.926M14.2428 18.7788L7.52758 19.926M7.52758 19.926C7.23151 19.9754 6.95367 20.1216 6.67738 20.3215C6.40202 20.5206 6.12454 20.7758 5.82982 21.0469L5.82746 21.049L5.8613 21.0858M7.52758 19.926L5.8613 21.0858M5.8613 21.0858L5.82745 21.049C5.31486 21.5205 4.77435 22.0172 4.16684 22.3221C3.56209 22.6257 2.89269 22.7382 2.11973 22.4417C1.70544 22.2828 1.43884 21.9359 1.30952 21.365C1.00977 20.0414 1.48765 18.1558 2.3918 16.2307C3.29468 14.3084 4.6174 12.3578 5.99248 10.9084L5.95621 10.874M5.8613 21.0858L5.95621 10.874M5.95621 10.874L5.99249 10.9084C7.95062 8.84431 10.2575 7.23496 12.4864 6.37597L12.4684 6.32931L12.4864 6.37597C13.4328 6.01115 14.3212 5.80715 15.0704 5.7671C15.821 5.72696 16.4245 5.85174 16.8085 6.13604L16.8085 6.13605M5.95621 10.874L16.8085 6.13605M16.8085 6.13605C17.1029 6.35388 17.3318 6.7462 17.5038 7.25432C17.6753 7.76121 17.7881 8.37675 17.8548 9.0329C17.9883 10.3451 17.937 11.8124 17.8094 12.8813C17.7507 13.3705 18.2693 13.7447 18.7158 13.5359C18.743 13.5232 22.0336 12.0205 26.7733 12.9327L26.7733 12.9327M16.8085 6.13605L26.7733 12.9327M26.7733 12.9327C27.1199 12.9992 27.4549 12.7725 27.5215 12.4258L26.7733 12.9327ZM11.4032 25.2553L11.4031 25.2553C10.7936 25.4139 10.2062 25.4816 9.64794 25.4816C7.18528 25.4816 5.29117 24.1671 4.54257 23.5551C4.07987 23.7629 3.57169 23.8974 3.01675 23.8974C2.59139 23.8974 2.14008 23.8187 1.66186 23.6353C0.836869 23.3189 0.284866 22.6286 0.0626964 21.6474C-0.252038 20.2573 0.0984284 18.2899 1.03937 16.1096C1.97772 13.9353 3.40741 11.7761 5.06514 10.0287C7.14974 7.83129 9.6216 6.11028 12.0265 5.18341C13.2016 4.73053 14.2937 4.49575 15.2382 4.48179C16.1825 4.46784 16.9825 4.67464 17.5689 5.10869C18.4498 5.76036 18.8764 7.05252 19.07 8.39743C19.259 9.71063 19.2278 11.089 19.1692 12.0092C20.5819 11.5695 23.3953 10.9811 27.0146 11.6776C27.0146 11.6776 27.0146 11.6776 27.0146 11.6776L27.0052 11.7267C27.325 11.788 27.534 12.0969 27.4724 12.4164L11.4032 25.2553ZM11.4032 25.2553C11.4857 25.2337 11.5672 25.2116 11.6474 25.189L10.8332 26.5791C10.5047 26.6245 9.99467 26.7262 9.48563 26.9536C8.29041 27.4871 7.65379 28.4667 7.70008 29.708C7.71299 30.0517 7.99504 30.3235 8.33873 30.3235H12.6368C13.4996 30.3235 14.3155 29.8671 14.7675 29.1321L14.7249 29.1059M11.4032 25.2553L14.7249 29.1059M14.7249 29.1059L14.7675 29.1321L15.2869 28.2867C15.4716 27.9861 15.3776 27.5924 15.077 27.4077C14.7764 27.223 14.3827 27.3166 14.1979 27.6173L13.6782 28.4626C13.4575 28.8217 13.058 29.0452 12.6365 29.0452H9.06068M14.7249 29.1059L9.06068 29.0452M9.06068 29.0452C9.19656 28.6551 9.49875 28.3531 9.98188 28.1317C10.5788 27.8583 11.2138 27.8226 11.2445 27.821C11.4626 27.8127 11.6615 27.6939 11.7718 27.5055C11.7718 27.5055 11.7718 27.5055 11.7718 27.5055L13.5494 24.4701L9.06068 29.0452Z" fill="#667085" stroke="#667085" stroke-width="0.1"/>
</g>
<defs>
<clipPath id="clip0_80_4023">
<rect width="40" height="40" fill="white"/>
</clipPath>
</defs>
</svg>
