<svg width="75" height="13" viewBox="0 0 75 13" fill="none" xmlns="http://www.w3.org/2000/svg">
<path d="M39.8629 12.7227C43.2849 12.7227 46.0589 9.94868 46.0589 6.52675C46.0589 3.10483 43.2849 0.330811 39.8629 0.330811C36.441 0.330811 33.667 3.10483 33.667 6.52675C33.667 9.94868 36.441 12.7227 39.8629 12.7227Z" fill="#EF9122"/>
<path d="M33.667 6.52675C33.667 3.07132 36.4075 0.330811 39.8629 0.330811C43.3184 0.330811 46.0589 3.07132 46.0589 6.52675C46.0589 9.98219 43.3184 12.7227 39.8629 12.7227" fill="#F26E21"/>
<path d="M35.5737 2.1181C37.9568 -0.264953 41.8888 -0.264953 44.2719 2.1181C46.655 4.50116 46.655 8.4332 44.2719 10.8163" fill="#F44500"/>
<path d="M4.00278 0.688611H0.666504V12.3656H4.00278C5.79008 12.3656 7.10076 11.889 8.17313 11.0549C9.48381 9.98253 10.3179 8.31439 10.3179 6.5271C10.3179 3.07167 7.81567 0.688611 4.00278 0.688611ZM6.7433 9.50592C6.02838 10.1017 5.07516 10.4591 3.64532 10.4591H2.93041V2.71421H3.52617C4.95601 2.71421 5.90923 2.95251 6.62415 3.66743C7.45822 4.38235 7.93483 5.45472 7.93483 6.5271C8.05398 7.59947 7.57737 8.791 6.7433 9.50592ZM11.3903 0.688611H13.6542V12.3656H11.3903V0.688611ZM19.3735 5.21642C17.9437 4.73981 17.5862 4.38235 17.5862 3.78659C17.5862 3.07167 18.3011 2.4759 19.2543 2.4759C19.9693 2.4759 20.565 2.71421 21.1608 3.42913L22.3523 1.88014C21.3991 1.04607 20.2076 0.569458 18.8969 0.569458C16.8713 0.569458 15.2031 1.99929 15.2031 3.90574C15.2031 5.57388 15.9181 6.28879 18.0628 7.12286C19.016 7.48032 19.3735 7.59947 19.6118 7.83778C20.0884 8.07609 20.3267 8.5527 20.3267 9.02931C20.3267 9.98253 19.6118 10.6974 18.5394 10.6974C17.4671 10.6974 16.5138 10.1017 16.0372 9.14846L14.6074 10.5783C15.6798 12.1273 16.9904 12.8422 18.6586 12.8422C21.0416 12.8422 22.7098 11.2932 22.7098 9.02931C22.7098 7.00371 21.9949 6.16964 19.3735 5.21642Z" fill="#595A5B"/>
<path d="M23.4209 6.52567C23.4209 9.9811 26.1614 12.6025 29.6169 12.6025C30.5701 12.6025 31.4042 12.3642 32.4765 11.8875V9.14703C31.5233 10.1003 30.6892 10.4577 29.736 10.4577C27.4721 10.4577 25.804 8.78957 25.804 6.40651C25.804 4.14261 27.4721 2.35532 29.6169 2.35532C30.6892 2.35532 31.5233 2.71278 32.4765 3.666V0.925488C31.5233 0.448877 30.6892 0.210571 29.6169 0.210571C26.2806 0.448877 23.4209 3.18939 23.4209 6.52567Z" fill="#3B3D3F"/>
<path d="M51.1798 8.55159L48.0818 0.6875H45.5796L50.4649 12.7219H51.7755L56.8991 0.6875H54.3969L51.1798 8.55159ZM57.8523 12.3645H64.4057V10.458H60.2354V7.24091H64.2866V5.21531H60.2354V2.7131H64.4057V0.6875H57.8523V12.3645Z" fill="black"/>
<path d="M70.8364 7.47923C72.6234 7.12183 73.5765 5.93049 73.5765 4.14348C73.5765 1.99907 72.0278 0.688592 69.4068 0.688592H65.9519V12.3637H68.2155V7.7175H68.5729L71.7895 12.3637H74.5296L70.8364 7.47923ZM68.9303 6.04962H68.2155V2.4756H68.9303C70.3599 2.4756 71.1938 3.07127 71.1938 4.26261C71.1938 5.45395 70.3599 6.04962 68.9303 6.04962ZM4.00226 0.688592H0.666504V12.3637H4.00226C5.78927 12.3637 7.09974 11.8872 8.17195 11.0533C9.48242 9.98104 10.3164 8.31317 10.3164 6.52616C10.3164 3.07127 7.81454 0.688592 4.00226 0.688592ZM6.74234 9.50451C6.02753 10.1002 5.07446 10.4576 3.64485 10.4576H2.93005V2.71387H3.52572C4.95533 2.71387 5.9084 2.95214 6.6232 3.66694C7.45714 4.38175 7.93368 5.45395 7.93368 6.52616C8.05281 7.59836 7.57627 8.7897 6.74234 9.50451ZM11.3886 0.688592H13.6521V12.3637H11.3886V0.688592ZM19.3705 5.21568C17.9409 4.73915 17.5835 4.38175 17.5835 3.78608C17.5835 3.07127 18.2983 2.4756 19.2514 2.4756C19.9662 2.4756 20.5619 2.71387 21.1576 3.42867L22.3489 1.87993C21.3958 1.04599 20.2045 0.569458 18.894 0.569458C16.8687 0.569458 15.2008 1.99907 15.2008 3.90521C15.2008 5.57309 15.9157 6.28789 18.0601 7.12183C19.0131 7.47923 19.3705 7.59836 19.6088 7.83663C20.0853 8.0749 20.3236 8.55144 20.3236 9.02797C20.3236 9.98104 19.6088 10.6958 18.5366 10.6958C17.4644 10.6958 16.5113 10.1002 16.0348 9.14711L14.6052 10.5767C15.6774 12.1255 16.9879 12.8403 18.6557 12.8403C21.0384 12.8403 22.7063 11.2915 22.7063 9.02797C22.7063 7.00269 21.9915 6.16876 19.3705 5.21568ZM29.7352 12.602C30.6883 12.602 31.5222 12.3637 32.5944 11.8872V9.14711C31.6413 10.1002 30.8074 10.4576 29.8543 10.4576C27.5908 10.4576 25.9229 8.7897 25.9229 6.40702C25.9229 5.21568 26.3994 4.26261 27.1143 3.42867L25.5655 1.87993C24.3742 2.95214 23.5402 4.62001 23.5402 6.40702C23.4211 9.98104 26.1612 12.602 29.7352 12.602Z" fill="#595A5B"/>
<path d="M70.8374 7.47921C72.6247 7.12175 73.5779 5.93022 73.5779 4.14293C73.5779 1.99818 72.0289 0.6875 69.4076 0.6875H65.9521V12.3645H68.2161V7.71751H68.5735L71.7906 12.3645H74.5312L70.8374 7.47921ZM68.931 6.04938H68.2161V2.47479H68.931C70.3608 2.47479 71.1949 3.07056 71.1949 4.26208C71.1949 5.45361 70.3608 6.04938 68.931 6.04938Z" fill="black"/>
<path d="M62.3774 10.4581H60.2327V8.31335L57.8496 5.9303V12.3645H64.2839L62.3774 10.4581Z" fill="#3B3D3F"/>
<path d="M53.8011 1.87903L51.1798 8.55159L48.0818 0.6875H45.5796L50.4648 12.7219H51.7755L55.5884 3.66632L53.8011 1.87903Z" fill="#3B3D3F"/>
</svg>
