<svg width="22" height="16" viewBox="0 0 22 16" fill="none" xmlns="http://www.w3.org/2000/svg">
<path d="M19.6892 0H2.64378C1.55287 0 0.666504 0.983452 0.666504 2.19385V13.8061C0.666504 15.0165 1.55287 16 2.64378 16H19.6892C20.7801 16 21.6665 15.0165 21.6665 13.8061V2.19385C21.6665 0.983452 20.7801 0 19.6892 0ZM19.6892 1.32388C19.8597 1.32388 19.996 1.3617 20.1324 1.47518L11.6438 7.18676C11.337 7.37589 10.996 7.37589 10.6892 7.18676L2.20059 1.47518C2.33696 1.39953 2.47332 1.32388 2.64378 1.32388H19.6892ZM19.6892 14.6383H2.64378C2.23469 14.6383 1.85969 14.26 1.85969 13.7683V2.79905L10.0415 8.32151C10.3824 8.54846 10.7574 8.66194 11.1324 8.66194C11.5074 8.66194 11.8824 8.54846 12.2233 8.32151L20.4051 2.79905V13.7683C20.4733 14.26 20.0983 14.6383 19.6892 14.6383Z" fill="#6172F3"/>
</svg>
