<svg width="40" height="40" viewBox="0 0 40 40" fill="none" xmlns="http://www.w3.org/2000/svg">
<g clip-path="url(#clip0_80_4089)">
<path d="M38.4695 23.3929L38.4696 23.3929C38.8007 23.275 39.1653 23.4471 39.2836 23.7787C39.8925 25.4842 40.1409 27.1173 40.0203 28.6322C39.9898 29.0168 39.6111 29.2924 39.235 29.2008L33.8939 27.9048C33.9967 28.2304 34.0852 28.6108 34.1327 29.0381L34.0849 29.0434L34.1327 29.0381C34.2809 30.3779 34.0414 32.4632 32.0751 34.8076L32.0368 34.7754L32.0751 34.8076C31.9542 34.9516 31.7757 35.0351 31.5872 35.0351H22.3535C22.0011 35.0351 21.7094 34.7371 21.7167 34.385V34.385C21.7179 34.33 21.7398 33.7613 22.1368 33.121C22.529 32.4886 23.284 31.7912 24.7331 31.448C24.6386 31.2778 24.5471 31.0852 24.4677 30.8706C24.4676 30.8705 24.4676 30.8704 24.4676 30.8703L38.4695 23.3929ZM38.4695 23.3929C38.1384 23.5111 37.9655 23.8757 38.0837 24.2069L38.1195 24.1941L38.0837 24.2069C38.5311 25.4598 38.7624 26.6574 38.7755 27.7784M38.4695 23.3929L38.7755 27.7784M38.7755 27.7784L32.9905 26.3744L24.0473 21.6888C23.7357 21.5256 23.3508 21.6455 23.1872 21.9574L23.1872 21.9574C23.0243 22.2691 23.1445 22.6539 23.4561 22.8171L32.3213 27.4622C32.4881 27.7393 32.872 28.492 32.8984 29.5788C32.925 30.6761 32.5873 32.1187 31.2848 33.7611H23.2457C23.5657 33.2854 24.2914 32.6929 25.9417 32.5431C26.1971 32.5199 26.4137 32.3457 26.4912 32.1017L26.4912 32.1016C26.5686 31.8573 26.4925 31.5901 26.2974 31.4238L26.2971 31.4235L26.2971 31.4235C26.2967 31.4231 26.29 31.4174 26.2781 31.406C26.2659 31.3944 26.2484 31.3773 26.2269 31.3547C26.1838 31.3095 26.1244 31.2426 26.0578 31.1545C25.9247 30.9783 25.7633 30.718 25.647 30.3785C25.415 29.7015 25.36 28.7038 26.0779 27.4219L26.0343 27.3975L26.0779 27.4219C26.2498 27.1149 26.1401 26.7268 25.8332 26.5549C25.5262 26.383 25.138 26.4927 24.9662 26.7993L24.9662 26.7993C24.3895 27.8294 24.2046 28.7382 24.2145 29.4916C23.2351 29.4848 22.1368 29.4261 20.9387 29.3167C17.5636 29.0078 14.498 28.3936 14.4686 28.3874L14.4682 28.3873C14.1546 28.324 13.8439 28.5026 13.74 28.8042L13.7872 28.8205L13.74 28.8042L12.0322 33.7611H8.10625C8.55436 33.3869 9.28775 32.9414 10.1477 32.5887C10.3275 32.5152 10.464 32.3635 10.518 32.1768L38.7755 27.7784ZM22.4329 21.5619L22.4329 21.562C22.2715 21.8696 21.8812 21.992 21.5729 21.8305L21.5961 21.7862L22.4329 21.5619ZM22.4329 21.5619C22.5959 21.2503 22.4757 20.8655 22.164 20.7022L17.098 18.0477M22.4329 21.5619L17.098 18.0477M17.098 18.0477C17.7099 17.2904 17.8628 16.349 17.6843 15.5521C17.4218 14.3793 16.3668 13.2299 14.6001 13.3L14.6 13.3C13.8453 13.3307 13.2204 13.6143 12.746 14.1439C12.4126 14.5157 12.2002 14.9675 12.0645 15.4104L10.84 14.7689C10.8005 13.8392 10.8665 11.1046 12.7723 9.04644L12.7723 9.04643C13.0114 8.78813 12.9958 8.38512 12.7379 8.14602L12.7378 8.14597C12.4795 7.90722 12.0765 7.92278 11.8374 8.18075L11.8374 8.18076C9.44231 10.7673 9.51351 14.1506 9.57824 15.0324C9.08764 15.9121 8.36788 17.0118 7.61636 17.9023C7.2387 18.3499 6.85412 18.7433 6.48761 19.0294L17.098 18.0477ZM10.518 32.1767L11.5086 28.7653C11.5613 28.5847 11.5311 28.39 11.4268 28.2337L11.4268 28.2336C11.3222 28.0774 11.1543 27.975 10.9674 27.9545C9.65458 27.8086 7.88693 27.0996 6.25484 26.2035C4.62281 25.3075 3.13547 24.2297 2.38074 23.3524L2.34595 23.3824L2.38074 23.3524C2.12065 23.0502 1.96016 22.725 1.89641 22.3795C2.7529 22.2882 3.42725 21.5802 3.46576 20.7091C4.13478 20.8007 4.8487 20.8265 5.56105 20.7808L10.518 32.1767ZM11.8877 17.3139L11.8877 17.3139L11.8877 17.3139Z" fill="#667085" stroke="#667085" stroke-width="0.1"/>
<path d="M14.4598 7.72578L14.4598 7.7258C14.1532 7.89798 13.7647 7.78941 13.5924 7.48239L14.4598 7.72578ZM14.4598 7.72578C15.258 7.27679 16.194 6.94364 17.2422 6.73607L17.2422 6.73607M14.4598 7.72578L17.2422 6.73607M17.2422 6.73607C21.1114 5.96966 24.0893 6.58069 25.905 7.22789L25.905 7.2279M17.2422 6.73607L25.905 7.2279M25.905 7.2279C26.9779 7.61007 27.7844 8.05006 28.2977 8.37241M25.905 7.2279L28.2977 8.37241M28.2977 8.37241L26.2653 9.95074C26.2653 9.95075 26.2653 9.95075 26.2653 9.95076C26.0407 10.125 25.9593 10.427 26.0649 10.6909L26.0649 10.6909C26.1709 10.9549 26.4385 11.1165 26.7223 11.087L26.7171 11.0374L26.7219 11.0871L26.722 11.0871C26.7472 11.0846 27.9323 10.9704 29.5735 11.1443C31.192 11.3159 33.2507 11.7673 35.078 12.8797L32.5535 13.9361C32.2995 14.0424 32.1429 14.2998 32.1644 14.5739C32.1859 14.8481 32.3813 15.0776 32.6488 15.1426C32.6804 15.1503 35.741 15.9199 38.0534 18.4251H35.9542C35.7081 18.4251 35.4839 18.5671 35.3786 18.7897C35.2733 19.0122 35.3057 19.2758 35.4617 19.4662L35.4618 19.4663L35.462 19.4666L35.4626 19.4673L35.4648 19.47L35.4728 19.48L35.5028 19.5178C35.5288 19.5508 35.5664 19.5993 35.614 19.6622C35.7092 19.7881 35.8443 19.9718 36.0052 20.2053C36.3272 20.6723 36.753 21.3382 37.1721 22.1387C37.1721 22.1387 37.1721 22.1387 37.1721 22.1387L37.2164 22.1155C37.321 22.3157 37.5252 22.4304 37.7367 22.4304C37.8286 22.4304 37.9216 22.4088 38.0086 22.3633C38.2958 22.2129 38.4066 21.8582 38.2564 21.5711C37.8625 20.8186 37.4665 20.1814 37.1424 19.6991H37.2026L28.2977 8.37241ZM36.7898 12.5171C34.0562 10.375 30.6595 9.86893 28.5584 9.78274M36.7898 12.5171L36.7589 12.5565L36.7897 12.5171C36.7897 12.5171 36.7897 12.5171 36.7898 12.5171ZM36.7898 12.5171C36.9676 12.6563 37.0583 12.8798 37.0282 13.1036C36.9981 13.3275 36.8514 13.5189 36.6427 13.606L28.5584 9.78274M28.5584 9.78274L29.7586 8.85085L29.7297 8.81365L29.7586 8.85084C29.91 8.73326 30.0001 8.55409 30.0047 8.36273C30.0093 8.17128 29.9275 7.98812 29.7818 7.86361C29.7283 7.81761 28.5584 6.83139 26.3926 6.04917C22.8082 4.75467 19.3027 5.02902 16.9945 5.48624L16.9945 5.48624C15.8155 5.71997 14.7526 6.09942 13.8355 6.61506L13.8355 6.61506C13.5289 6.78757 13.4199 7.17567 13.5924 7.48236L28.5584 9.78274ZM39.9065 18.6959C38.29 16.3963 36.0614 15.1209 34.5665 14.475L36.6427 13.606L39.9065 18.6959Z" fill="#667085" stroke="#667085" stroke-width="0.1"/>
<path d="M7.90117 21.7092C7.90117 22.5563 8.43737 23.239 9.14258 23.239C9.8478 23.239 10.384 22.556 10.384 21.7092C10.384 20.8625 9.84779 20.1797 9.14258 20.1797C8.43737 20.1797 7.90117 20.8628 7.90117 21.7092Z" fill="#667085" stroke="#667085" stroke-width="0.1"/>
</g>
<defs>
<clipPath id="clip0_80_4089">
<rect width="40" height="40" fill="white"/>
</clipPath>
</defs>
</svg>
