<svg width="48" height="48" viewBox="0 0 48 48" fill="none" xmlns="http://www.w3.org/2000/svg">
<rect width="48" height="48" fill="white"/>
<g clip-path="url(#clip0_80_4088)">
<path d="M42.4695 27.3929L42.4696 27.3929C42.8007 27.275 43.1653 27.4471 43.2836 27.7787C43.8925 29.4842 44.1409 31.1173 44.0203 32.6322C43.9898 33.0168 43.6111 33.2924 43.235 33.2008L37.8939 31.9048C37.9967 32.2304 38.0852 32.6108 38.1327 33.0381L38.083 33.0436L38.1327 33.0381C38.2809 34.3779 38.0414 36.4632 36.0751 38.8076C35.9542 38.9516 35.7757 39.0351 35.5872 39.0351H26.3535C26.0011 39.0351 25.7094 38.7371 25.7167 38.385L25.7167 38.385C25.7179 38.33 25.7398 37.7613 26.1368 37.121C26.529 36.4886 27.284 35.7912 28.7331 35.448C28.6386 35.2777 28.547 35.0851 28.4676 34.8703M42.4695 27.3929L28.5145 34.853M42.4695 27.3929C42.1384 27.5111 41.9655 27.8757 42.0837 28.2069C42.5311 29.4598 42.7624 30.6574 42.7755 31.7784L36.9905 30.3744L28.0473 25.6888C27.7357 25.5256 27.3508 25.6455 27.1872 25.9574L27.1872 25.9574C27.0243 26.2691 27.1445 26.6539 27.4561 26.8171L36.3213 31.4622C36.4881 31.7393 36.872 32.492 36.8984 33.5788C36.925 34.6761 36.5873 36.1187 35.2848 37.7611H27.2457M42.4695 27.3929L27.2457 37.7611M28.4676 34.8703L28.5145 34.853M28.4676 34.8703C28.4676 34.8704 28.4676 34.8705 28.4677 34.8706L28.5145 34.853M28.4676 34.8703C28.4549 34.8365 28.4428 34.8018 28.4309 34.7666M28.5145 34.853C28.498 34.8091 28.4824 34.7633 28.4669 34.7166M28.4309 34.7666C28.443 34.7666 28.455 34.7666 28.467 34.7666L28.4669 34.7166M28.4309 34.7666C27.3579 34.7674 26.147 34.7065 24.8228 34.5854C22.2277 34.348 19.8128 33.9338 18.7647 33.7406M28.4309 34.7666C28.4271 34.7553 28.4233 34.7438 28.4194 34.7324L28.4669 34.7166M28.4669 34.7166L18.7647 33.7406M18.7647 33.7406L18.7787 33.6999L18.7315 33.6836L18.7224 33.7327C18.7362 33.7353 18.7503 33.7379 18.7647 33.7406ZM18.7647 33.7406L17.0887 38.6055L17.0414 38.5893L17.0887 38.6056L18.7647 33.7406ZM27.2457 37.7611C27.5657 37.2854 28.2914 36.6929 29.9417 36.5431C30.1971 36.5199 30.4137 36.3457 30.4912 36.1017L30.4912 36.1016C30.5686 35.8573 30.4925 35.5901 30.2974 35.4238L30.2971 35.4235C30.2972 35.4236 30.2905 35.4178 30.2781 35.406C30.2659 35.3944 30.2484 35.3773 30.2269 35.3547C30.1838 35.3095 30.1244 35.2426 30.0578 35.1545C29.9247 34.9783 29.7633 34.718 29.647 34.3785C29.415 33.7015 29.36 32.7038 30.0779 31.4219C30.2498 31.1149 30.1401 30.7268 29.8332 30.5549C29.5262 30.383 29.138 30.4927 28.9662 30.7993L28.9662 30.7993C28.3895 31.8294 28.2046 32.7382 28.2145 33.4916C27.2351 33.4848 26.1368 33.4261 24.9387 33.3167C21.5636 33.0078 18.498 32.3936 18.4686 32.3874L18.4682 32.3873C18.1546 32.324 17.8439 32.5026 17.74 32.8042L17.7872 32.8205L17.74 32.8042L16.0322 37.7611H12.1062C12.5544 37.3869 13.2877 36.9414 14.1477 36.5887C14.3276 36.5152 14.464 36.3635 14.518 36.1767L15.5086 32.7653C15.5613 32.5847 15.5311 32.39 15.4268 32.2337L15.4268 32.2336C15.3222 32.0774 15.1543 31.975 14.9674 31.9545C13.6546 31.8086 11.8869 31.0996 10.2548 30.2035C8.62281 29.3075 7.13547 28.2297 6.38074 27.3524L6.34284 27.385L6.38074 27.3524C6.12065 27.0502 5.96016 26.725 5.89641 26.3795C6.7529 26.2882 7.42725 25.5802 7.46576 24.7091C8.13478 24.8007 8.8487 24.8265 9.56106 24.7808C10.1046 24.7461 10.6711 24.4966 11.2684 24.0329C11.8657 23.5691 12.4964 22.889 13.1691 21.988C13.7302 21.2365 14.1927 20.4983 14.4781 20.0176L15.8398 20.731C15.8219 21.0628 15.8361 21.2892 15.8379 21.3172L15.8379 21.3173C15.8625 21.6684 16.1665 21.9323 16.5174 21.9085L16.5175 21.9085C16.8686 21.8843 17.1331 21.5799 17.109 21.2289L17.1089 21.2283L17.1089 21.2281C17.1088 21.2269 17.1085 21.2212 17.1081 21.2106C17.1076 21.199 17.107 21.1821 17.1064 21.1605C17.1054 21.1174 17.1047 21.0555 17.106 20.9792C17.1087 20.8265 17.1194 20.6165 17.1513 20.3836C17.2153 19.9155 17.3635 19.3637 17.6948 18.994L17.6948 18.994C17.933 18.728 18.2443 18.5896 18.6517 18.573L18.6518 18.573C19.3469 18.5439 20.2239 18.8607 20.4411 19.8306C20.5657 20.387 20.4167 21.1481 19.6594 21.6462C19.6484 21.653 19.637 21.6603 19.6255 21.6684C19.5156 21.7378 19.3936 21.8019 19.2577 21.8592L19.2576 21.8593C18.9338 21.9963 18.7821 22.3702 18.9192 22.6941C18.9192 22.6941 18.9192 22.6941 18.9192 22.6941L18.9652 22.6746M27.2457 37.7611L10.3744 38.4469C10.3156 37.6808 10.8935 36.9513 12.0903 36.2148C12.5842 35.9108 13.0782 35.6713 13.3777 35.535L14.0852 33.0989C12.5925 32.7826 10.8313 32.0186 9.24528 31.1068C7.64085 30.1844 6.20996 29.1074 5.41504 28.1836L5.45294 28.151L5.41504 28.1836C4.8592 27.5375 4.58253 26.7858 4.59321 25.9892C4.20105 25.6664 3.95 25.1777 3.95 24.6308C3.95 23.6611 4.73899 22.8722 5.70897 22.8718H5.70899C6.16767 22.8718 6.58542 23.0487 6.8989 23.3371C6.99125 23.3424 7.08463 23.3529 7.17836 23.3714L7.17841 23.3715C7.67144 23.4696 8.47179 23.5735 9.47991 23.5095C9.77623 23.4905 10.1198 23.3164 10.4876 23.0294C10.8541 22.7433 11.2387 22.3499 11.6164 21.9023C12.3679 21.0118 13.0876 19.9121 13.5782 19.0324C13.5135 18.1506 13.4423 14.7673 15.8374 12.1808L15.8374 12.1807C16.0765 11.9228 16.4795 11.9072 16.7378 12.146L16.7379 12.146C16.9958 12.3851 17.0114 12.7881 16.7723 13.0464L16.7723 13.0464C14.8665 15.1046 14.8005 17.8392 14.84 18.7689L16.0645 19.4104C16.2002 18.9675 16.4126 18.5157 16.746 18.1439C17.2204 17.6143 17.8453 17.3307 18.6 17.3L18.6001 17.3C20.3668 17.2299 21.4218 18.3793 21.6843 19.5521C21.8628 20.349 21.7099 21.2904 21.0981 22.0477L26.164 24.7022C26.4757 24.8655 26.5959 25.2503 26.4329 25.5619L26.4329 25.562C26.2715 25.8696 25.8812 25.992 25.5729 25.8305L25.5961 25.7862L25.5729 25.8305L20.0075 22.9147C19.823 23.0101 19.6115 23.1189 19.3758 23.0697C19.3758 23.0697 19.3758 23.0697 19.3758 23.0697L19.3861 23.0207M18.9652 22.6746C19.0397 22.8507 19.199 22.9817 19.3861 23.0207M18.9652 22.6746C18.8389 22.3762 18.9786 22.0316 19.2771 21.9053L18.9652 22.6746ZM19.3861 23.0207C19.6048 23.0664 19.8025 22.9643 19.9917 22.8666C19.997 22.8639 20.0024 22.8611 20.0077 22.8584L19.3861 23.0207ZM28.7838 35.4362C28.7924 35.4516 28.801 35.4667 28.8096 35.4817C28.7925 35.4855 28.7755 35.4894 28.7587 35.4934L28.7838 35.4362Z" fill="#667085" stroke="#667085" stroke-width="0.1"/>
<path d="M18.4598 11.7258L18.4598 11.7258C18.1532 11.898 17.7647 11.7894 17.5924 11.4824L18.4598 11.7258ZM18.4598 11.7258C19.258 11.2768 20.194 10.9436 21.2422 10.7361L21.2422 10.7361M18.4598 11.7258L21.2422 10.7361M21.2422 10.7361C25.1114 9.96966 28.0893 10.5807 29.905 11.2279L29.905 11.2279M21.2422 10.7361L29.905 11.2279M29.905 11.2279C30.9779 11.6101 31.7844 12.0501 32.2977 12.3724L30.2653 13.9507L30.296 13.9902L30.2653 13.9508M29.905 11.2279L30.2653 13.9508M42.0534 22.4251C42.0687 22.4416 42.084 22.4583 42.0992 22.4751H39.9542C39.7274 22.4751 39.5208 22.606 39.4238 22.8111C39.3267 23.0161 39.3566 23.2591 39.5004 23.4345L30.7171 15.0373M42.0534 22.4251H42.1213C39.7952 19.8818 36.6953 19.1025 36.6607 19.094M42.0534 22.4251C39.741 19.9199 36.6804 19.1503 36.6488 19.1426M42.0534 22.4251H39.9542C39.7081 22.4251 39.4839 22.5671 39.3786 22.7897C39.2733 23.0122 39.3057 23.2758 39.4617 23.4662L39.4618 23.4663L39.462 23.4666L39.4626 23.4673L39.4648 23.47L39.4728 23.48L39.5028 23.5178C39.5288 23.5508 39.5664 23.5993 39.614 23.6622C39.7092 23.7881 39.8443 23.9718 40.0052 24.2053C40.3272 24.6723 40.753 25.3382 41.1721 26.1387M36.6607 19.094C36.4141 19.0342 36.2341 18.8227 36.2142 18.57C36.1944 18.3173 36.3387 18.0802 36.5728 17.9823L39.1306 16.9119C39.1131 16.9011 39.0956 16.8904 39.078 16.8797M36.6607 19.094L36.6488 19.1426M36.6607 19.094L36.6489 19.1426C36.6489 19.1426 36.6488 19.1426 36.6488 19.1426M39.078 16.8797L39.135 16.8559C35.4312 14.5829 30.7702 15.0322 30.7171 15.0373L30.7171 15.0373M39.078 16.8797C37.2507 15.7673 35.192 15.3159 33.5735 15.1443C31.9323 14.9704 30.7472 15.0846 30.722 15.0871L30.7219 15.0871L30.7171 15.0373M39.078 16.8797L36.5535 17.9361C36.2995 18.0424 36.1429 18.2998 36.1644 18.5739C36.1859 18.8481 36.3813 19.0776 36.6488 19.1426M30.7171 15.0373L30.7223 15.087C30.4385 15.1165 30.1709 14.9549 30.0649 14.6909L30.0649 14.6909C29.9593 14.427 30.0407 14.125 30.2653 13.9508M30.2653 13.9508L40.6427 17.606M41.1721 26.1387C41.1721 26.1387 41.1721 26.1387 41.1721 26.1387L41.2164 26.1155L41.1721 26.1387ZM41.1721 26.1387C41.2857 26.356 41.5073 26.4804 41.7367 26.4804C41.8365 26.4804 41.9375 26.4569 42.0318 26.4076L42.0318 26.4076C42.3434 26.2443 42.4636 25.8595 42.3007 25.5479L42.3007 25.5479C41.9133 24.8079 41.524 24.1792 41.2026 23.6991H43.3856C43.6233 23.6991 43.8412 23.5669 43.9509 23.356L43.9509 23.3559C44.0605 23.1447 44.0433 22.8903 43.9065 22.6959M43.9065 22.6959C43.9065 22.6959 43.9065 22.6959 43.9065 22.6959L43.8656 22.7247L43.9065 22.6959ZM43.9065 22.6959C42.29 20.3963 40.0614 19.1209 38.5665 18.475M38.5665 18.475L40.6427 17.606M38.5665 18.475L38.5023 18.5018L40.6427 17.606M38.5665 18.475C38.545 18.4657 38.5237 18.4565 38.5025 18.4475L40.6234 17.5599L40.6427 17.606M40.7898 16.5171C38.0562 14.375 34.6595 13.8689 32.5584 13.7827M40.7898 16.5171L40.7589 16.5565L40.7897 16.5171C40.7897 16.5171 40.7897 16.5171 40.7898 16.5171ZM40.7898 16.5171C40.9676 16.6563 41.0583 16.8798 41.0282 17.1036C40.9981 17.3275 40.8514 17.5189 40.6427 17.606L32.5584 13.7827M32.5584 13.7827L33.7586 12.8508L33.728 12.8114L33.7586 12.8508C33.91 12.7333 34.0001 12.5541 34.0047 12.3627C34.0093 12.1713 33.9275 11.9881 33.7818 11.8636C33.7283 11.8176 32.5584 10.8314 30.3926 10.0492C26.8082 8.75467 23.3027 9.02902 20.9945 9.48624L20.9945 9.48624C19.8155 9.71997 18.7526 10.0994 17.8355 10.6151L17.8355 10.6151C17.5289 10.7876 17.4199 11.1757 17.5924 11.4824L32.5584 13.7827Z" fill="#667085" stroke="#667085" stroke-width="0.1"/>
<path d="M11.9012 25.7092C11.9012 26.5563 12.4374 27.239 13.1426 27.239C13.8478 27.239 14.384 26.556 14.384 25.7092C14.384 24.8625 13.8478 24.1797 13.1426 24.1797C12.4374 24.1797 11.9012 24.8628 11.9012 25.7092Z" fill="#667085" stroke="#667085" stroke-width="0.1"/>
</g>
<defs>
<clipPath id="clip0_80_4088">
<rect width="40" height="40" fill="white" transform="translate(4 4)"/>
</clipPath>
</defs>
</svg>
