<svg width="21" height="20" viewBox="0 0 21 20" fill="none" xmlns="http://www.w3.org/2000/svg">
<path d="M18.8483 20.0004H14.4652C13.4912 20.0004 12.6795 19.1883 12.6795 18.2139V14.641C12.6795 14.2838 12.3873 13.9914 12.0301 13.9914H9.33533C8.97819 13.9914 8.68598 14.2838 8.68598 14.641V18.1814C8.68598 19.1559 7.8743 19.9679 6.90027 19.9679H2.45222C1.47819 19.9679 0.666504 19.1559 0.666504 18.1814V6.84568C0.666504 6.35847 0.926244 5.90374 1.34832 5.64389L9.91975 0.219611C10.3743 -0.0727154 10.9912 -0.0727154 11.4457 0.219611L20.0172 5.64389C20.4392 5.90374 20.6665 6.35847 20.6665 6.84568V18.149C20.6665 19.1883 19.8548 20.0004 18.8483 20.0004ZM9.30287 12.8546H11.9977C12.9717 12.8546 13.7834 13.6666 13.7834 14.641V18.1814C13.7834 18.5387 14.0756 18.8311 14.4327 18.8311H18.8483C19.2055 18.8311 19.4977 18.5387 19.4977 18.1814V6.87816C19.4977 6.78071 19.4327 6.68327 19.3678 6.61831L10.8288 1.19403C10.7314 1.12907 10.6016 1.12907 10.5366 1.19403L1.96521 6.61831C1.8678 6.68327 1.83534 6.78071 1.83534 6.87816V18.2139C1.83534 18.5712 2.12754 18.8635 2.48469 18.8635H6.90027C7.25741 18.8635 7.54962 18.5712 7.54962 18.2139V14.641C7.51715 13.6666 8.32884 12.8546 9.30287 12.8546Z" fill="#6172F3"/>
</svg>
