<svg width="48" height="48" viewBox="0 0 48 48" fill="none" xmlns="http://www.w3.org/2000/svg">
<circle cx="24" cy="24" r="24" fill="#6172F3"/>
<path fill-rule="evenodd" clip-rule="evenodd" d="M32.2883 15.6767C32.791 16.1793 33.1833 16.7813 33.44 17.4442C33.736 18.2307 33.894 19.0624 33.9069 19.9026C33.969 20.9639 33.969 21.3076 33.969 24.0166C33.969 26.7257 33.9546 27.0639 33.9069 28.1306C33.8902 28.9601 33.7339 29.7785 33.4422 30.5547C33.1852 31.2175 32.7928 31.8195 32.2901 32.3222C31.7874 32.825 31.1854 33.2174 30.5225 33.4744C29.7466 33.7651 28.9269 33.9222 28.0985 33.939C27.0395 34 26.6924 34 23.9845 34C21.2766 34 20.9384 33.9856 19.8705 33.939C19.0403 33.9117 18.2209 33.743 17.4476 33.44C16.7845 33.1834 16.1823 32.7913 15.6793 32.2888C15.1764 31.7862 14.7839 31.1843 14.5267 30.5214C14.2351 29.7441 14.0787 28.9257 14.0621 28.0963C14 27.0351 14 26.6902 14 23.9823C14 21.2732 14.0144 20.935 14.0621 19.8683C14.0783 19.0397 14.2354 18.22 14.5267 17.4442C14.7831 16.7811 15.1753 16.179 15.6781 15.6763C16.1809 15.1737 16.7833 14.7818 17.4464 14.5256C18.2213 14.2335 19.0404 14.076 19.8683 14.0599C20.9273 14 21.2743 14 23.9823 14C26.6902 14 27.0284 14.0133 28.0963 14.0599C28.9248 14.0769 29.7445 14.2344 30.5203 14.5256C31.1833 14.7821 31.7855 15.1741 32.2883 15.6767ZM31.7445 29.886C31.9656 29.2864 32.0822 28.6533 32.0894 28.0142V28.0153H32.1016C32.1493 26.9552 32.1493 26.6647 32.1493 23.9634C32.1493 21.261 32.1371 20.965 32.0894 19.9104C32.0791 19.2785 31.9625 18.6529 31.7445 18.0597C31.5779 17.6284 31.3229 17.2367 30.996 16.9098C30.6691 16.5828 30.2774 16.3279 29.8461 16.1612C29.2532 15.9406 28.6268 15.824 27.9942 15.8164C26.9219 15.7554 26.6447 15.7554 23.9423 15.7554C21.24 15.7554 20.9439 15.7687 19.8893 15.8164C19.2573 15.8252 18.6314 15.9418 18.0386 16.1612C17.1637 16.4961 16.4706 17.1847 16.1324 18.0597C15.9114 18.6589 15.7947 19.2917 15.7875 19.9304C15.7288 21.0049 15.7288 21.281 15.7288 23.9834C15.7288 26.6846 15.7399 26.9818 15.7875 28.0353C15.7979 28.6672 15.9144 29.2928 16.1324 29.886C16.2997 30.3181 16.5558 30.7102 16.8841 31.037C17.2125 31.3638 17.6058 31.6181 18.0386 31.7833C18.6311 32.0038 19.2572 32.1205 19.8893 32.1282C20.9627 32.1892 21.2389 32.1892 23.9423 32.1892C26.6436 32.1892 26.9408 32.177 27.9942 32.1282C28.6267 32.1201 29.2531 32.0034 29.8461 31.7833C30.2774 31.6171 30.6691 31.3624 30.9961 31.0356C31.3231 30.7088 31.578 30.3172 31.7445 29.886ZM29.3071 19.8549C29.9673 19.8549 30.5025 19.3197 30.5025 18.6595C30.5025 17.9993 29.9673 17.4642 29.3071 17.4642C28.6469 17.4642 28.1117 17.9993 28.1117 18.6595C28.1117 19.3197 28.6469 19.8549 29.3071 19.8549ZM23.9768 18.8482C22.6169 18.8482 21.3127 19.3884 20.3511 20.35C19.3895 21.3116 18.8492 22.6159 18.8492 23.9758C18.8492 25.3357 19.3895 26.6399 20.3511 27.6015C21.3127 28.5631 22.6169 29.1033 23.9768 29.1033C25.3367 29.1033 26.6409 28.5631 27.6025 27.6015C28.5641 26.6399 29.1043 25.3357 29.1043 23.9758C29.1043 22.6159 28.5641 21.3116 27.6025 20.35C26.6409 19.3884 25.3367 18.8482 23.9768 18.8482ZM23.9768 27.3058C23.0933 27.3058 22.246 26.9548 21.6213 26.3301C20.9966 25.7054 20.6457 24.8581 20.6457 23.9746C20.6457 23.0912 20.9966 22.2439 21.6213 21.6192C22.246 20.9945 23.0933 20.6435 23.9768 20.6435C24.8602 20.6435 25.7075 20.9945 26.3322 21.6192C26.9569 22.2439 27.3079 23.0912 27.3079 23.9746C27.3079 24.8581 26.9569 25.7054 26.3322 26.3301C25.7075 26.9548 24.8602 27.3058 23.9768 27.3058Z" fill="white"/>
</svg>
