<svg width="48" height="48" viewBox="0 0 48 48" fill="none" xmlns="http://www.w3.org/2000/svg">
<circle cx="24" cy="24" r="24" fill="#6172F3"/>
<path fill-rule="evenodd" clip-rule="evenodd" d="M19.8525 16.9263C19.8525 17.9901 18.9901 18.8525 17.9263 18.8525C16.8624 18.8525 16 17.9901 16 16.9263C16 15.8624 16.8624 15 17.9263 15C18.9901 15 19.8525 15.8624 19.8525 16.9263ZM21.6714 30.999V20.3121H24.8566V21.7736H24.9015C25.3443 20.9346 26.4272 20.048 28.0427 20.048C31.4075 20.048 32.0272 22.2604 32.0272 25.1392V30.9999H28.7073V25.8022C28.7073 24.5635 28.6862 22.9691 26.9809 22.9691C25.2519 22.9691 24.9895 24.3196 24.9895 25.7141V30.999H21.6714ZM19.5875 20.3121H16.2641V30.999H19.5875V20.3121Z" fill="white"/>
</svg>
