<svg width="32" height="28" viewBox="0 0 32 28" fill="none" xmlns="http://www.w3.org/2000/svg">
<path d="M3.69986 12.25C3.84986 12.25 3.99986 12.25 4.09986 12.2L9.64986 10.25C10.0999 10.1 10.3499 9.60001 10.1999 9.15001C10.0499 8.70001 9.54986 8.45001 9.09986 8.60001L5.74986 9.80001C7.39986 5.25001 11.7499 2.15001 16.7999 2.15001C22.1499 2.15001 26.8499 5.70001 28.1499 10.85C28.2499 11.3 28.7499 11.6 29.1999 11.5C29.6499 11.4 29.9499 10.9 29.8499 10.45C28.3499 4.55001 22.9499 0.450012 16.7999 0.450012C10.7999 0.450012 5.59986 4.30001 3.89986 9.90001L2.34986 5.55001C2.19986 5.10001 1.69986 4.85001 1.24986 5.00001C0.799858 5.15001 0.549858 5.65001 0.699858 6.10001L2.59986 11.55C2.74986 11.95 3.24986 12.25 3.69986 12.25Z" fill="#6172F3"/>
<path d="M31.2999 22.95L29.2499 17.55C29.1499 17.25 28.8999 17 28.5999 16.9C28.2999 16.8 27.9999 16.75 27.6999 16.9L22.1999 19C21.7499 19.15 21.4999 19.7 21.6999 20.15C21.8499 20.6 22.3999 20.85 22.8499 20.65L26.2499 19.35C24.3499 23.3 20.2999 25.9 15.6999 25.9C10.6499 25.9 6.19986 22.75 4.64986 18.05C4.44986 17.6 3.94986 17.35 3.49986 17.5C3.04986 17.65 2.79986 18.15 2.94986 18.6C4.74986 24 9.84986 27.65 15.6499 27.65C21.1499 27.65 26.0499 24.4 28.0499 19.45L29.6499 23.6C29.7999 23.95 30.0999 24.15 30.4499 24.15C30.5499 24.15 30.6499 24.15 30.7499 24.1C31.2499 23.9 31.4999 23.4 31.2999 22.95Z" fill="#6172F3"/>
</svg>
