<svg width="34" height="20" viewBox="0 0 34 20" fill="none" xmlns="http://www.w3.org/2000/svg">
<path fill-rule="evenodd" clip-rule="evenodd" d="M6.65467 9.78719L6.85 9.01616C7.60047 8.78999 9.13226 8.68718 9.42012 9.49934C9.5846 9.97224 9.1117 11.9358 9.01918 12.5115L8.28926 12.5218C8.12478 12.3162 8.25842 12.6966 8.14534 12.1928C7.44627 12.8199 5.9556 12.7171 6.06869 11.4526C6.18177 10.1984 7.2715 10.3629 8.45375 10.1779C8.43319 9.37597 7.42571 9.59186 6.64439 9.77691L6.65467 9.78719ZM12.1547 9.66383C11.4865 9.66383 11.3837 9.5199 10.7977 9.77691C10.8697 10.5068 11.25 10.219 11.7743 10.5685C12.7715 11.2265 11.7024 13.262 9.32759 12.3881L9.46124 11.648C10.1295 11.7816 10.4687 11.9152 10.9827 11.6274C11.1061 10.5891 9.26591 11.2676 9.77993 9.60215C10.0575 8.69746 11.2809 8.82083 12.2884 8.91335L12.1444 9.66383H12.1547ZM1.91538 8.09092L3.48829 8.14232L3.65278 10.6096L4.50606 8.63578C4.79391 7.92643 4.59858 8.08064 6.40794 8.1012L5.59579 12.5115L4.71167 12.5012L5.19485 9.33485L3.88923 12.5218L2.83034 12.491C2.7995 11.8741 2.7481 9.70495 2.58361 9.29373L2.04903 12.5012L1.12379 12.491L1.91538 8.09092ZM16.9146 17.4564L17.3463 16.9424C16.4828 16.8293 16.3286 17.076 15.9379 16.377L17.9221 16.3564C18.0454 16.1508 18.251 15.9555 18.3538 15.719C16.0921 15.5648 15.4547 16.1405 15.0949 15.1536H18.7239L19.1249 14.5265L14.6426 14.5059L14.437 13.9816L19.2688 13.9611C19.5464 13.8069 19.5464 13.6321 19.6183 13.3134L15.0435 13.3031C14.2211 13.3134 14.1697 13.4984 14.0155 12.748H19.7725L19.9576 12.1106L18.2716 12.09L18.1893 12.5218L17.223 12.4807L17.8295 8.89279L18.7445 9.01616C18.7445 9.03672 18.765 9.10868 18.765 9.13952C18.765 9.16009 18.7753 9.19093 18.7753 9.20121L18.8267 9.38626C19.0837 9.07784 19.2482 8.85167 19.8445 8.87223L19.5361 9.70495C19.3613 9.93112 18.8473 9.67411 18.6314 10.2909L19.6389 10.3321C19.752 9.68439 19.8753 9.48906 20.0604 8.96476L20.0707 8.65634L13.7687 8.66662L13.7482 8.89279C14.0874 8.89279 14.0772 8.83111 14.2725 8.9956L14.18 9.60215C13.5426 9.75635 13.5631 9.37597 13.5015 10.2087C13.594 10.3629 13.4809 10.2807 13.6762 10.3321L14.0772 10.3423C14.7248 8.23484 16.6576 8.69746 17.0996 9.35541C17.3361 9.70495 17.5725 10.8564 16.9865 10.9489L15.023 10.9694C15.1155 12.0078 16.308 11.7919 17.0791 11.5349C17.0482 11.9667 17.0791 12.3162 16.6781 12.4601C16.3594 12.5732 15.6912 12.5424 15.3417 12.4601C14.4781 12.2648 14.108 11.833 14.0463 10.8975L13.6762 10.8872C13.337 10.733 13.6043 10.8872 13.4295 10.4657C13.2856 11.3293 12.8949 11.8844 13.9641 11.761C13.9024 12.2751 13.9744 12.4498 13.4089 12.5115C11.7641 12.7068 12.2986 11.6068 12.5659 10.1367C12.9874 7.79278 12.6585 8.08064 13.851 8.1012L19.9781 8.11148L19.8548 7.47409L13.9332 7.45353L14.0463 6.93951L19.6492 6.90867C19.5052 6.03483 19.4744 6.25072 17.4389 6.25072H14.3342C14.5501 5.50024 14.437 5.70585 16.4519 5.70585H19.1763L18.8884 5.05818L14.9407 5.0479L15.208 4.51332L18.508 4.49276C18.0865 3.6292 18.1071 3.87593 15.7734 3.83481C16.0716 3.09462 16.5959 3.27966 17.5108 3.27966C17.2538 2.86845 17.0688 2.89929 16.9146 2.54975C16.5342 2.35442 16.1949 2.00489 15.8146 1.7376C12.9052 -0.318494 8.95749 -0.534384 5.79111 1.00768C2.94343 2.38527 0.147146 5.57221 0.177987 9.98252C0.219109 16.2844 5.74999 20.8798 12.0108 19.8106C14.951 19.3069 15.6912 18.1144 16.9043 17.4461L16.9146 17.4564Z" fill="#E41D2C"/>
<path fill-rule="evenodd" clip-rule="evenodd" d="M23.6275 8.9865C26.8144 8.33883 26.2901 9.91174 26.0331 11.1865C25.9509 11.5669 25.9509 12.3174 25.6527 12.523C25.5808 12.523 25.1593 12.5333 25.1181 12.5127C24.8303 12.3996 24.9639 12.7389 24.9228 12.2146C24.0593 12.708 22.692 12.8211 22.8564 11.4435C22.9901 10.3435 24.1004 10.1688 25.2312 10.2202C25.1901 9.408 24.4499 9.54165 23.4219 9.79866L23.6378 8.9865H23.6275ZM26.7733 8.89398L27.6266 8.90426C27.6369 8.92482 27.6471 8.95566 27.6471 8.97622L27.7808 9.3566C27.935 9.12015 28.2228 8.91454 28.6752 8.90426L28.5518 9.63417L28.1303 9.79866C27.2873 10.0762 27.3387 11.1351 27.1126 12.523H26.1565L26.7733 8.89398ZM31.307 8.11266H32.1808L31.4303 12.5333C30.4537 12.5435 30.6902 12.5949 30.3817 12.2248C29.7444 13.1706 27.8322 12.2968 28.4182 10.3435C28.85 8.8837 30.3098 8.49304 31.0294 9.3566L31.3173 8.10238L31.307 8.11266ZM16.9246 2.56121C17.0788 2.91075 17.2742 2.87991 17.5209 3.29113C16.6059 3.29113 16.0816 3.0958 15.7835 3.84627C18.1172 3.88739 18.0966 3.64066 18.5181 4.50422L15.2181 4.52478L14.9508 5.05937L18.8985 5.06965L19.1863 5.71732H16.462C14.4573 5.71732 14.5601 5.52199 14.3442 6.26218H17.4489C19.4845 6.26218 19.5153 6.04629 19.6592 6.92013L14.0564 6.95097L13.9433 7.46499L19.8648 7.48555L19.9882 8.12294L13.8611 8.11266L13.7788 8.68837L20.0807 8.67809L20.0704 8.9865C20.5433 8.53416 20.4611 8.29771 21.3452 8.0407C22.0751 7.83509 22.5378 7.9893 23.2574 8.1435L23.1032 9.08931C21.8695 8.71921 21.0676 8.81173 20.7798 10.0865C20.4611 11.4538 21.5406 11.9678 22.6817 11.423C22.5789 12.4202 22.4144 12.6669 21.2424 12.5127C20.4303 12.4099 20.1835 12.0192 19.8237 11.5361H18.3536L18.2714 12.1015L19.9574 12.122L19.7723 12.7594H14.0153C14.1695 13.5099 14.2209 13.3249 15.0433 13.3146L19.6181 13.3249C19.5359 13.6333 19.5461 13.8183 19.2686 13.9725L14.4368 13.9931L14.6424 14.5174L19.1246 14.5379L18.7237 15.1651H15.0947C15.4545 16.1417 16.0919 15.5763 18.3536 15.7305C18.2508 15.9669 18.0452 16.1623 17.9218 16.3679L15.9377 16.3884C16.3181 17.0772 16.4826 16.8408 17.3461 16.9539L16.9143 17.4679C18.3845 18.5473 19.5256 19.452 21.9004 19.8632C24.0593 20.2333 26.3107 19.8221 28.0481 18.9688C35.5734 15.2576 35.3678 4.5659 27.9864 1.02943C25.334 -0.235071 21.8181 -0.348156 19.0732 1.09111C17.7471 1.7799 17.4284 2.27336 16.9349 2.57149L16.9246 2.56121Z" fill="#F8B02B"/>
<path fill-rule="evenodd" clip-rule="evenodd" d="M1.12305 12.5023L2.04831 12.5126L2.58291 9.30503C2.7474 9.71626 2.79881 11.8855 2.82965 12.5023L3.88856 12.5332L5.19421 9.34615L4.71102 12.5126L5.59516 12.5229L6.40734 8.11247C4.59793 8.0919 4.79327 7.93769 4.50541 8.64706L3.65211 10.621L3.48761 8.15359L1.91466 8.10218L1.12305 12.5023ZM29.7651 11.6902C28.9941 10.8985 29.6521 9.58261 30.3717 9.75738C31.0811 9.93215 30.9474 11.6696 29.7651 11.6902ZM31.0194 9.35643C30.2997 8.49285 28.8502 8.88352 28.4081 10.3434C27.8221 12.2864 29.7343 13.1706 30.3717 12.2248C30.6801 12.5949 30.4437 12.5332 31.4203 12.5332L32.1708 8.11247H31.297L31.0091 9.36671L31.0194 9.35643ZM23.9565 11.7004C23.8126 11.0116 24.45 10.7443 25.0566 10.8677C25.0874 11.5668 24.5939 11.9472 23.9565 11.7004ZM23.6276 8.99661L23.4117 9.80878C24.4397 9.56205 25.1902 9.4284 25.2211 10.2303C24.0902 10.1789 22.9799 10.3537 22.8462 11.4537C22.6714 12.8313 24.0491 12.7182 24.9126 12.2248C24.9538 12.7491 24.8201 12.4098 25.108 12.5229C25.1491 12.5435 25.5706 12.5332 25.6426 12.5332C25.951 12.3378 25.951 11.5771 26.023 11.1967C26.2903 9.91159 26.8043 8.34892 23.6173 8.99661H23.6276ZM8.28871 10.8369C8.30927 11.1864 8.24759 11.4537 8.02141 11.6285C7.8672 11.7416 7.40457 11.8752 7.21952 11.7004C6.6438 11.1761 7.72327 10.8266 8.27843 10.8369H8.28871ZM6.65408 9.78822C7.43541 9.60317 8.44292 9.38727 8.46348 10.1892C7.2812 10.3742 6.19144 10.2097 6.07836 11.464C5.95499 12.7285 7.44569 12.8313 8.15506 12.2042C8.26815 12.7079 8.1345 12.3276 8.29899 12.5332L9.02892 12.5229C9.12145 11.9369 9.59437 9.98356 9.42987 9.51064C9.14201 8.68819 7.62047 8.79099 6.85969 9.02745L6.66436 9.7985L6.65408 9.78822ZM15.1768 10.3023C15.3104 9.77794 15.5366 9.56205 16.1432 9.64429C16.3591 9.95271 16.3591 9.86019 16.4002 10.3023H15.1768ZM14.087 10.3537L14.0459 10.9088C14.1076 11.8444 14.488 12.2659 15.3413 12.4715C15.6908 12.5537 16.3591 12.5846 16.6778 12.4715C17.0787 12.3378 17.0479 11.978 17.0787 11.5462C16.3077 11.8032 15.1151 12.0191 15.0226 10.9808L16.9862 10.9602C17.5722 10.8677 17.3358 9.72654 17.0993 9.36671C16.6572 8.70875 14.7244 8.24611 14.0768 10.3537H14.087ZM20.0704 8.98633C19.8854 9.51064 19.762 9.70598 19.6489 10.3537V10.9191L19.8237 11.5462C20.1835 12.0294 20.4303 12.4201 21.2424 12.5229C22.4144 12.6771 22.5789 12.4304 22.6817 11.4331C21.5303 11.978 20.4611 11.464 20.7798 10.0966C21.0779 8.81155 21.8798 8.72931 23.1032 9.09941L23.2574 8.15359C22.5378 8.00966 22.0752 7.85545 21.3452 8.05078C20.4611 8.29752 20.5433 8.54426 20.0704 8.99661V8.98633ZM12.2879 8.91436C11.2804 8.83212 10.057 8.69847 9.77942 9.60317C9.26538 11.2686 11.0954 10.5901 10.9823 11.6285C10.4579 11.9163 10.129 11.7827 9.46072 11.649L9.32707 12.3892C11.7019 13.2631 12.7608 11.2378 11.7739 10.5696C11.2496 10.22 10.8692 10.5182 10.7972 9.77794C11.3832 9.51064 11.4757 9.66485 12.1543 9.66485L12.2982 8.91436H12.2879Z" fill="#FEFEFE"/>
<path fill-rule="evenodd" clip-rule="evenodd" d="M13.4398 10.4772L13.5118 10.2305C13.5735 9.39776 13.5529 9.77814 14.1903 9.62393L14.2828 9.01739C14.0875 8.8529 14.0978 8.91458 13.7585 8.91458L13.7791 8.68841L13.8613 8.11271C12.6688 8.09215 12.9978 7.80429 12.5763 10.1482C12.309 11.6183 11.7744 12.7184 13.4193 12.523C13.9744 12.4613 13.9127 12.2866 13.9744 11.7726C12.9155 11.8959 13.3062 11.3408 13.4398 10.4772ZM18.2717 12.1118L18.3539 11.5464L18.4567 10.9296L18.6417 10.3127C18.8679 9.6959 19.3819 9.95291 19.5464 9.72674L19.8548 8.89402C19.2483 8.87346 19.0838 9.09963 18.8371 9.40805L18.7857 9.223C18.7857 9.21272 18.7754 9.18187 18.7754 9.16131C18.7754 9.14075 18.7548 9.05851 18.7548 9.03795L17.8399 8.91458L17.2333 12.5025L18.1997 12.5436L18.2819 12.1118H18.2717ZM26.1568 12.523H27.1128C27.339 11.1352 27.2876 10.0763 28.1306 9.7987L28.5521 9.63422L28.6755 8.9043C28.2231 8.91458 27.9353 9.12019 27.7811 9.35664L27.6474 8.97627C27.6371 8.9557 27.6371 8.92486 27.6269 8.9043L26.7736 8.89402L26.1568 12.523Z" fill="#FEFEFE"/>
<path fill-rule="evenodd" clip-rule="evenodd" d="M29.7637 11.6856C30.9562 11.665 31.0899 9.92763 30.3702 9.75286C29.6403 9.57809 28.9927 10.894 29.7637 11.6856Z" fill="#F8B02B"/>
<path fill-rule="evenodd" clip-rule="evenodd" d="M8.28905 10.8351C7.7339 10.8248 6.65445 11.1743 7.23016 11.6986C7.41521 11.8631 7.87783 11.7295 8.03203 11.6267C8.2582 11.4622 8.30961 11.1846 8.29933 10.8351H8.28905ZM18.3536 11.5341L19.8237 11.5444L19.6489 10.9173H18.4564L18.3536 11.5341Z" fill="#E41D2C"/>
<path fill-rule="evenodd" clip-rule="evenodd" d="M23.9571 11.7016C24.6047 11.9381 25.0879 11.568 25.0571 10.8689C24.4402 10.7558 23.8131 11.0231 23.9571 11.7016ZM18.457 10.9203H19.6496V10.3549L18.6421 10.3035L18.457 10.9203Z" fill="#F8B02B"/>
<path fill-rule="evenodd" clip-rule="evenodd" d="M15.1772 10.301H16.4006C16.3698 9.86926 16.3595 9.9515 16.1436 9.64309C15.5371 9.56084 15.3109 9.77673 15.1772 10.301Z" fill="#E41D2C"/>
<path fill-rule="evenodd" clip-rule="evenodd" d="M13.4399 10.4803C13.6147 10.9018 13.3474 10.7476 13.6867 10.9018L14.0567 10.9121L14.0979 10.3569L13.6969 10.3466C13.4913 10.3055 13.6044 10.3775 13.5222 10.2233L13.4502 10.47L13.4399 10.4803Z" fill="#F8B02B"/>
</svg>
