<svg width="74" height="18" viewBox="0 0 74 18" fill="none" xmlns="http://www.w3.org/2000/svg">
<path fill-rule="evenodd" clip-rule="evenodd" d="M6.44483 4.26526H11.4921C14.202 4.26526 15.2222 5.63717 15.0645 7.65269C14.804 10.9802 12.7923 12.8211 10.1241 12.8211H8.77694C8.41084 12.8211 8.1646 13.0634 8.06558 13.7201L7.49363 17.5375C7.45584 17.785 7.32556 17.9283 7.13013 17.9479H3.95897C3.66062 17.9479 3.55509 17.7199 3.63326 17.2261L5.5667 4.98835C5.64227 4.49847 5.91065 4.26526 6.44483 4.26526Z" fill="#009EE3"/>
<path fill-rule="evenodd" clip-rule="evenodd" d="M28.3578 4.03809C30.0606 4.03809 31.6319 4.96181 31.4169 7.26396C31.1564 9.99996 29.6906 11.5139 27.3781 11.5204H25.3573C25.0668 11.5204 24.9261 11.7575 24.8505 12.2435L24.4597 14.728C24.401 15.1032 24.2082 15.2883 23.9242 15.2883H22.0442C21.7445 15.2883 21.6403 15.0967 21.7067 14.6681L23.2584 4.71036C23.3353 4.22049 23.519 4.03809 23.8538 4.03809H28.3539H28.3578ZM25.2961 9.36937H26.827C27.7846 9.33289 28.4203 8.66974 28.4842 7.47372C28.5233 6.735 28.0243 6.20604 27.2308 6.20995L25.7899 6.21646L25.2961 9.36937ZM36.528 14.5261C36.7 14.3697 36.8746 14.289 36.8498 14.4818L36.7886 14.943C36.7573 15.184 36.8524 15.3117 37.0765 15.3117H38.7468C39.0282 15.3117 39.165 15.1984 39.2341 14.7632L40.2633 8.30364C40.3154 7.97923 40.236 7.82028 39.9897 7.82028H38.1527C37.9872 7.82028 37.9065 7.91278 37.8635 8.16554L37.7957 8.5629C37.7605 8.77006 37.6654 8.80654 37.5768 8.59808C37.2655 7.86067 36.4707 7.52974 35.362 7.5558C32.7862 7.60922 31.0495 9.56481 30.8632 12.0715C30.7199 14.0102 32.1087 15.5332 33.9406 15.5332C35.2695 15.5332 35.8636 15.1423 36.5332 14.53L36.528 14.5261ZM35.1288 13.532C34.02 13.532 33.2474 12.6474 33.4077 11.5634C33.5679 10.4794 34.605 9.59477 35.7137 9.59477C36.8225 9.59477 37.5951 10.4794 37.4348 11.5634C37.2746 12.6474 36.2388 13.532 35.1288 13.532ZM43.5322 7.79943H41.8385C41.4893 7.79943 41.3473 8.06 41.458 8.38051L43.5609 14.5378L41.4984 17.4679C41.3252 17.7129 41.4594 17.9357 41.703 17.9357H43.6065C43.7174 17.9485 43.8297 17.9291 43.9299 17.8799C44.0302 17.8307 44.1142 17.7538 44.1719 17.6582L50.6393 8.38181C50.8386 8.09648 50.7448 7.79683 50.4178 7.79683H48.616C48.3072 7.79683 48.1834 7.9193 48.0062 8.17596L45.3093 12.0845L44.1042 8.16684C44.0338 7.92972 43.8579 7.79943 43.5335 7.79943H43.5322Z" fill="#113984"/>
<path fill-rule="evenodd" clip-rule="evenodd" d="M57.3682 4.03764C59.0711 4.03764 60.6423 4.96137 60.4273 7.26352C60.1668 9.99952 58.7011 11.5134 56.3885 11.5199H54.3691C54.0785 11.5199 53.9378 11.7571 53.8622 12.243L53.4714 14.7276C53.4128 15.1028 53.2199 15.2878 52.9359 15.2878H51.0559C50.7562 15.2878 50.652 15.0963 50.7184 14.6677L52.2728 4.70731C52.3496 4.21743 52.5333 4.03503 52.8682 4.03503H57.3682V4.03764ZM54.3065 9.36893H55.8374C56.795 9.33245 57.4308 8.6693 57.4946 7.47328C57.5337 6.73456 57.0347 6.20559 56.2413 6.2095L54.8003 6.21602L54.3065 9.36893ZM65.5385 14.5256C65.7104 14.3693 65.885 14.2885 65.8603 14.4813L65.799 14.9426C65.7678 15.1836 65.8629 15.3113 66.087 15.3113H67.7572C68.0386 15.3113 68.1754 15.1979 68.2445 14.7628L69.2738 8.30319C69.3259 7.97878 69.2464 7.81984 69.0002 7.81984H67.1657C67.0003 7.81984 66.9195 7.91234 66.8765 8.16509L66.8087 8.56246C66.7736 8.76962 66.6785 8.8061 66.5899 8.59764C66.2785 7.86022 65.4837 7.5293 64.375 7.55536C61.7993 7.60877 60.0625 9.56436 59.8762 12.0711C59.7329 14.0097 61.1218 15.5327 62.9536 15.5327C64.2825 15.5327 64.8766 15.1419 65.5463 14.5295L65.5385 14.5256ZM64.1405 13.5316C63.0318 13.5316 62.2592 12.6469 62.4194 11.5629C62.5797 10.479 63.6167 9.59433 64.7255 9.59433C65.8342 9.59433 66.6068 10.479 66.4466 11.5629C66.2863 12.6469 65.2492 13.5316 64.1405 13.5316ZM71.8443 15.3217H69.9161C69.8825 15.3232 69.8491 15.3173 69.8181 15.3043C69.7871 15.2914 69.7594 15.2718 69.7368 15.2469C69.7143 15.222 69.6975 15.1924 69.6878 15.1603C69.678 15.1282 69.6754 15.0943 69.6802 15.0611L71.374 4.33079C71.3901 4.25755 71.4306 4.19195 71.4888 4.14464C71.547 4.09733 71.6195 4.0711 71.6945 4.07021H73.6227C73.6562 4.06871 73.6897 4.07464 73.7207 4.08757C73.7517 4.10049 73.7794 4.1201 73.8019 4.14499C73.8245 4.16989 73.8412 4.19945 73.851 4.23156C73.8608 4.26368 73.8633 4.29756 73.8585 4.33079L72.1648 15.0611C72.1491 15.1348 72.1089 15.201 72.0507 15.2489C71.9924 15.2967 71.9196 15.3233 71.8443 15.3243V15.3217Z" fill="#009EE3"/>
<path fill-rule="evenodd" clip-rule="evenodd" d="M3.28819 0.0526123H8.34066C9.76338 0.0526123 11.4519 0.0982123 12.5802 1.0949C13.3345 1.76066 13.7306 2.81988 13.6394 3.96118C13.3293 7.81894 11.0219 9.98038 7.92635 9.98038H5.43529C5.01056 9.98038 4.73045 10.2618 4.61059 11.0227L3.91486 15.4524C3.86926 15.739 3.74549 15.9084 3.524 15.9292H0.406272C0.0610153 15.9292 -0.0614543 15.6687 0.0284427 15.0928L2.26935 0.894256C2.35925 0.323605 2.67324 0.0526123 3.28819 0.0526123Z" fill="#113984"/>
<path fill-rule="evenodd" clip-rule="evenodd" d="M4.68311 10.5729L5.56514 4.98758C5.64201 4.4977 5.9104 4.26318 6.44457 4.26318H11.4918C12.327 4.26318 13.0032 4.39347 13.5321 4.6345C13.0253 8.06883 10.8039 9.97621 7.89595 9.97621H5.4088C5.07527 9.97751 4.83033 10.1443 4.68311 10.5729Z" fill="#172C70"/>
</svg>
