<svg width="21" height="23" viewBox="0 0 21 23" fill="none" xmlns="http://www.w3.org/2000/svg">
<path d="M19.907 12.7624C19.8351 11.9355 19.152 11.3603 18.3251 11.3603H3.00976C2.18287 11.3603 1.53575 11.9715 1.42789 12.7624L0.67291 20.3122C0.636958 20.7436 0.780764 21.211 1.06838 21.5346C1.35599 21.8581 1.78741 22.0379 2.25478 22.0379H19.116C19.5475 22.0379 19.9789 21.8581 20.3024 21.5346C20.59 21.211 20.7339 20.7796 20.6979 20.3122L19.907 12.7624ZM19.3317 20.7077C19.2958 20.7436 19.2239 20.8155 19.0801 20.8155H2.25478C2.14692 20.8155 2.03907 20.7436 2.00312 20.7077C1.96716 20.6717 1.89526 20.5998 1.93121 20.456L2.68619 12.8703C2.68619 12.6905 2.83 12.5826 3.00976 12.5826H18.3611C18.5408 12.5826 18.6487 12.6905 18.6846 12.8703L19.4396 20.456C19.4037 20.5639 19.3677 20.6717 19.3317 20.7077Z" fill="#6172F3"/>
<path d="M10.6675 14.1653C9.26538 14.1653 8.15088 15.2798 8.15088 16.6819C8.15088 18.084 9.26538 19.1985 10.6675 19.1985C12.0696 19.1985 13.1841 18.084 13.1841 16.6819C13.1841 15.2798 12.0696 14.1653 10.6675 14.1653ZM10.6675 17.9402C9.98441 17.9402 9.40918 17.365 9.40918 16.6819C9.40918 15.9988 9.98441 15.4236 10.6675 15.4236C11.3506 15.4236 11.9258 15.9988 11.9258 16.6819C11.9258 17.365 11.3506 17.9402 10.6675 17.9402Z" fill="#6172F3"/>
<path d="M1.53595 6.54318C1.60785 8.12504 3.00996 8.77217 3.72899 8.77217H6.2456C6.28155 8.77217 6.28155 8.77217 6.28155 8.77217C7.3601 8.70027 8.43864 7.98124 8.43864 6.54318V5.68034C9.62504 5.68034 12.3574 5.68034 13.5438 5.68034V6.54318C13.5438 7.98124 14.6223 8.70027 15.7008 8.77217H15.7368H18.2175C18.9365 8.77217 20.3386 8.12504 20.4105 6.54318C20.4105 6.43532 20.4105 6.03985 20.4105 5.68034C20.4105 5.39273 20.4105 5.14107 20.4105 5.10511C20.4105 5.06916 20.4105 5.03321 20.4105 5.03321C20.3026 4.02657 19.9431 3.19968 19.332 2.55256L19.296 2.51661C18.3972 1.68972 17.3187 1.22235 16.4918 0.934739C14.083 0 11.0631 0 10.9193 0C8.79816 0.0359515 7.432 0.215709 5.38276 0.934739C4.59183 1.1864 3.51328 1.65377 2.6145 2.48065L2.57855 2.51661C1.96737 3.16373 1.60785 3.99062 1.5 4.99726C1.5 5.03321 1.5 5.06916 1.5 5.06916C1.5 5.14107 1.5 5.35678 1.5 5.64439C1.53595 5.96795 1.53595 6.39937 1.53595 6.54318ZM3.47733 3.37944C4.19636 2.73232 5.09515 2.33685 5.85013 2.04924C7.71961 1.36616 8.94196 1.22235 10.9912 1.1864C11.135 1.1864 13.9392 1.22235 16.0963 2.04924C16.8513 2.33685 17.7501 2.69636 18.4691 3.37944C18.8646 3.81086 19.1162 4.38608 19.1881 5.06916C19.1881 5.17702 19.1881 5.35678 19.1881 5.64439C19.1881 6.0039 19.1881 6.39937 19.1881 6.50722C19.1522 7.33411 18.3613 7.51387 18.2534 7.51387H15.7728C15.4132 7.47791 14.838 7.33411 14.838 6.54318V5.06916C14.838 4.78155 14.6583 4.56584 14.4066 4.45799C14.1909 4.38609 7.89937 4.38609 7.68366 4.45799C7.432 4.52989 7.25224 4.78155 7.25224 5.06916V6.54318C7.25224 7.33411 6.67702 7.47791 6.3175 7.51387H3.83685C3.72899 7.51387 2.93806 7.33411 2.90211 6.50722C2.90211 6.39937 2.90211 6.0039 2.90211 5.64439C2.90211 5.35678 2.90211 5.21297 2.90211 5.10511C2.83021 4.38609 3.08187 3.81086 3.47733 3.37944Z" fill="#6172F3"/>
</svg>
