<svg width="40" height="40" viewBox="0 0 40 40" fill="none" xmlns="http://www.w3.org/2000/svg">
<g clip-path="url(#clip0_80_3757)">
<path d="M39.2328 7.77818L39.2328 7.7782C39.6988 8.38757 40.2087 9.44211 40.0032 11.0109L39.9536 11.0044L40.0032 11.0109C39.785 12.6755 38.903 13.8342 38.0962 14.5676C38.5704 15.4628 38.9682 16.4319 39.2755 17.4582L39.2755 17.4582C40.4322 21.3228 40.2099 25.6814 38.6514 29.7314L38.6047 29.7135L38.6514 29.7314C38.5195 30.0741 38.1131 30.2368 37.7808 30.0797C37.4815 29.9385 37.3387 29.5801 37.4573 29.2719C40.6163 21.0632 37.4681 13.2344 32.76 10.6861L32.7838 10.6421L32.76 10.6861C31.7571 10.1432 30.5819 9.73516 29.267 9.47382C29.267 9.47382 29.267 9.47382 29.267 9.47382L29.2767 9.42478C28.9572 9.3613 28.7497 9.05094 28.8132 8.73172L39.2328 7.77818ZM39.2328 7.77818C39.174 7.70136 39.1123 7.62704 39.0478 7.55498C39.0086 6.35953 38.5481 5.22756 38.0875 4.3821C37.6243 3.53173 37.1589 2.9672 37.1142 2.91359L37.1141 2.9135C36.8877 2.64301 36.4848 2.60695 36.2137 2.83304L36.2137 2.83306C35.9429 3.05918 35.9065 3.46236 36.1319 3.73348L36.1319 3.73352C36.146 3.75044 37.1866 5.01837 37.6028 6.54131C37.3878 6.45448 37.1653 6.38704 36.9388 6.3417L36.9388 6.34169C35.5782 6.06951 34.4033 6.63648 34.1031 7.74329C33.8701 8.60242 34.0808 9.43742 34.6835 10.0311L34.6836 10.0311C35.3358 10.6731 36.3278 10.9234 37.2123 10.6688L37.2123 10.6688C37.837 10.4888 38.3373 10.0751 38.6532 9.49673C38.7693 9.93707 38.7925 10.4045 38.7346 10.8446L38.7346 10.8447C38.6053 11.832 38.1672 12.7005 37.4307 13.4355C36.3349 11.7554 34.9442 10.4137 33.3691 9.56086L33.3691 9.56086C32.252 8.95633 30.9554 8.50498 29.516 8.21912C29.1694 8.15027 28.8327 8.37535 28.7641 8.72197L39.2328 7.77818ZM36.6974 7.54703L36.6876 7.59606C37.1137 7.68153 37.4666 7.84926 37.7533 8.07341C37.7395 8.20446 37.7179 8.33532 37.6873 8.46475C37.5634 8.98679 37.2754 9.31936 36.8584 9.43929L36.8584 9.43929C36.4251 9.56407 35.8985 9.43214 35.5814 9.11969L35.5813 9.11968C35.3925 8.93377 35.1952 8.60378 35.3379 8.07832L35.3379 8.07832C35.411 7.80886 35.6229 7.66446 35.8841 7.59873C36.1463 7.53274 36.4505 7.54877 36.6876 7.59607L36.6974 7.54703ZM36.6974 7.54703C36.214 7.4506 35.4486 7.47928 35.2896 8.06522L37.8058 8.05118C37.5089 7.81345 37.1417 7.63614 36.6974 7.54703Z" fill="#667085" stroke="#667085" stroke-width="0.1"/>
<path d="M26.9916 9.17495C27.3439 9.20045 27.6501 8.9349 27.6753 8.58238C27.7004 8.23014 27.4353 7.92392 27.0827 7.89876C22.6188 7.57978 18.2695 8.58957 16.7393 8.9969C15.8664 6.95164 14.5784 5.95965 13.6113 5.48313C12.4482 4.9099 11.4768 4.93649 11.4316 4.93784L11.4314 4.93785C11.087 4.94977 10.8142 5.23252 10.8142 5.57711V10.371C8.78425 11.1452 7.50073 12.995 6.46347 14.4898L6.45916 14.4961L6.50024 14.5246L6.45916 14.4961C5.94541 15.2367 5.46591 15.9272 5.01838 16.3055C4.32694 16.89 3.19941 17.3416 2.23498 17.6483C1.27242 17.9544 0.480425 18.1137 0.465933 18.1165L0.465762 18.1166C0.166175 18.1758 -0.05 18.4387 -0.05 18.7442V24.8535C-0.05 25.1011 0.0926884 25.3263 0.316798 25.4319C1.15108 25.8256 2.24767 26.3694 3.57617 27.0486L3.59893 27.0041L3.57618 27.0486C3.88732 27.2077 4.27816 27.0811 4.43691 26.7705L4.39239 26.7478L4.43691 26.7705C4.59779 26.4557 4.47301 26.0703 4.15847 25.9098C3.00391 25.3195 2.02107 24.8293 1.2292 24.4494V19.2567C1.73682 19.1348 2.55562 18.9158 3.40815 18.5956C4.28168 18.2676 5.19479 17.8318 5.84435 17.2828L5.81207 17.2446L15.7992 9.96706L15.7521 9.98383C15.8667 10.3056 16.214 10.4808 16.541 10.3811L16.5411 10.3811C16.5918 10.3656 21.7959 8.80334 26.9916 9.17495ZM26.9916 9.17495L26.9952 9.12509L26.9916 9.17496C26.9916 9.17496 26.9916 9.17496 26.9916 9.17495ZM11.4331 4.98782C11.1157 4.99881 10.8642 5.25943 10.8642 5.57711V10.4056L11.4331 4.98782Z" fill="#667085" stroke="#667085" stroke-width="0.1"/>
<path d="M28.5005 30.5731L28.5005 30.5731L29.2216 35.2151C29.3024 35.7346 29.7422 36.1112 30.2678 36.1112H32.7617C33.075 36.1112 33.3708 35.9737 33.5731 35.7338C34.7448 34.3436 35.7357 32.8712 36.5182 31.3583C36.6804 31.0445 37.0664 30.9213 37.3803 31.0839C37.6941 31.2461 37.8169 31.6318 37.6544 31.9456C36.8283 33.5437 35.784 35.0955 34.551 36.5581C34.1054 37.0873 33.453 37.3904 32.762 37.3904H30.2681C29.1076 37.3904 28.1357 36.558 27.9576 35.4115L27.3229 31.3284C25.7551 31.3721 21.2214 31.4612 17.1215 31.1791L16.8158 35.2284C16.7241 36.441 15.7001 37.3904 14.4841 37.3904H12.0164C10.8612 37.3904 9.89028 36.5627 9.70756 35.4221L9.70756 35.4221L8.80572 29.7865C8.28014 29.5059 7.06872 28.8611 5.66093 28.1267L5.66091 28.1266C5.34772 27.9631 5.22658 27.5768 5.38978 27.2636L5.38979 27.2636C5.55332 26.9504 5.93965 26.8289 6.25285 26.9925C8.13934 27.9768 9.67428 28.8002 9.68974 28.8086M28.5005 30.5731L9.66599 28.8526M28.5005 30.5731C28.4505 30.2522 28.1659 30.0196 27.8437 30.0322L28.5005 30.5731ZM9.68974 28.8086L9.66599 28.8526M9.68974 28.8086C9.68973 28.8086 9.68971 28.8086 9.6897 28.8086L9.66599 28.8526M9.68974 28.8086C9.86541 28.9032 9.98724 29.074 10.0187 29.2713M9.66599 28.8526C9.82803 28.9399 9.94034 29.0973 9.96933 29.2792M10.0187 29.2713L9.96933 29.2792M10.0187 29.2713L10.0187 29.2713M10.0187 29.2713L10.0187 29.2713M9.96933 29.2792L10.0187 29.2713M9.96933 29.2792L10.0187 29.2713" fill="#667085" stroke="#667085" stroke-width="0.1"/>
<path d="M8.325 18.4677C8.325 19.3181 8.86363 20.0042 9.5719 20.0042C10.2802 20.0042 10.8185 19.3181 10.8185 18.4677C10.8185 17.6173 10.2802 16.9312 9.5719 16.9312C8.86363 16.9312 8.325 17.6173 8.325 18.4677Z" fill="#667085" stroke="#667085" stroke-width="0.1"/>
</g>
<defs>
<clipPath id="clip0_80_3757">
<rect width="40" height="40" fill="white"/>
</clipPath>
</defs>
</svg>
