<svg width="14" height="14" viewBox="0 0 14 14" fill="none" xmlns="http://www.w3.org/2000/svg">
<path d="M13.4585 12.9323L9.96891 9.44275C10.7241 8.53129 11.1408 7.35942 11.1408 6.08337C11.1408 3.11462 8.69287 0.666707 5.72412 0.666707C2.72933 0.666707 0.333496 3.11462 0.333496 6.08337C0.333496 9.07817 2.75537 11.5 5.72412 11.5C6.97412 11.5 8.146 11.0834 9.0835 10.3282L12.5731 13.8177C12.7033 13.948 12.8595 14 13.0418 14C13.1981 14 13.3543 13.948 13.4585 13.8177C13.7189 13.5834 13.7189 13.1927 13.4585 12.9323ZM1.5835 6.08337C1.5835 3.79171 3.43245 1.91671 5.75016 1.91671C8.04183 1.91671 9.91683 3.79171 9.91683 6.08337C9.91683 8.40108 8.04183 10.25 5.75016 10.25C3.43245 10.25 1.5835 8.40108 1.5835 6.08337Z" fill="#FCFCFD"/>
</svg>
