<svg width="40" height="40" viewBox="0 0 40 40" fill="none" xmlns="http://www.w3.org/2000/svg">
<g clip-path="url(#clip0_80_1401)">
<path d="M4.36389 19.3333C3.66114 19.3333 3.12676 20.0136 3.12676 20.857C3.12676 21.7004 3.66113 22.381 4.36389 22.381C5.06697 22.381 5.60103 21.7004 5.60103 20.857C5.60103 20.0136 5.06696 19.3333 4.36389 19.3333Z" fill="#667085" stroke="#667085" stroke-width="0.1"/>
<mask id="path-2-outside-1_80_1401" maskUnits="userSpaceOnUse" x="-1" y="5.48438" width="42" height="29" fill="black">
<rect fill="white" x="-1" y="5.48438" width="42" height="29"/>
<path d="M39.9836 29.5685C39.643 25.9738 38.9442 22.4857 38.9372 22.4509C38.9372 22.4506 38.9372 22.4506 38.9372 22.4506C38.6079 20.809 37.9542 18.32 36.71 15.7849C36.5675 15.4941 36.2165 15.3741 35.9257 15.5167C35.6352 15.6595 35.5152 16.0107 35.6577 16.301C36.2086 17.4231 36.6383 18.537 36.9724 19.5657L35.4478 20.491L31.6956 18.2849V13.8208L33.3619 12.6694C33.7757 13.1781 34.1697 13.7253 34.5435 14.3112C34.7175 14.584 35.0797 14.6643 35.3526 14.4901C35.6254 14.3158 35.7057 13.9536 35.5314 13.6807C33.9066 11.1343 31.8788 9.23309 29.5045 8.03009C26.5855 6.55121 23.1397 6.13098 19.2628 6.78039C14.9293 7.50641 11.6605 9.89288 9.54751 13.8736C9.39584 14.1595 9.50479 14.5145 9.79043 14.6661C10.0727 14.816 10.4331 14.7052 10.583 14.4232C10.8915 13.8422 11.2272 13.2983 11.5888 12.7917L12.8327 13.7936V18.2382L8.69516 20.0662C8.87918 19.0509 9.17581 17.8009 9.65463 16.5067C9.76693 16.203 9.6119 15.8661 9.30856 15.7538C9.00491 15.6415 8.66769 15.7965 8.55538 16.0999C8.26547 16.8838 8.03933 17.6514 7.86172 18.3658C5.50057 17.0367 3.62557 16.5732 2.28128 16.9888C1.45547 17.2443 0.839014 17.8119 0.448694 18.6768C-0.481787 20.7385 0.0409794 22.8775 1.96054 24.8621C3.40585 26.3562 5.40841 27.5372 6.95962 28.3136C6.8992 28.7524 6.8522 29.2081 6.82504 29.6759C6.764 30.7202 7.12625 31.7148 7.84494 32.4768C8.56515 33.2407 9.54019 33.6612 10.5897 33.6612C12.3683 33.6612 13.8816 32.4475 14.2701 30.7098C14.492 29.7162 14.8362 28.7402 15.2946 27.8021C17.4311 28.2773 19.586 28.4778 21.3834 28.5486C21.9401 28.5706 22.4833 28.5809 23.0158 28.5809C26.6715 28.5809 29.7566 28.0884 32.2129 27.4564C32.3176 28.2492 32.4217 29.1898 32.523 30.2643C32.7061 32.2009 34.3098 33.6612 36.2531 33.6612C37.3066 33.6612 38.3177 33.2141 39.0269 32.4347C39.7337 31.6577 40.0825 30.6128 39.9836 29.5685ZM37.7882 22.6819C37.9435 23.457 37.5532 24.2355 36.8388 24.5746C36.5989 24.6884 36.331 24.8096 36.0386 24.935V21.5036L37.3209 20.7254C37.5236 21.4572 37.6756 22.1213 37.7882 22.6819ZM27.2727 27.1722V21.5121L31.1067 19.2987L34.8664 21.5091V25.4031C33.0116 26.0928 30.4603 26.8115 27.2727 27.1722ZM22.8501 13.8519L26.6868 11.6367L30.5235 13.8519V18.2819L26.6868 20.4971L22.8501 18.2819V13.8519ZM32.5831 11.7828L31.0813 12.8204L27.2727 10.6216V8.35876C29.2796 9.02679 31.0523 10.1694 32.5831 11.7828ZM19.4566 7.9367C21.8797 7.53082 24.0965 7.56286 26.1009 8.02887V10.6216L22.2642 12.8369L18.4275 10.6216V8.14941C18.7629 8.06671 19.1056 7.9953 19.4566 7.9367ZM17.8413 20.4971L14.0046 18.2819V13.8519L17.8413 11.6367L21.6779 13.8519V18.2819L17.8413 20.4971ZM17.2553 8.49762V10.6216L13.4736 12.8052L12.313 11.8698C13.6601 10.3064 15.312 9.17877 17.2553 8.49762ZM2.80313 24.0472C1.20095 22.3907 0.780115 20.7919 1.51711 19.1592C1.76644 18.6063 2.1296 18.2626 2.62734 18.1088C3.69363 17.7789 5.40719 18.2828 7.59683 19.5654C7.49551 20.0876 7.42135 20.5603 7.36825 20.9595C7.22329 22.0526 7.47537 23.1488 8.03781 24.0558C7.76986 24.7745 7.42471 25.8362 7.16622 27.1039C5.75418 26.3739 4.04153 25.3275 2.80313 24.0472ZM13.126 30.4544C12.8584 31.6525 11.8156 32.4893 10.5897 32.4893C9.86611 32.4893 9.19412 32.1994 8.6976 31.6727C8.2026 31.1481 7.95297 30.4633 7.99508 29.7446C8.10372 27.8857 8.53707 26.2292 8.91519 25.0928C9.0635 25.2231 9.22036 25.3445 9.38668 25.4556C10.7829 26.3879 12.4308 27.0493 14.1346 27.5156C13.69 28.4662 13.35 29.4516 13.126 30.4544ZM21.4295 27.3776C20.3452 27.3349 19.3479 27.254 18.4275 27.1445V25.3983C18.4275 25.0745 18.1651 24.812 17.8413 24.812C17.5178 24.812 17.2553 25.0745 17.2553 25.3983V26.9836C13.6146 26.4117 11.3667 25.368 10.0373 24.4806C9.03512 23.8113 8.45468 22.6404 8.5032 21.4325L13.3833 19.2764L17.2553 21.5121V23.0539C17.2553 23.3777 17.5178 23.6401 17.8413 23.6401C18.1651 23.6401 18.4275 23.3777 18.4275 23.0539V21.5121L22.2642 19.2969L26.1009 21.5121V27.2861C25.1261 27.3648 24.0986 27.4091 23.0186 27.4091C22.501 27.4094 21.9709 27.399 21.4295 27.3776ZM38.1596 31.6461C37.6722 32.182 36.9773 32.4893 36.2531 32.4893C34.9177 32.4893 33.8157 31.4853 33.69 30.1541C33.5801 28.9923 33.4672 27.9822 33.3534 27.1408C35.0578 26.6351 36.3972 26.0818 37.3414 25.6335C37.6725 25.4764 37.9618 25.2628 38.2023 25.0089C38.412 26.2955 38.6552 27.9755 38.8166 29.679C38.8856 30.4062 38.6521 31.1047 38.1596 31.6461Z"/>
</mask>
<path d="M39.9836 29.5685C39.643 25.9738 38.9442 22.4857 38.9372 22.4509C38.9372 22.4506 38.9372 22.4506 38.9372 22.4506C38.6079 20.809 37.9542 18.32 36.71 15.7849C36.5675 15.4941 36.2165 15.3741 35.9257 15.5167C35.6352 15.6595 35.5152 16.0107 35.6577 16.301C36.2086 17.4231 36.6383 18.537 36.9724 19.5657L35.4478 20.491L31.6956 18.2849V13.8208L33.3619 12.6694C33.7757 13.1781 34.1697 13.7253 34.5435 14.3112C34.7175 14.584 35.0797 14.6643 35.3526 14.4901C35.6254 14.3158 35.7057 13.9536 35.5314 13.6807C33.9066 11.1343 31.8788 9.23309 29.5045 8.03009C26.5855 6.55121 23.1397 6.13098 19.2628 6.78039C14.9293 7.50641 11.6605 9.89288 9.54751 13.8736C9.39584 14.1595 9.50479 14.5145 9.79043 14.6661C10.0727 14.816 10.4331 14.7052 10.583 14.4232C10.8915 13.8422 11.2272 13.2983 11.5888 12.7917L12.8327 13.7936V18.2382L8.69516 20.0662C8.87918 19.0509 9.17581 17.8009 9.65463 16.5067C9.76693 16.203 9.6119 15.8661 9.30856 15.7538C9.00491 15.6415 8.66769 15.7965 8.55538 16.0999C8.26547 16.8838 8.03933 17.6514 7.86172 18.3658C5.50057 17.0367 3.62557 16.5732 2.28128 16.9888C1.45547 17.2443 0.839014 17.8119 0.448694 18.6768C-0.481787 20.7385 0.0409794 22.8775 1.96054 24.8621C3.40585 26.3562 5.40841 27.5372 6.95962 28.3136C6.8992 28.7524 6.8522 29.2081 6.82504 29.6759C6.764 30.7202 7.12625 31.7148 7.84494 32.4768C8.56515 33.2407 9.54019 33.6612 10.5897 33.6612C12.3683 33.6612 13.8816 32.4475 14.2701 30.7098C14.492 29.7162 14.8362 28.7402 15.2946 27.8021C17.4311 28.2773 19.586 28.4778 21.3834 28.5486C21.9401 28.5706 22.4833 28.5809 23.0158 28.5809C26.6715 28.5809 29.7566 28.0884 32.2129 27.4564C32.3176 28.2492 32.4217 29.1898 32.523 30.2643C32.7061 32.2009 34.3098 33.6612 36.2531 33.6612C37.3066 33.6612 38.3177 33.2141 39.0269 32.4347C39.7337 31.6577 40.0825 30.6128 39.9836 29.5685ZM37.7882 22.6819C37.9435 23.457 37.5532 24.2355 36.8388 24.5746C36.5989 24.6884 36.331 24.8096 36.0386 24.935V21.5036L37.3209 20.7254C37.5236 21.4572 37.6756 22.1213 37.7882 22.6819ZM27.2727 27.1722V21.5121L31.1067 19.2987L34.8664 21.5091V25.4031C33.0116 26.0928 30.4603 26.8115 27.2727 27.1722ZM22.8501 13.8519L26.6868 11.6367L30.5235 13.8519V18.2819L26.6868 20.4971L22.8501 18.2819V13.8519ZM32.5831 11.7828L31.0813 12.8204L27.2727 10.6216V8.35876C29.2796 9.02679 31.0523 10.1694 32.5831 11.7828ZM19.4566 7.9367C21.8797 7.53082 24.0965 7.56286 26.1009 8.02887V10.6216L22.2642 12.8369L18.4275 10.6216V8.14941C18.7629 8.06671 19.1056 7.9953 19.4566 7.9367ZM17.8413 20.4971L14.0046 18.2819V13.8519L17.8413 11.6367L21.6779 13.8519V18.2819L17.8413 20.4971ZM17.2553 8.49762V10.6216L13.4736 12.8052L12.313 11.8698C13.6601 10.3064 15.312 9.17877 17.2553 8.49762ZM2.80313 24.0472C1.20095 22.3907 0.780115 20.7919 1.51711 19.1592C1.76644 18.6063 2.1296 18.2626 2.62734 18.1088C3.69363 17.7789 5.40719 18.2828 7.59683 19.5654C7.49551 20.0876 7.42135 20.5603 7.36825 20.9595C7.22329 22.0526 7.47537 23.1488 8.03781 24.0558C7.76986 24.7745 7.42471 25.8362 7.16622 27.1039C5.75418 26.3739 4.04153 25.3275 2.80313 24.0472ZM13.126 30.4544C12.8584 31.6525 11.8156 32.4893 10.5897 32.4893C9.86611 32.4893 9.19412 32.1994 8.6976 31.6727C8.2026 31.1481 7.95297 30.4633 7.99508 29.7446C8.10372 27.8857 8.53707 26.2292 8.91519 25.0928C9.0635 25.2231 9.22036 25.3445 9.38668 25.4556C10.7829 26.3879 12.4308 27.0493 14.1346 27.5156C13.69 28.4662 13.35 29.4516 13.126 30.4544ZM21.4295 27.3776C20.3452 27.3349 19.3479 27.254 18.4275 27.1445V25.3983C18.4275 25.0745 18.1651 24.812 17.8413 24.812C17.5178 24.812 17.2553 25.0745 17.2553 25.3983V26.9836C13.6146 26.4117 11.3667 25.368 10.0373 24.4806C9.03512 23.8113 8.45468 22.6404 8.5032 21.4325L13.3833 19.2764L17.2553 21.5121V23.0539C17.2553 23.3777 17.5178 23.6401 17.8413 23.6401C18.1651 23.6401 18.4275 23.3777 18.4275 23.0539V21.5121L22.2642 19.2969L26.1009 21.5121V27.2861C25.1261 27.3648 24.0986 27.4091 23.0186 27.4091C22.501 27.4094 21.9709 27.399 21.4295 27.3776ZM38.1596 31.6461C37.6722 32.182 36.9773 32.4893 36.2531 32.4893C34.9177 32.4893 33.8157 31.4853 33.69 30.1541C33.5801 28.9923 33.4672 27.9822 33.3534 27.1408C35.0578 26.6351 36.3972 26.0818 37.3414 25.6335C37.6725 25.4764 37.9618 25.2628 38.2023 25.0089C38.412 26.2955 38.6552 27.9755 38.8166 29.679C38.8856 30.4062 38.6521 31.1047 38.1596 31.6461Z" fill="#667085"/>
<path d="M39.9836 29.5685C39.643 25.9738 38.9442 22.4857 38.9372 22.4509C38.9372 22.4506 38.9372 22.4506 38.9372 22.4506C38.6079 20.809 37.9542 18.32 36.71 15.7849C36.5675 15.4941 36.2165 15.3741 35.9257 15.5167C35.6352 15.6595 35.5152 16.0107 35.6577 16.301C36.2086 17.4231 36.6383 18.537 36.9724 19.5657L35.4478 20.491L31.6956 18.2849V13.8208L33.3619 12.6694C33.7757 13.1781 34.1697 13.7253 34.5435 14.3112C34.7175 14.584 35.0797 14.6643 35.3526 14.4901C35.6254 14.3158 35.7057 13.9536 35.5314 13.6807C33.9066 11.1343 31.8788 9.23309 29.5045 8.03009C26.5855 6.55121 23.1397 6.13098 19.2628 6.78039C14.9293 7.50641 11.6605 9.89288 9.54751 13.8736C9.39584 14.1595 9.50479 14.5145 9.79043 14.6661C10.0727 14.816 10.4331 14.7052 10.583 14.4232C10.8915 13.8422 11.2272 13.2983 11.5888 12.7917L12.8327 13.7936V18.2382L8.69516 20.0662C8.87918 19.0509 9.17581 17.8009 9.65463 16.5067C9.76693 16.203 9.6119 15.8661 9.30856 15.7538C9.00491 15.6415 8.66769 15.7965 8.55538 16.0999C8.26547 16.8838 8.03933 17.6514 7.86172 18.3658C5.50057 17.0367 3.62557 16.5732 2.28128 16.9888C1.45547 17.2443 0.839014 17.8119 0.448694 18.6768C-0.481787 20.7385 0.0409794 22.8775 1.96054 24.8621C3.40585 26.3562 5.40841 27.5372 6.95962 28.3136C6.8992 28.7524 6.8522 29.2081 6.82504 29.6759C6.764 30.7202 7.12625 31.7148 7.84494 32.4768C8.56515 33.2407 9.54019 33.6612 10.5897 33.6612C12.3683 33.6612 13.8816 32.4475 14.2701 30.7098C14.492 29.7162 14.8362 28.7402 15.2946 27.8021C17.4311 28.2773 19.586 28.4778 21.3834 28.5486C21.9401 28.5706 22.4833 28.5809 23.0158 28.5809C26.6715 28.5809 29.7566 28.0884 32.2129 27.4564C32.3176 28.2492 32.4217 29.1898 32.523 30.2643C32.7061 32.2009 34.3098 33.6612 36.2531 33.6612C37.3066 33.6612 38.3177 33.2141 39.0269 32.4347C39.7337 31.6577 40.0825 30.6128 39.9836 29.5685ZM37.7882 22.6819C37.9435 23.457 37.5532 24.2355 36.8388 24.5746C36.5989 24.6884 36.331 24.8096 36.0386 24.935V21.5036L37.3209 20.7254C37.5236 21.4572 37.6756 22.1213 37.7882 22.6819ZM27.2727 27.1722V21.5121L31.1067 19.2987L34.8664 21.5091V25.4031C33.0116 26.0928 30.4603 26.8115 27.2727 27.1722ZM22.8501 13.8519L26.6868 11.6367L30.5235 13.8519V18.2819L26.6868 20.4971L22.8501 18.2819V13.8519ZM32.5831 11.7828L31.0813 12.8204L27.2727 10.6216V8.35876C29.2796 9.02679 31.0523 10.1694 32.5831 11.7828ZM19.4566 7.9367C21.8797 7.53082 24.0965 7.56286 26.1009 8.02887V10.6216L22.2642 12.8369L18.4275 10.6216V8.14941C18.7629 8.06671 19.1056 7.9953 19.4566 7.9367ZM17.8413 20.4971L14.0046 18.2819V13.8519L17.8413 11.6367L21.6779 13.8519V18.2819L17.8413 20.4971ZM17.2553 8.49762V10.6216L13.4736 12.8052L12.313 11.8698C13.6601 10.3064 15.312 9.17877 17.2553 8.49762ZM2.80313 24.0472C1.20095 22.3907 0.780115 20.7919 1.51711 19.1592C1.76644 18.6063 2.1296 18.2626 2.62734 18.1088C3.69363 17.7789 5.40719 18.2828 7.59683 19.5654C7.49551 20.0876 7.42135 20.5603 7.36825 20.9595C7.22329 22.0526 7.47537 23.1488 8.03781 24.0558C7.76986 24.7745 7.42471 25.8362 7.16622 27.1039C5.75418 26.3739 4.04153 25.3275 2.80313 24.0472ZM13.126 30.4544C12.8584 31.6525 11.8156 32.4893 10.5897 32.4893C9.86611 32.4893 9.19412 32.1994 8.6976 31.6727C8.2026 31.1481 7.95297 30.4633 7.99508 29.7446C8.10372 27.8857 8.53707 26.2292 8.91519 25.0928C9.0635 25.2231 9.22036 25.3445 9.38668 25.4556C10.7829 26.3879 12.4308 27.0493 14.1346 27.5156C13.69 28.4662 13.35 29.4516 13.126 30.4544ZM21.4295 27.3776C20.3452 27.3349 19.3479 27.254 18.4275 27.1445V25.3983C18.4275 25.0745 18.1651 24.812 17.8413 24.812C17.5178 24.812 17.2553 25.0745 17.2553 25.3983V26.9836C13.6146 26.4117 11.3667 25.368 10.0373 24.4806C9.03512 23.8113 8.45468 22.6404 8.5032 21.4325L13.3833 19.2764L17.2553 21.5121V23.0539C17.2553 23.3777 17.5178 23.6401 17.8413 23.6401C18.1651 23.6401 18.4275 23.3777 18.4275 23.0539V21.5121L22.2642 19.2969L26.1009 21.5121V27.2861C25.1261 27.3648 24.0986 27.4091 23.0186 27.4091C22.501 27.4094 21.9709 27.399 21.4295 27.3776ZM38.1596 31.6461C37.6722 32.182 36.9773 32.4893 36.2531 32.4893C34.9177 32.4893 33.8157 31.4853 33.69 30.1541C33.5801 28.9923 33.4672 27.9822 33.3534 27.1408C35.0578 26.6351 36.3972 26.0818 37.3414 25.6335C37.6725 25.4764 37.9618 25.2628 38.2023 25.0089C38.412 26.2955 38.6552 27.9755 38.8166 29.679C38.8856 30.4062 38.6521 31.1047 38.1596 31.6461Z" stroke="#667085" stroke-width="0.2" mask="url(#path-2-outside-1_80_1401)"/>
</g>
<defs>
<clipPath id="clip0_80_1401">
<rect width="40" height="40" fill="white"/>
</clipPath>
</defs>
</svg>
