<svg width="53" height="17" viewBox="0 0 53 17" fill="none" xmlns="http://www.w3.org/2000/svg">
<path fill-rule="evenodd" clip-rule="evenodd" d="M37.6246 11.3143C37.6351 8.66074 35.4414 7.51505 33.7383 6.62484C32.6604 6.0619 31.7793 5.60147 31.7793 4.92705C31.7793 4.35221 32.3372 3.74358 33.5246 3.58642C34.9361 3.44716 36.3603 3.69379 37.6414 4.30053L38.3751 0.819463C37.1256 0.35201 35.8014 0.110326 34.4667 0.105347C30.3488 0.105347 27.4867 2.29842 27.4867 5.43137C27.4867 7.74674 29.5635 9.03474 31.134 9.80053C32.7045 10.5664 33.3151 11.1055 33.2972 11.8017C33.2972 12.8808 32.0067 13.3681 30.8025 13.386C29.3172 13.4049 27.8519 13.0459 26.5446 12.3417L25.794 15.8227C27.273 16.3986 28.8488 16.6881 30.4361 16.6752C34.8151 16.6752 37.6951 14.5168 37.7119 11.1751L37.6246 11.3143ZM26.3004 0.384832L22.8109 16.4842H18.6235L22.113 0.384832H26.3004ZM43.854 10.8269L46.0519 4.7879L47.3267 10.8269H43.854ZM52.3867 16.5368H48.513L48.0067 14.1349H42.7551L41.8993 16.5368H37.5025L43.7667 1.6201C44.0551 0.909968 44.7425 0.443505 45.5119 0.436547H49.0014L52.3867 16.5368ZM13.6498 16.4315L20.4204 0.332115H15.8835L11.5393 11.2795L9.79404 1.96821C9.6393 1.02136 8.81826 0.328136 7.8572 0.332115H0.756148L0.650879 0.801557C2.07509 1.08004 3.45929 1.53557 4.76876 2.15916C5.32665 2.42074 5.70456 2.95684 5.7635 3.56947L9.09615 16.4315H13.6498Z" fill="#344054"/>
</svg>
