<svg width="31" height="24" viewBox="0 0 31 24" fill="none" xmlns="http://www.w3.org/2000/svg">
<path d="M27.1999 6.75003H26.6999V3.95003C26.6999 2.75003 26.1499 1.70003 25.1999 1.00003C24.2499 0.30003 23.0499 0.15003 21.9499 0.55003L4.0499 6.75003C2.1499 6.85003 0.649902 8.40003 0.649902 10.35V20.05C0.649902 22.05 2.2499 23.65 4.2499 23.65H27.1999C29.1999 23.65 30.7999 22.05 30.7999 20.05V10.35C30.7999 8.35003 29.1499 6.75003 27.1999 6.75003ZM22.4999 2.20003C23.0499 2.00003 23.6999 2.10003 24.1999 2.45003C24.6999 2.80003 24.9999 3.35003 24.9999 3.95003V6.75003H9.3999L22.4999 2.20003ZM27.1999 21.9H4.2499C3.2499 21.9 2.3999 21.05 2.3999 20.05V10.35C2.3999 9.35003 3.2499 8.50003 4.2499 8.50003H27.1999C28.1999 8.50003 29.0499 9.35003 29.0499 10.35V11.7H23.1999C21.2499 11.7 19.6499 13.3 19.6499 15.25C19.6499 17.2 21.2499 18.8 23.1999 18.8H29.0499V20C29.0499 21.05 28.1999 21.9 27.1999 21.9ZM29.0499 13.45V17.1H23.1999C22.1999 17.1 21.3999 16.3 21.3999 15.3C21.3999 14.3 22.1999 13.5 23.1999 13.5H29.0499V13.45Z" fill="#6172F3"/>
</svg>
