<svg width="48" height="48" viewBox="0 0 48 48" fill="none" xmlns="http://www.w3.org/2000/svg">
<g clip-path="url(#clip0_87_6650)">
<path d="M33 27.75C33.4142 27.75 33.75 27.4142 33.75 27C33.75 26.5858 33.4142 26.25 33 26.25C32.5858 26.25 32.25 26.5858 32.25 27C32.25 27.4142 32.5858 27.75 33 27.75Z" fill="#667085"/>
<path d="M24 17.25C24.4142 17.25 24.75 16.9142 24.75 16.5C24.75 16.0858 24.4142 15.75 24 15.75C23.5858 15.75 23.25 16.0858 23.25 16.5C23.25 16.9142 23.5858 17.25 24 17.25Z" fill="#667085"/>
<path d="M9 11.25C9.41421 11.25 9.75 10.9142 9.75 10.5C9.75 10.0858 9.41421 9.75 9 9.75C8.58579 9.75 8.25 10.0858 8.25 10.5C8.25 10.9142 8.58579 11.25 9 11.25Z" fill="#667085"/>
<path d="M19.5 32.25C19.9142 32.25 20.25 31.9142 20.25 31.5C20.25 31.0858 19.9142 30.75 19.5 30.75C19.0858 30.75 18.75 31.0858 18.75 31.5C18.75 31.9142 19.0858 32.25 19.5 32.25Z" fill="#667085"/>
<path d="M9 29.25C9.41421 29.25 9.75 28.9142 9.75 28.5C9.75 28.0858 9.41421 27.75 9 27.75C8.58579 27.75 8.25 28.0858 8.25 28.5C8.25 28.9142 8.58579 29.25 9 29.25Z" fill="#667085"/>
<path d="M8.25 33C8.25 32.5858 8.58579 32.25 9 32.25V32.25C9.41421 32.25 9.75 32.5858 9.75 33V34.5C9.75 34.9142 9.41421 35.25 9 35.25V35.25C8.58579 35.25 8.25 34.9142 8.25 34.5V33Z" fill="#667085"/>
<mask id="path-7-inside-1_87_6650" fill="white">
<path d="M28.6313 14.25V14.25C28.5588 14.25 28.5001 14.3088 28.5001 14.3812V15.6188C28.5001 15.6912 28.5588 15.75 28.6313 15.75V15.75C29.0716 15.75 29.4923 15.6607 29.8838 15.5085C31.1018 17.508 33.3046 18.75 35.6468 18.75H46.5001C46.9143 18.75 47.2501 18.4142 47.2501 18V18C47.2501 17.5858 46.9143 17.25 46.5001 17.25H35.6468C33.8138 17.25 32.0881 16.2735 31.1453 14.7015V14.7015C31.1373 14.6882 31.1393 14.6713 31.1499 14.66C31.5466 14.2395 31.8436 13.719 31.9913 13.1265L32.0456 12.9096C32.2565 12.0667 31.619 11.25 30.7501 11.25V11.25V10.431C30.7501 8.856 30.2881 7.3305 29.4143 6.01875C29.0933 5.53725 28.5556 5.25 27.9773 5.25C27.0248 5.25 26.2501 6.02475 26.2501 6.97725C26.2501 8.12025 25.8728 9.25425 25.1866 10.1685L24.4138 11.1984C24.3894 11.2309 24.3512 11.25 24.3106 11.25V11.25V11.25C23.7854 11.25 23.2653 11.0085 23.0432 10.5326L21.5431 7.3185C19.6808 3.3285 15.6323 0.75 11.2291 0.75C8.65507 0.75 6.12982 1.63575 4.11982 3.2445V3.2445C3.34673 3.86254 3.14987 4.95707 3.65915 5.80577L3.9731 6.32895C4.56731 7.31916 4.41148 8.55713 3.87761 9.58113C3.82161 9.68855 3.76805 9.79759 3.71707 9.90825L1.446 14.8284C0.950081 15.9028 1.01762 17.153 1.62641 18.1677V18.1677C2.6558 19.8834 4.89237 20.4211 6.58914 19.3607L9.78307 17.3647C9.90232 17.2897 10.0396 17.2507 10.1806 17.2507V17.2507C10.4073 17.2507 10.5978 17.4212 10.6228 17.6466L11.0537 21.5226C11.0781 21.7419 10.9432 21.9436 10.7423 22.0346V22.0346C10.5892 22.104 10.4114 22.1042 10.2593 22.0325C9.86644 21.8476 9.43762 21.75 9.00007 21.75C7.34557 21.75 6.00007 23.0955 6.00007 24.75C6.00007 24.9813 6.02771 25.2072 6.08012 25.4254C6.21325 25.9798 6.17365 26.5881 5.88692 27.0809V27.0809C5.64586 27.4952 5.24612 27.8073 4.7937 27.9656C3.66791 28.3596 2.78026 29.2905 2.47732 30.501V30.501C2.25487 31.3893 2.92664 32.25 3.84233 32.25H5.25007V36.75H0.75007V47.25H47.2501V36.75H38.2501V35.427C38.2501 34.6628 38.1353 33.9113 37.9178 33.1838C38.8668 32.3934 39.5132 31.2699 39.6967 29.9975C39.7558 29.5876 39.4143 29.25 39.0001 29.25V29.25C38.5859 29.25 38.2581 29.5894 38.1745 29.9951C37.8741 31.452 36.7064 32.5941 35.1796 32.829L29.5231 33.699C28.3771 32.4247 27.7501 30.795 27.7501 29.0677V29.0677C27.7501 29.0039 27.7862 28.9455 27.8433 28.9169L29.6521 28.0125C30.2933 27.6922 30.7471 27.078 30.8656 26.37L31.0718 25.1302C31.2533 24.0405 32.1871 23.25 33.2918 23.25V23.25C33.5449 23.25 33.7501 23.4552 33.7501 23.7083V24.2962C33.7501 25.3012 34.2496 26.2342 35.0858 26.7922V26.7922C36.0936 27.464 37.4065 27.464 38.4143 26.7922V26.7922C39.2506 26.2342 39.7501 25.3005 39.7501 24.2962V24.2962C39.7501 24.0984 39.975 23.9975 40.1001 24.1508C40.2732 24.3629 40.4108 24.6049 40.5001 24.8722L40.6051 25.1865C41.1158 26.7195 42.5461 27.75 44.1623 27.75H46.5001C46.9143 27.75 47.2501 27.4142 47.2501 27V27C47.2501 26.5858 46.9143 26.25 46.5001 26.25H44.1623C43.1926 26.25 42.3346 25.632 42.0278 24.7118L41.9228 24.3975C41.5321 23.2267 40.5976 22.3185 39.4366 21.9427C38.9491 20.9445 37.9336 20.25 36.7501 20.25C35.9585 20.25 35.2431 20.5614 34.7096 21.0659C34.3154 21.4386 33.8335 21.75 33.2911 21.75V21.75C31.4498 21.75 29.8943 23.0678 29.5921 24.8835L29.3858 26.1225C29.3461 26.3588 29.1953 26.5635 28.9808 26.67L28.2676 27.027C27.9338 26.4548 27.7501 25.7985 27.7501 25.1138C27.7501 24.096 27.4591 23.124 26.9221 22.287C28.0943 21.7765 28.934 20.7314 29.1776 19.4954C29.2576 19.089 28.9143 18.75 28.5001 18.75V18.75C28.0859 18.75 27.7616 19.094 27.633 19.4877C27.4041 20.1883 26.8556 20.7576 26.1278 21L24.6518 21.492C23.9243 21.7343 23.2973 22.1865 22.8383 22.7992L22.0508 23.8493C21.6278 24.4133 20.9543 24.75 20.2501 24.75C19.9036 24.75 19.5796 24.6653 19.2863 24.5243L21.0001 22.8105C21.2929 22.5177 21.2929 22.0428 21.0001 21.75V21.75C20.7072 21.4572 20.2324 21.4572 19.9396 21.75L18.2258 23.4637C18.0848 23.1705 18.0001 22.8465 18.0001 22.5V21C18.0001 20.7652 18.1118 20.541 18.3001 20.4L19.4266 19.5555C20.3978 18.8273 21.0413 17.718 21.1921 16.5135L21.3338 15.378C21.5206 13.8795 22.8008 12.75 24.3106 12.75V12.75C24.8233 12.75 25.3062 12.5086 25.6139 12.0985L26.3866 11.0685V11.0685C26.7814 10.5421 27.462 10.2652 28.0767 10.4999L29.1265 10.9006C29.2009 10.929 29.2501 11.0004 29.2501 11.0801V11.0801C29.2501 11.1824 29.1697 11.2662 29.0679 11.2766C28.1438 11.371 27.3088 11.8231 26.7337 12.5348C26.4733 12.8571 26.6292 13.315 26.9998 13.5004V13.5004C27.3703 13.6858 27.8139 13.5191 28.1233 13.2436C28.4755 12.93 28.9349 12.75 29.4271 12.75H30.5262C30.5329 12.75 30.5379 12.7562 30.5363 12.7628V12.7628C30.3173 13.6388 29.5343 14.25 28.6313 14.25ZM42.7501 38.25H45.7501V41.25H42.7501V38.25ZM42.7501 42.75H45.7501V45.75H42.7501V42.75ZM39.7501 38.25H41.2501V45.75H39.7501V38.25ZM35.2501 23.25C35.2501 22.4227 35.9228 21.75 36.7501 21.75C37.5773 21.75 38.2501 22.4227 38.2501 23.25V24.2962C38.2501 24.7987 38.0003 25.2652 37.5818 25.5442V25.5442C37.0782 25.8799 36.4218 25.8794 35.9183 25.5435V25.5435C35.4998 25.2652 35.2501 24.798 35.2501 24.2962V23.25ZM19.6192 7.37667C19.7147 7.29703 19.8592 7.32288 19.9189 7.43196C20.0121 7.60213 20.1011 7.77512 20.1841 7.95225L20.9831 9.66473C20.9842 9.66711 20.9832 9.66993 20.9809 9.67111L19.0778 10.6226C18.8202 10.7514 18.5076 10.6301 18.4043 10.3612V10.3612C18.2161 9.87075 17.9858 9.40275 17.7233 8.95725L19.6192 7.37667ZM18.8286 5.82788C18.8983 5.91155 18.8856 6.03553 18.8019 6.10523L16.8541 7.728C16.4191 7.2045 15.9271 6.73125 15.3863 6.312L16.679 4.15819C16.7382 4.05959 16.8683 4.03094 16.9619 4.0977C17.6527 4.59036 18.2812 5.17077 18.8286 5.82788ZM15.3899 3.18031C15.4432 3.20521 15.4629 3.27086 15.4326 3.32136L14.2118 5.3565C14.1117 4.38339 13.7883 3.45989 13.2622 2.64749C13.2131 2.57172 13.2786 2.47216 13.3667 2.49181C14.0676 2.64811 14.7452 2.87966 15.3899 3.18031ZM10.1698 2.3143C10.1787 2.31333 10.1856 2.32192 10.1828 2.33042L9.17482 5.35426C9.17294 5.3599 9.16867 5.36419 9.16305 5.36612V5.36612C9.15482 5.36894 9.14577 5.36515 9.14188 5.35737L7.88604 2.84643C7.88419 2.84274 7.88598 2.83827 7.88986 2.83688C8.6249 2.57276 9.39067 2.3988 10.1698 2.3143ZM4.9453 5.0345C4.82218 4.82933 4.86972 4.56473 5.05657 4.41525V4.41525C5.45913 4.09333 5.88674 3.80696 6.33222 3.55355C6.43055 3.49761 6.55502 3.5369 6.60561 3.63808L7.73257 5.892C7.14007 6.1695 6.58357 6.5115 6.07507 6.91725L4.9453 5.0345ZM9.00007 23.25C9.46582 23.25 9.79957 23.463 9.99832 23.6408V23.6408C10.2833 23.8976 10.7166 23.8981 11.0018 23.6415V23.6415C11.2006 23.463 11.5343 23.25 12.0001 23.25C12.8273 23.25 13.5001 23.9227 13.5001 24.75V24.75C13.5001 25.5006 12.5578 25.5055 11.8782 25.1868C11.2794 24.906 10.6164 24.75 9.92257 24.75C9.31029 24.75 8.7263 24.8697 8.19049 25.0855C7.88039 25.2104 7.50007 25.0843 7.50007 24.75V24.75C7.50007 23.9227 8.17282 23.25 9.00007 23.25ZM6.75007 29.4225C6.75007 27.6735 8.17357 26.25 9.92257 26.25C11.2898 26.25 12.4996 27.1223 12.9323 28.4198L13.5383 30.2378C13.6793 30.6615 13.8751 31.0575 14.1098 31.4303C13.6231 31.8285 13.2571 32.3767 13.0958 33.0225V33.0225C12.8131 34.154 13.669 35.25 14.8353 35.25H16.3223L17.8223 36C18.1538 36.1657 18.3998 36.4342 18.5588 36.75H6.75007V29.4225ZM14.8359 33.75C14.6455 33.75 14.5059 33.5709 14.5523 33.3862V33.3862C14.63 33.0742 14.8019 32.8062 15.0332 32.609C15.352 32.3372 15.7508 32.6556 15.7508 33.0746V33.1849C15.7508 33.497 15.4978 33.75 15.1857 33.75H14.8359ZM4.7044 30.75C4.33697 30.75 4.07866 30.3878 4.30132 30.0955C4.53795 29.7849 4.85704 29.545 5.22211 29.4018C5.23619 29.3963 5.25007 29.4074 5.25007 29.4225V29.4225V30.2043C5.25007 30.5057 5.00577 30.75 4.7044 30.75V30.75ZM3.75007 45.75H2.25007V38.25H3.75007V45.75ZM8.25007 45.75H5.25007V42.75H8.25007V45.75ZM8.25007 41.25H5.25007V38.25H8.25007V41.25ZM11.2501 45.75H9.75007V38.25H11.2501V45.75ZM15.7501 45.75H12.7501V42.75H15.7501V45.75ZM15.7501 41.25H12.7501V38.25H15.7501V41.25ZM18.7501 45.75H17.2501V38.25H18.7501V45.75ZM18.4936 34.6582L17.2501 34.0365V32.25C17.2501 30.5955 18.5956 29.25 20.2501 29.25C21.9046 29.25 23.2501 30.5955 23.2501 32.25V32.646C23.2501 34.1992 23.8283 35.6408 24.8198 36.75H20.1556C19.9388 35.8522 19.3463 35.085 18.4936 34.6582ZM23.2501 45.75H20.2501V42.75H23.2501V45.75ZM23.2501 41.25H20.2501V38.25H23.2501V41.25ZM26.2501 45.75H24.7501V38.25H26.2501V45.75ZM30.7501 45.75H27.7501V42.75H30.7501V45.75ZM30.7501 41.25H27.7501V38.25H30.7501V41.25ZM33.7501 45.75H32.2501V38.25H33.7501V45.75ZM38.2501 45.75H35.2501V42.75H38.2501V45.75ZM38.2501 38.25V41.25H35.2501V38.25H38.2501ZM18.5266 18.3555L17.3993 19.2C16.8361 19.623 16.5001 20.2958 16.5001 21V22.5C16.5001 24.5677 18.1823 26.25 20.2501 26.25C21.4238 26.25 22.5458 25.689 23.2501 24.75L24.0383 23.6993C24.3136 23.3318 24.6901 23.0603 25.1266 22.9155V22.9155C25.3137 22.853 25.5223 22.9133 25.6308 23.0781C26.0278 23.6806 26.2501 24.3827 26.2501 25.1362C26.2501 25.8783 26.4099 26.6091 26.7098 27.2797C26.8147 27.5143 26.7291 27.7972 26.4993 27.912V27.912C26.3466 27.9883 26.2501 28.1443 26.2501 28.315V29.0677C26.2501 31.32 27.1268 33.4373 28.7198 35.0303V35.0303C28.8886 35.199 29.1277 35.2773 29.3636 35.241L35.4076 34.311C35.8186 34.248 36.2086 34.134 36.5776 33.9832C36.6878 34.455 36.7501 34.9373 36.7501 35.4263V36.75H27.2011C25.6883 35.931 24.7501 34.3762 24.7501 32.646V32.25C24.7501 29.7682 22.7318 27.75 20.2501 27.75C18.2969 27.75 16.6357 29.002 16.0146 30.7443C16.0134 30.7477 16.0102 30.75 16.0066 30.75V30.75C15.8356 30.75 15.6683 30.765 15.5041 30.792C15.2791 30.474 15.0856 30.1357 14.9611 29.7622L14.3551 27.9442V27.9442C14.173 27.3994 14.2792 26.7835 14.5747 26.2909C14.8476 25.8357 15.0001 25.3065 15.0001 24.75C15.0001 23.2995 13.9651 22.0867 12.5948 21.81L12.0863 17.2335C13.4896 17.161 14.7402 16.3768 15.4102 15.1725C15.6116 14.8106 15.3934 14.3807 15.0004 14.2496V14.2496C14.6075 14.1185 14.1908 14.3409 13.9514 14.6789C13.4836 15.3393 12.7184 15.75 11.8786 15.75H10.1806C9.75832 15.75 9.34582 15.8685 8.98807 16.092L5.79368 18.0884C4.80867 18.704 3.51026 18.3919 2.91261 17.3959V17.3959C2.55911 16.8068 2.51988 16.081 2.80781 15.4572L5.07907 10.5367C5.98282 8.57925 7.78432 7.15875 9.89782 6.73575V6.73575C10.1617 6.68288 10.3771 6.49269 10.4622 6.23734L11.5733 2.90325C12.3308 3.75975 12.7501 4.8465 12.7501 6V6C12.7501 6.28403 12.9107 6.54366 13.1648 6.6705V6.6705C14.9318 7.554 16.2953 9.0555 17.0048 10.899L18.9038 15.8374C19.2417 16.7161 19.2789 17.7895 18.5266 18.3555V18.3555ZM19.9973 14.5028L19.1386 12.2692L21.4358 11.1206C21.5365 11.0703 21.6589 11.1129 21.7065 11.215L21.9421 11.7198C21.9855 11.8129 21.9511 11.9233 21.865 11.9794C20.9744 12.5593 20.3025 13.4481 19.9973 14.5028ZM27.5281 8.685C27.6721 8.1285 27.7501 7.554 27.7501 6.97725C27.7501 6.77625 28.0546 6.68325 28.1663 6.85125C28.6628 7.59675 28.9853 8.43 29.1398 9.3L27.5281 8.685Z"/>
</mask>
<path d="M28.6313 14.25V14.25C28.5588 14.25 28.5001 14.3088 28.5001 14.3812V15.6188C28.5001 15.6912 28.5588 15.75 28.6313 15.75V15.75C29.0716 15.75 29.4923 15.6607 29.8838 15.5085C31.1018 17.508 33.3046 18.75 35.6468 18.75H46.5001C46.9143 18.75 47.2501 18.4142 47.2501 18V18C47.2501 17.5858 46.9143 17.25 46.5001 17.25H35.6468C33.8138 17.25 32.0881 16.2735 31.1453 14.7015V14.7015C31.1373 14.6882 31.1393 14.6713 31.1499 14.66C31.5466 14.2395 31.8436 13.719 31.9913 13.1265L32.0456 12.9096C32.2565 12.0667 31.619 11.25 30.7501 11.25V11.25V10.431C30.7501 8.856 30.2881 7.3305 29.4143 6.01875C29.0933 5.53725 28.5556 5.25 27.9773 5.25C27.0248 5.25 26.2501 6.02475 26.2501 6.97725C26.2501 8.12025 25.8728 9.25425 25.1866 10.1685L24.4138 11.1984C24.3894 11.2309 24.3512 11.25 24.3106 11.25V11.25V11.25C23.7854 11.25 23.2653 11.0085 23.0432 10.5326L21.5431 7.3185C19.6808 3.3285 15.6323 0.75 11.2291 0.75C8.65507 0.75 6.12982 1.63575 4.11982 3.2445V3.2445C3.34673 3.86254 3.14987 4.95707 3.65915 5.80577L3.9731 6.32895C4.56731 7.31916 4.41148 8.55713 3.87761 9.58113C3.82161 9.68855 3.76805 9.79759 3.71707 9.90825L1.446 14.8284C0.950081 15.9028 1.01762 17.153 1.62641 18.1677V18.1677C2.6558 19.8834 4.89237 20.4211 6.58914 19.3607L9.78307 17.3647C9.90232 17.2897 10.0396 17.2507 10.1806 17.2507V17.2507C10.4073 17.2507 10.5978 17.4212 10.6228 17.6466L11.0537 21.5226C11.0781 21.7419 10.9432 21.9436 10.7423 22.0346V22.0346C10.5892 22.104 10.4114 22.1042 10.2593 22.0325C9.86644 21.8476 9.43762 21.75 9.00007 21.75C7.34557 21.75 6.00007 23.0955 6.00007 24.75C6.00007 24.9813 6.02771 25.2072 6.08012 25.4254C6.21325 25.9798 6.17365 26.5881 5.88692 27.0809V27.0809C5.64586 27.4952 5.24612 27.8073 4.7937 27.9656C3.66791 28.3596 2.78026 29.2905 2.47732 30.501V30.501C2.25487 31.3893 2.92664 32.25 3.84233 32.25H5.25007V36.75H0.75007V47.25H47.2501V36.75H38.2501V35.427C38.2501 34.6628 38.1353 33.9113 37.9178 33.1838C38.8668 32.3934 39.5132 31.2699 39.6967 29.9975C39.7558 29.5876 39.4143 29.25 39.0001 29.25V29.25C38.5859 29.25 38.2581 29.5894 38.1745 29.9951C37.8741 31.452 36.7064 32.5941 35.1796 32.829L29.5231 33.699C28.3771 32.4247 27.7501 30.795 27.7501 29.0677V29.0677C27.7501 29.0039 27.7862 28.9455 27.8433 28.9169L29.6521 28.0125C30.2933 27.6922 30.7471 27.078 30.8656 26.37L31.0718 25.1302C31.2533 24.0405 32.1871 23.25 33.2918 23.25V23.25C33.5449 23.25 33.7501 23.4552 33.7501 23.7083V24.2962C33.7501 25.3012 34.2496 26.2342 35.0858 26.7922V26.7922C36.0936 27.464 37.4065 27.464 38.4143 26.7922V26.7922C39.2506 26.2342 39.7501 25.3005 39.7501 24.2962V24.2962C39.7501 24.0984 39.975 23.9975 40.1001 24.1508C40.2732 24.3629 40.4108 24.6049 40.5001 24.8722L40.6051 25.1865C41.1158 26.7195 42.5461 27.75 44.1623 27.75H46.5001C46.9143 27.75 47.2501 27.4142 47.2501 27V27C47.2501 26.5858 46.9143 26.25 46.5001 26.25H44.1623C43.1926 26.25 42.3346 25.632 42.0278 24.7118L41.9228 24.3975C41.5321 23.2267 40.5976 22.3185 39.4366 21.9427C38.9491 20.9445 37.9336 20.25 36.7501 20.25C35.9585 20.25 35.2431 20.5614 34.7096 21.0659C34.3154 21.4386 33.8335 21.75 33.2911 21.75V21.75C31.4498 21.75 29.8943 23.0678 29.5921 24.8835L29.3858 26.1225C29.3461 26.3588 29.1953 26.5635 28.9808 26.67L28.2676 27.027C27.9338 26.4548 27.7501 25.7985 27.7501 25.1138C27.7501 24.096 27.4591 23.124 26.9221 22.287C28.0943 21.7765 28.934 20.7314 29.1776 19.4954C29.2576 19.089 28.9143 18.75 28.5001 18.75V18.75C28.0859 18.75 27.7616 19.094 27.633 19.4877C27.4041 20.1883 26.8556 20.7576 26.1278 21L24.6518 21.492C23.9243 21.7343 23.2973 22.1865 22.8383 22.7992L22.0508 23.8493C21.6278 24.4133 20.9543 24.75 20.2501 24.75C19.9036 24.75 19.5796 24.6653 19.2863 24.5243L21.0001 22.8105C21.2929 22.5177 21.2929 22.0428 21.0001 21.75V21.75C20.7072 21.4572 20.2324 21.4572 19.9396 21.75L18.2258 23.4637C18.0848 23.1705 18.0001 22.8465 18.0001 22.5V21C18.0001 20.7652 18.1118 20.541 18.3001 20.4L19.4266 19.5555C20.3978 18.8273 21.0413 17.718 21.1921 16.5135L21.3338 15.378C21.5206 13.8795 22.8008 12.75 24.3106 12.75V12.75C24.8233 12.75 25.3062 12.5086 25.6139 12.0985L26.3866 11.0685V11.0685C26.7814 10.5421 27.462 10.2652 28.0767 10.4999L29.1265 10.9006C29.2009 10.929 29.2501 11.0004 29.2501 11.0801V11.0801C29.2501 11.1824 29.1697 11.2662 29.0679 11.2766C28.1438 11.371 27.3088 11.8231 26.7337 12.5348C26.4733 12.8571 26.6292 13.315 26.9998 13.5004V13.5004C27.3703 13.6858 27.8139 13.5191 28.1233 13.2436C28.4755 12.93 28.9349 12.75 29.4271 12.75H30.5262C30.5329 12.75 30.5379 12.7562 30.5363 12.7628V12.7628C30.3173 13.6388 29.5343 14.25 28.6313 14.25ZM42.7501 38.25H45.7501V41.25H42.7501V38.25ZM42.7501 42.75H45.7501V45.75H42.7501V42.75ZM39.7501 38.25H41.2501V45.75H39.7501V38.25ZM35.2501 23.25C35.2501 22.4227 35.9228 21.75 36.7501 21.75C37.5773 21.75 38.2501 22.4227 38.2501 23.25V24.2962C38.2501 24.7987 38.0003 25.2652 37.5818 25.5442V25.5442C37.0782 25.8799 36.4218 25.8794 35.9183 25.5435V25.5435C35.4998 25.2652 35.2501 24.798 35.2501 24.2962V23.25ZM19.6192 7.37667C19.7147 7.29703 19.8592 7.32288 19.9189 7.43196C20.0121 7.60213 20.1011 7.77512 20.1841 7.95225L20.9831 9.66473C20.9842 9.66711 20.9832 9.66993 20.9809 9.67111L19.0778 10.6226C18.8202 10.7514 18.5076 10.6301 18.4043 10.3612V10.3612C18.2161 9.87075 17.9858 9.40275 17.7233 8.95725L19.6192 7.37667ZM18.8286 5.82788C18.8983 5.91155 18.8856 6.03553 18.8019 6.10523L16.8541 7.728C16.4191 7.2045 15.9271 6.73125 15.3863 6.312L16.679 4.15819C16.7382 4.05959 16.8683 4.03094 16.9619 4.0977C17.6527 4.59036 18.2812 5.17077 18.8286 5.82788ZM15.3899 3.18031C15.4432 3.20521 15.4629 3.27086 15.4326 3.32136L14.2118 5.3565C14.1117 4.38339 13.7883 3.45989 13.2622 2.64749C13.2131 2.57172 13.2786 2.47216 13.3667 2.49181C14.0676 2.64811 14.7452 2.87966 15.3899 3.18031ZM10.1698 2.3143C10.1787 2.31333 10.1856 2.32192 10.1828 2.33042L9.17482 5.35426C9.17294 5.3599 9.16867 5.36419 9.16305 5.36612V5.36612C9.15482 5.36894 9.14577 5.36515 9.14188 5.35737L7.88604 2.84643C7.88419 2.84274 7.88598 2.83827 7.88986 2.83688C8.6249 2.57276 9.39067 2.3988 10.1698 2.3143ZM4.9453 5.0345C4.82218 4.82933 4.86972 4.56473 5.05657 4.41525V4.41525C5.45913 4.09333 5.88674 3.80696 6.33222 3.55355C6.43055 3.49761 6.55502 3.5369 6.60561 3.63808L7.73257 5.892C7.14007 6.1695 6.58357 6.5115 6.07507 6.91725L4.9453 5.0345ZM9.00007 23.25C9.46582 23.25 9.79957 23.463 9.99832 23.6408V23.6408C10.2833 23.8976 10.7166 23.8981 11.0018 23.6415V23.6415C11.2006 23.463 11.5343 23.25 12.0001 23.25C12.8273 23.25 13.5001 23.9227 13.5001 24.75V24.75C13.5001 25.5006 12.5578 25.5055 11.8782 25.1868C11.2794 24.906 10.6164 24.75 9.92257 24.75C9.31029 24.75 8.7263 24.8697 8.19049 25.0855C7.88039 25.2104 7.50007 25.0843 7.50007 24.75V24.75C7.50007 23.9227 8.17282 23.25 9.00007 23.25ZM6.75007 29.4225C6.75007 27.6735 8.17357 26.25 9.92257 26.25C11.2898 26.25 12.4996 27.1223 12.9323 28.4198L13.5383 30.2378C13.6793 30.6615 13.8751 31.0575 14.1098 31.4303C13.6231 31.8285 13.2571 32.3767 13.0958 33.0225V33.0225C12.8131 34.154 13.669 35.25 14.8353 35.25H16.3223L17.8223 36C18.1538 36.1657 18.3998 36.4342 18.5588 36.75H6.75007V29.4225ZM14.8359 33.75C14.6455 33.75 14.5059 33.5709 14.5523 33.3862V33.3862C14.63 33.0742 14.8019 32.8062 15.0332 32.609C15.352 32.3372 15.7508 32.6556 15.7508 33.0746V33.1849C15.7508 33.497 15.4978 33.75 15.1857 33.75H14.8359ZM4.7044 30.75C4.33697 30.75 4.07866 30.3878 4.30132 30.0955C4.53795 29.7849 4.85704 29.545 5.22211 29.4018C5.23619 29.3963 5.25007 29.4074 5.25007 29.4225V29.4225V30.2043C5.25007 30.5057 5.00577 30.75 4.7044 30.75V30.75ZM3.75007 45.75H2.25007V38.25H3.75007V45.75ZM8.25007 45.75H5.25007V42.75H8.25007V45.75ZM8.25007 41.25H5.25007V38.25H8.25007V41.25ZM11.2501 45.75H9.75007V38.25H11.2501V45.75ZM15.7501 45.75H12.7501V42.75H15.7501V45.75ZM15.7501 41.25H12.7501V38.25H15.7501V41.25ZM18.7501 45.75H17.2501V38.25H18.7501V45.75ZM18.4936 34.6582L17.2501 34.0365V32.25C17.2501 30.5955 18.5956 29.25 20.2501 29.25C21.9046 29.25 23.2501 30.5955 23.2501 32.25V32.646C23.2501 34.1992 23.8283 35.6408 24.8198 36.75H20.1556C19.9388 35.8522 19.3463 35.085 18.4936 34.6582ZM23.2501 45.75H20.2501V42.75H23.2501V45.75ZM23.2501 41.25H20.2501V38.25H23.2501V41.25ZM26.2501 45.75H24.7501V38.25H26.2501V45.75ZM30.7501 45.75H27.7501V42.75H30.7501V45.75ZM30.7501 41.25H27.7501V38.25H30.7501V41.25ZM33.7501 45.75H32.2501V38.25H33.7501V45.75ZM38.2501 45.75H35.2501V42.75H38.2501V45.75ZM38.2501 38.25V41.25H35.2501V38.25H38.2501ZM18.5266 18.3555L17.3993 19.2C16.8361 19.623 16.5001 20.2958 16.5001 21V22.5C16.5001 24.5677 18.1823 26.25 20.2501 26.25C21.4238 26.25 22.5458 25.689 23.2501 24.75L24.0383 23.6993C24.3136 23.3318 24.6901 23.0603 25.1266 22.9155V22.9155C25.3137 22.853 25.5223 22.9133 25.6308 23.0781C26.0278 23.6806 26.2501 24.3827 26.2501 25.1362C26.2501 25.8783 26.4099 26.6091 26.7098 27.2797C26.8147 27.5143 26.7291 27.7972 26.4993 27.912V27.912C26.3466 27.9883 26.2501 28.1443 26.2501 28.315V29.0677C26.2501 31.32 27.1268 33.4373 28.7198 35.0303V35.0303C28.8886 35.199 29.1277 35.2773 29.3636 35.241L35.4076 34.311C35.8186 34.248 36.2086 34.134 36.5776 33.9832C36.6878 34.455 36.7501 34.9373 36.7501 35.4263V36.75H27.2011C25.6883 35.931 24.7501 34.3762 24.7501 32.646V32.25C24.7501 29.7682 22.7318 27.75 20.2501 27.75C18.2969 27.75 16.6357 29.002 16.0146 30.7443C16.0134 30.7477 16.0102 30.75 16.0066 30.75V30.75C15.8356 30.75 15.6683 30.765 15.5041 30.792C15.2791 30.474 15.0856 30.1357 14.9611 29.7622L14.3551 27.9442V27.9442C14.173 27.3994 14.2792 26.7835 14.5747 26.2909C14.8476 25.8357 15.0001 25.3065 15.0001 24.75C15.0001 23.2995 13.9651 22.0867 12.5948 21.81L12.0863 17.2335C13.4896 17.161 14.7402 16.3768 15.4102 15.1725C15.6116 14.8106 15.3934 14.3807 15.0004 14.2496V14.2496C14.6075 14.1185 14.1908 14.3409 13.9514 14.6789C13.4836 15.3393 12.7184 15.75 11.8786 15.75H10.1806C9.75832 15.75 9.34582 15.8685 8.98807 16.092L5.79368 18.0884C4.80867 18.704 3.51026 18.3919 2.91261 17.3959V17.3959C2.55911 16.8068 2.51988 16.081 2.80781 15.4572L5.07907 10.5367C5.98282 8.57925 7.78432 7.15875 9.89782 6.73575V6.73575C10.1617 6.68288 10.3771 6.49269 10.4622 6.23734L11.5733 2.90325C12.3308 3.75975 12.7501 4.8465 12.7501 6V6C12.7501 6.28403 12.9107 6.54366 13.1648 6.6705V6.6705C14.9318 7.554 16.2953 9.0555 17.0048 10.899L18.9038 15.8374C19.2417 16.7161 19.2789 17.7895 18.5266 18.3555V18.3555ZM19.9973 14.5028L19.1386 12.2692L21.4358 11.1206C21.5365 11.0703 21.6589 11.1129 21.7065 11.215L21.9421 11.7198C21.9855 11.8129 21.9511 11.9233 21.865 11.9794C20.9744 12.5593 20.3025 13.4481 19.9973 14.5028ZM27.5281 8.685C27.6721 8.1285 27.7501 7.554 27.7501 6.97725C27.7501 6.77625 28.0546 6.68325 28.1663 6.85125C28.6628 7.59675 28.9853 8.43 29.1398 9.3L27.5281 8.685Z" fill="#667085" stroke="white" stroke-width="0.2" stroke-linejoin="round" mask="url(#path-7-inside-1_87_6650)"/>
</g>
<defs>
<clipPath id="clip0_87_6650">
<rect width="48" height="48" fill="white"/>
</clipPath>
</defs>
</svg>
