<svg width="48" height="48" viewBox="0 0 48 48" fill="none" xmlns="http://www.w3.org/2000/svg">
<g clip-path="url(#clip0_87_6653)">
<path d="M23.4379 17.7439L23.4379 17.7439C24.8619 18.7473 26.4933 19.8945 28.1895 21.0868L28.2287 21.1144C34.1662 25.2887 40.8773 30.0068 42.2224 31.0639L42.2224 31.0639C42.375 31.1837 42.6114 31.4304 42.7183 31.863C42.8252 32.2958 42.804 32.9206 42.4301 33.7992L42.4718 33.8169L42.4301 33.7992C42.0707 34.6439 41.5253 35.3755 40.979 35.8827C40.7059 36.1362 40.4337 36.3327 40.1857 36.4592C39.9365 36.5863 39.7173 36.64 39.5478 36.6165C39.015 36.5423 37.7167 36.0312 35.1351 33.4007C34.889 33.15 34.4865 33.146 34.2358 33.3921C33.9851 33.6382 33.9811 34.0409 34.2272 34.2917C35.3212 35.4063 36.2884 36.2574 37.1405 36.8521C37.9921 37.4464 38.7322 37.7871 39.3719 37.8764L39.372 37.8764C39.4537 37.8878 39.5368 37.8934 39.6218 37.8934C40.3103 37.8934 41.0824 37.5196 41.8261 36.8328L41.7922 36.796L41.8261 36.8328C42.555 36.1592 43.2015 35.2353 43.6006 34.2973C44.3595 32.5135 44.154 30.9641 43.0084 30.0636L42.9804 30.0992L43.0084 30.0636C41.6344 28.9841 34.8943 24.2457 28.9427 20.0616L28.9212 20.0464C27.2253 18.8541 25.5941 17.7073 24.1708 16.7042L24.1708 16.7042C23.8837 16.5018 23.4869 16.5704 23.2845 16.8575C23.0822 17.1447 23.1507 17.5415 23.4379 17.7439Z" fill="#667085" stroke="#667085" stroke-width="0.1"/>
<path d="M15.6282 38.3557L14.1249 38.5837L14.1248 38.5837C13.7817 38.6354 13.4529 38.3933 13.4008 38.0501L13.4465 38.0432L13.4008 38.0501C13.3482 37.7027 13.587 37.3784 13.9345 37.3261L16.6596 36.9129V33.2026C15.1251 32.8192 13.5597 32.1858 12.058 31.1947C11.7649 31.0013 11.684 30.6068 11.8775 30.3137L11.8775 30.3137C12.0712 30.0202 12.4657 29.9397 12.7588 30.1332L12.7588 30.1332C16.5276 32.6205 20.7763 32.6539 23.6807 32.2418C27.3074 31.7272 30.0925 30.3532 30.9918 29.6138L30.9918 29.6138C31.265 29.3893 31.6808 29.436 31.8976 29.7145L31.8983 29.7154C31.9256 29.7503 32.5988 30.611 33.5644 31.7061C33.7966 31.9695 33.7714 32.3713 33.5078 32.6037L33.5077 32.6038C33.2441 32.8359 32.8423 32.8104 32.6102 32.5471L32.6477 32.5141L32.6102 32.5471C32.0428 31.9034 31.5798 31.3463 31.2779 30.9755C29.7686 31.9636 26.9515 33.062 23.8596 33.5008C23.8596 33.5008 23.8595 33.5008 23.8595 33.5008L15.6282 38.3557ZM15.6282 38.3557L14.8723 39.1919L15.6282 38.3557ZM14.9173 40.0902L14.9173 40.0902C14.657 39.8544 14.6364 39.4524 14.8722 39.192L14.9173 40.0902ZM14.9173 40.0902C15.1746 40.3226 15.5831 40.3022 15.8156 40.0448C15.8156 40.0448 15.8156 40.0448 15.8156 40.0448L17.7658 37.8875C17.7686 37.8847 17.7706 37.8822 17.7717 37.8806C17.8714 37.7677 17.9314 37.62 17.9314 37.4597V33.4671C18.9703 33.6411 19.9821 33.7112 20.9353 33.7112C21.3957 33.7112 21.8416 33.6943 22.2711 33.6656V37.4463L19.546 37.8592L19.546 37.8592C19.1989 37.9119 18.9601 38.2361 19.0127 38.5833C19.0648 38.9264 19.3936 39.1689 19.7368 39.1168L21.2397 38.8891M14.9173 40.0902L21.2397 38.8891M21.2397 38.8891L20.4838 39.7251L20.4838 39.7251C20.2483 39.9857 20.2685 40.3878 20.5292 40.6233C20.7865 40.8561 21.1947 40.8356 21.4274 40.5783L21.4274 40.5783L23.3787 38.4199C23.3811 38.4173 23.3829 38.4149 23.3839 38.4134C23.4832 38.3008 23.5433 38.1531 23.5433 37.9929V33.543L21.2397 38.8891Z" fill="#667085" stroke="#667085" stroke-width="0.1"/>
<path d="M10.2623 28.0093L10.2623 28.0093C10.4998 28.2654 10.7483 28.5138 11.0001 28.748L11.0001 28.748C11.2574 28.9874 11.2717 29.3899 11.0325 29.6469C10.7964 29.9009 10.3876 29.9158 10.1336 29.6793C9.85929 29.424 9.58864 29.1534 9.32992 28.8744C7.53597 26.9426 6.2548 24.631 5.5959 22.1503C5.42848 22.1685 5.2592 22.1528 5.09754 22.1013C4.66373 21.9629 4.40113 21.6063 4.23837 21.1757C4.07571 20.7453 4.00949 20.233 3.9728 19.7684C3.85161 18.2337 4.19361 16.1536 5.48617 14.7457C6.48255 10.6148 9.13677 7.74191 12.2996 7.42959L12.2996 7.42959C16.2543 7.03984 18.4221 9.43043 19.5406 11.4973C20.3031 12.9065 21.2801 14.1819 22.4442 15.2883C22.699 15.5301 22.7092 15.9328 22.4671 16.1875C22.2283 16.4389 21.8195 16.4491 21.5682 16.2104L21.5682 16.2104C20.307 15.0117 19.2482 13.6299 18.4217 12.1028C17.7382 10.8398 16.8922 9.92421 15.8921 9.35629C14.8922 8.78853 13.7348 8.5662 12.4245 8.69549C10.1856 8.91664 8.21987 10.7839 7.15996 13.6112C7.8951 13.3387 8.72137 13.2628 9.60999 13.3921C12.0746 13.7508 13.0883 15.9557 12.9917 17.8417C12.9396 18.8559 12.5841 19.6602 12.0354 20.067C11.9671 20.8758 11.6913 21.5441 11.2232 22.0468C10.7508 22.5542 10.0861 22.8893 9.25144 23.0325M10.2623 28.0093L9.24299 22.9832M10.2623 28.0093C8.86641 26.5062 7.81022 24.7552 7.15029 22.8741M10.2623 28.0093L7.08869 22.8493M9.25144 23.0325L9.24299 22.9832M9.25144 23.0325C9.25145 23.0325 9.25146 23.0325 9.25146 23.0325L9.24299 22.9832M9.25144 23.0325C8.5539 23.1525 7.81908 23.1345 7.15029 22.8741M9.24299 22.9832C8.53755 23.1046 7.79708 23.0829 7.12855 22.8116C7.13575 22.8325 7.143 22.8533 7.15029 22.8741M7.15029 22.8741C7.1297 22.8661 7.10916 22.8578 7.08869 22.8493M7.08869 22.8493C7.08134 22.8281 7.07403 22.807 7.06678 22.7858L7.08869 22.8493ZM8.60151 19.5671C7.99685 20.2909 7.47356 20.8752 7.00428 21.3005C7.01652 21.312 7.02887 21.3233 7.04131 21.3344M8.60151 19.5671L9.04462 21.8281C8.18518 21.9756 7.51244 21.8247 7.00396 21.368C7.01637 21.3569 7.02882 21.3457 7.04131 21.3344M8.60151 19.5671C8.83008 19.2933 8.95978 19.2063 9.01044 19.1801M8.60151 19.5671L9.01044 19.1801M7.04131 21.3344C7.53506 21.7754 8.18966 21.9241 9.03617 21.7788C9.53126 21.6938 9.91227 21.5291 10.1896 21.2812C10.4556 21.0435 10.6298 20.7261 10.716 20.3197C10.0001 20.1943 9.55572 19.7608 9.24981 19.4612M7.04131 21.3344C7.51244 20.9069 8.03648 20.3215 8.63988 19.5991L8.63989 19.5991C8.83138 19.3698 8.95012 19.2761 9.00783 19.2394M9.00783 19.2394C9.03532 19.2603 9.0699 19.2903 9.10746 19.3249C9.15383 19.3676 9.20215 19.4147 9.24319 19.4547L9.24981 19.4612M9.00783 19.2394C8.99893 19.2327 8.99077 19.2269 8.9835 19.2222L9.01044 19.1801M9.00783 19.2394C9.01839 19.2327 9.0269 19.2279 9.03344 19.2245L9.01044 19.1801M9.24981 19.4612L9.2848 19.4255L9.2499 19.4613L9.24981 19.4612ZM6.60323 15.4232L6.6032 15.4233C5.64622 16.3189 5.10787 17.9846 5.2407 19.6684C5.30551 20.4874 5.43703 20.7806 5.49523 20.8728C5.57706 20.846 5.77509 20.7533 6.13272 20.436L6.13274 20.436C6.5263 20.0873 7.01267 19.5629 7.66379 18.7837C7.96829 18.4189 8.40016 17.9784 8.96057 17.9507M6.60323 15.4232L9.42655 14.6504M6.60323 15.4232C7.18617 14.8769 7.91337 14.6015 8.77424 14.6015C8.98375 14.6015 9.20138 14.6178 9.42655 14.6504M6.60323 15.4232L9.42655 14.6504M8.96057 17.9507C8.9606 17.9507 8.96063 17.9507 8.96067 17.9507L8.96314 18.0005L8.9605 17.9507C8.96052 17.9507 8.96054 17.9507 8.96057 17.9507ZM8.96057 17.9507C9.49581 17.9224 9.85852 18.2772 10.1347 18.5473L10.1398 18.5523L10.1398 18.5524C10.4507 18.8571 10.7044 19.1035 11.1857 19.0828L11.1858 19.0828C11.2205 19.0814 11.2694 19.059 11.3265 19.0026C11.3827 18.9472 11.4419 18.8637 11.4971 18.7521C11.6076 18.5292 11.6994 18.1999 11.7211 17.7765L11.7673 17.7788L11.7211 17.7765C11.7476 17.2603 11.654 16.5468 11.3133 15.9287C10.9738 15.3127 10.3888 14.7904 9.42655 14.6504M7.13687 13.6733C7.11608 13.6812 7.09536 13.6893 7.07471 13.6976C7.08236 13.6766 7.09006 13.6557 7.0978 13.6347L7.13687 13.6733Z" fill="#667085" stroke="#667085" stroke-width="0.1"/>
<path d="M18.9618 25.4946L18.9808 25.4533C21.7816 26.7427 24.5511 26.5341 27.2176 24.8319C27.2176 24.8319 27.2176 24.8319 27.2176 24.8319L27.2445 24.874L18.9618 25.4946ZM18.9618 25.4946L18.9808 25.4533C16.8476 24.4715 15.4865 22.9468 15.4662 22.9239M18.9618 25.4946L15.4662 22.9239M15.4662 22.9239C15.2347 22.6603 14.8333 22.6338 14.5693 22.8653L15.4662 22.9239ZM28.0959 25.0257L28.0959 25.0257L14.5693 22.8653C14.305 23.0968 14.2785 23.4986 14.51 23.7629L14.51 23.7629C14.5727 23.8344 16.0375 25.4879 18.409 26.5902C19.5246 27.1088 20.9503 27.5489 22.5789 27.5489C24.1924 27.5489 26.0026 27.1168 27.9022 25.9037C28.1983 25.7149 28.2847 25.3214 28.0959 25.0257Z" fill="#667085" stroke="#667085" stroke-width="0.1"/>
<path d="M15.8724 13.7327C15.8724 12.8872 15.3374 12.2054 14.6331 12.2054C13.9291 12.2054 13.3938 12.8875 13.3938 13.7327C13.3938 14.5779 13.9291 15.2601 14.6331 15.2601C15.3374 15.2601 15.8724 14.5779 15.8724 13.7327Z" fill="#667085" stroke="#667085" stroke-width="0.1"/>
</g>
<defs>
<clipPath id="clip0_87_6653">
<rect width="40" height="40" fill="white" transform="translate(4 4)"/>
</clipPath>
</defs>
</svg>
