<svg width="48" height="48" viewBox="0 0 48 48" fill="none" xmlns="http://www.w3.org/2000/svg">
<g clip-path="url(#clip0_87_6652)">
<path d="M16.4203 14.6411C16.4203 13.792 15.8826 13.1067 15.1752 13.1067C14.4682 13.1067 13.9305 13.7917 13.9305 14.6411C13.9305 15.4903 14.4682 16.1752 15.1752 16.1752C15.8826 16.1752 16.4203 15.4903 16.4203 14.6411Z" fill="#667085" stroke="#667085" stroke-width="0.1"/>
<path d="M26.3012 14.6411C26.3012 13.792 25.7635 13.1067 25.0564 13.1067C24.349 13.1067 23.8113 13.7916 23.8113 14.6411C23.8113 15.4903 24.349 16.1752 25.0564 16.1752C25.7634 16.1752 26.3012 15.4903 26.3012 14.6411Z" fill="#667085" stroke="#667085" stroke-width="0.1"/>
<path d="M19.1062 15.0652L19.1062 15.0652C19.352 15.0071 19.6551 14.9827 20.1159 14.9827L19.1062 15.0652ZM19.1062 15.0652C18.7295 15.1543 18.5152 15.3283 18.3962 15.5117C18.2779 15.6937 18.2571 15.8796 18.2571 15.9879C18.2571 16.2841 18.3979 16.5661 18.6235 16.7975C18.8415 17.0211 19.1406 17.2 19.4772 17.3027V18.5853C19.4772 18.9382 19.7633 19.2239 20.1159 19.2239C20.4688 19.2239 20.7546 18.9382 20.7546 18.5853M19.1062 15.0652L20.7546 18.5853M20.7546 18.5853V17.3027M20.7546 18.5853V17.3027M20.7546 17.3027C21.0912 17.2 21.3904 17.0211 21.6083 16.7975C21.8339 16.5661 21.9747 16.2841 21.9747 15.9879C21.9747 15.8796 21.9539 15.6937 21.8357 15.5117C21.7166 15.3283 21.5023 15.1543 21.1256 15.0652L20.7546 17.3027Z" fill="#667085" stroke="#667085" stroke-width="0.1"/>
<path d="M33.6649 31.8767L33.6649 31.8767C34.4671 30.2413 34.9851 28.3276 35.1235 26.4891C35.2992 24.1523 34.4011 22.059 33.6745 20.3667C33.6745 20.3667 33.6745 20.3667 33.6745 20.3666L33.6723 20.3616C33.1853 19.2277 32.7594 18.2363 32.7144 17.3462L33.6649 31.8767ZM33.6649 31.8767C33.5096 32.1936 33.6404 32.576 33.9572 32.7313M33.6649 31.8767L34.8121 32.4392M34.8121 32.4392L34.8121 32.4393C34.7008 32.6654 34.474 32.7968 34.238 32.7968C34.1435 32.7968 34.0475 32.7756 33.9572 32.7313M34.8121 32.4392C35.6841 30.6607 36.2469 28.582 36.3973 26.5848C36.5969 23.9338 35.6258 21.6729 34.8494 19.8652L34.8482 19.8624L34.8482 19.8624L34.8481 19.8621C34.6258 19.3444 34.4195 18.8639 34.2644 18.4293C34.1091 17.9941 34.0067 17.6089 33.9901 17.2817C33.9729 16.9404 34.1103 16.593 34.3431 16.3161C34.5757 16.0392 34.9006 15.8364 35.2526 15.7811L35.2526 15.7811M34.8121 32.4392L35.2526 15.7811M33.9572 32.7313L33.9792 32.6865L33.9572 32.7313C33.9572 32.7313 33.9572 32.7313 33.9572 32.7313ZM35.2526 15.7811C35.4534 15.7495 35.9083 15.7428 36.426 16.1616C36.9452 16.5817 37.5325 17.4338 37.9861 19.1315L37.9861 19.1315M35.2526 15.7811L37.9861 19.1315M37.9861 19.1315C38.0772 19.4722 38.4271 19.6745 38.7681 19.5838L38.7681 19.5838M37.9861 19.1315L38.7681 19.5838M38.7681 19.5838C39.1088 19.4927 39.3115 19.1424 39.2204 18.8017L39.2204 18.8017M38.7681 19.5838L39.2204 18.8017M39.2204 18.8017C38.8057 17.2506 38.2094 16.0893 37.4437 15.3563C36.7443 14.6866 35.8948 14.3871 35.0539 14.519L35.0539 14.519M39.2204 18.8017L35.0539 14.519M35.0539 14.519C33.6959 14.7325 32.6459 15.999 32.7144 17.3462L35.0539 14.519Z" fill="#667085" stroke="#667085" stroke-width="0.1"/>
<mask id="path-5-outside-1_87_6652" maskUnits="userSpaceOnUse" x="7.0625" y="3" width="33" height="42" fill="black">
<rect fill="white" x="7.0625" y="3" width="33" height="42"/>
<path d="M39.8712 25.4688C39.8715 23.8953 39.7897 22.4613 39.628 21.2064C39.5868 20.8839 39.291 20.6565 38.9691 20.6977C38.6465 20.7392 38.4188 21.0343 38.46 21.3566C38.6154 22.562 38.6938 23.9454 38.6935 25.4685C38.6929 28.3854 38.0679 31.0059 36.8359 33.2578C35.8511 35.0583 34.4751 36.6343 32.7462 37.9416C31.9897 38.5139 31.2295 38.9844 30.516 39.3686C30.787 38.7668 30.9207 38.0759 30.9207 37.2874C30.9207 37.2089 30.9189 37.1259 30.9158 37.0408C31.8567 36.3938 32.7066 35.5701 33.4454 34.5862C33.6407 34.3262 33.5882 33.9573 33.3282 33.762C33.0682 33.5666 32.6992 33.6191 32.5039 33.8791C31.9873 34.567 31.4123 35.1658 30.7876 35.669C30.2282 31.5336 28.0618 24.0235 27.4283 21.8763C28.4607 21.4887 29.4516 20.6379 30.0717 19.4102L30.91 19.8658C31.1923 20.0187 31.5554 19.9113 31.7083 19.6293C31.8637 19.3436 31.7578 18.9863 31.4721 18.8309L30.4953 18.3002C30.6115 17.8724 30.686 17.4131 30.7107 16.9245L31.679 16.7591C31.9998 16.7045 32.2152 16.4005 32.1606 16.0798C32.1057 15.7593 31.8017 15.5442 31.481 15.5985L30.6271 15.7441C30.1928 13.3082 28.3328 10.2451 27.8643 9.50142C27.8796 9.10622 27.901 8.16658 27.814 7.19124C27.6407 5.24666 27.1237 4.21181 26.2338 4.02779C25.3601 3.84743 24.4812 4.54598 23.5467 6.16463C23.1537 6.84517 22.8396 7.53365 22.6635 7.9438H17.5677C17.3916 7.53365 17.0776 6.84517 16.6845 6.16463C15.7501 4.54598 14.8712 3.84713 13.9975 4.02779C13.1076 4.21181 12.5906 5.24666 12.4173 7.19124C12.3303 8.16628 12.3517 9.10622 12.3672 9.50142C11.8985 10.2451 10.0387 13.3082 9.60417 15.7441L8.75029 15.5985C8.42985 15.5439 8.12559 15.7593 8.07097 16.0798C8.01634 16.4005 8.23179 16.7045 8.55223 16.7591L9.52055 16.9245C9.54527 17.4131 9.62004 17.8724 9.736 18.3002L8.75914 18.8309C8.47349 18.9863 8.3679 19.3436 8.52293 19.6293C8.67613 19.9113 9.03898 20.019 9.32127 19.8658L10.1596 19.4102C10.78 20.6382 11.7709 21.489 12.8036 21.8763C12.6358 22.4464 12.3575 23.4034 12.0315 24.5682C11.9439 24.8814 12.1267 25.2064 12.4399 25.294C12.753 25.3818 13.078 25.1987 13.1656 24.8856C13.6941 22.9954 14.0967 21.6575 14.1006 21.6441C14.2001 21.3145 13.9853 20.9608 13.6474 20.8961C12.2439 20.6278 10.7782 19.1294 10.6921 16.7853C10.6567 15.8186 11.1157 14.3464 12.0196 12.5285C12.7234 11.1137 13.45 9.99336 13.4573 9.98238C13.526 9.87678 13.5589 9.75227 13.5516 9.62654C13.551 9.61525 13.486 8.46626 13.5901 7.29591C13.7378 5.64003 14.1064 5.2076 14.2361 5.18105C14.3649 5.15358 14.8718 5.38307 15.6592 6.74355C16.2195 7.71156 16.6223 8.73634 16.6263 8.74672C16.7141 8.97255 16.932 9.12117 17.1747 9.12117H23.0569C23.2995 9.12117 23.5171 8.97255 23.6053 8.74672C23.6093 8.73634 24.0072 7.72194 24.5663 6.75362C25.357 5.3846 25.8664 5.15419 25.9955 5.18105C26.1245 5.2076 26.492 5.6379 26.6403 7.28493C26.7456 8.45558 26.6806 9.61525 26.6797 9.62685C26.6726 9.75227 26.7056 9.87709 26.7743 9.98238C26.7816 9.99336 27.5082 11.1137 28.2119 12.5288C29.1159 14.3464 29.5749 15.8186 29.5392 16.7853C29.4534 19.1294 27.9873 20.6278 26.5838 20.8961C26.246 20.9608 26.0315 21.3148 26.1306 21.6444C26.167 21.7643 29.7433 33.6786 29.7433 37.2874C29.7433 38.4946 29.3679 39.3528 28.5623 39.9882C27.8772 40.5283 26.8628 40.918 25.4791 41.1716C25.8056 39.8826 26.0952 38.0958 26.3403 35.8613C26.7553 32.0768 26.9027 28.2432 26.9043 28.205C26.9165 27.88 26.6632 27.6066 26.3382 27.5944C26.0156 27.5806 25.74 27.8355 25.7275 28.1605C25.7263 28.1959 25.5896 31.7451 25.2099 35.3599C24.9881 37.4698 24.7287 39.1862 24.4388 40.4609C24.0194 42.3032 23.6493 42.7225 23.5434 42.8086C23.3835 42.6902 22.6123 41.8317 22.167 36.1735C21.9107 32.9154 21.8954 29.7123 21.8954 29.6802C21.8942 29.3558 21.6308 29.0937 21.3067 29.0937C21.3061 29.0937 21.3052 29.0937 21.3043 29.0937C20.9793 29.0949 20.7168 29.3595 20.7181 29.6845C20.7181 29.7193 20.7342 33.18 21.0202 36.5958C21.1892 38.6188 21.419 40.2369 21.7032 41.4054C21.7123 41.4432 21.7221 41.4814 21.7315 41.5201C21.2265 41.5357 20.6924 41.5436 20.1156 41.5436C19.5389 41.5436 19.0051 41.5357 18.4997 41.5201C18.5095 41.4814 18.519 41.4429 18.5281 41.4054C18.8122 40.2369 19.0423 38.6188 19.2114 36.5958C19.497 33.18 19.5132 29.7193 19.5135 29.6845C19.5147 29.3595 19.252 29.0949 18.927 29.0937C18.9261 29.0937 18.9255 29.0937 18.9245 29.0937C18.6004 29.0937 18.3371 29.3558 18.3359 29.6802C18.3359 29.7123 18.3209 32.9096 18.0649 36.1677C17.6196 41.8314 16.8478 42.6902 16.6879 42.8086C16.6144 42.7488 16.4139 42.5284 16.1581 41.785C16.148 41.7335 16.1316 41.684 16.109 41.6379C16.0095 41.3303 15.9027 40.9452 15.7925 40.4609C15.5026 39.1862 15.2432 37.4698 15.0213 35.3599C14.6417 31.7451 14.505 28.1959 14.5038 28.1605C14.4912 27.8355 14.2178 27.5803 13.8931 27.5944C13.5681 27.6066 13.3148 27.88 13.327 28.205C13.3285 28.2432 13.4762 32.0768 13.891 35.8613C14.136 38.0961 14.4259 39.8826 14.7525 41.1716C13.3716 40.9186 12.3587 40.5305 11.6739 39.9921C10.8648 39.3561 10.488 38.4968 10.488 37.2874C10.488 35.6959 11.2002 32.1888 12.5473 27.1455C12.6312 26.8311 12.4447 26.5085 12.1304 26.4246C11.8167 26.341 11.4938 26.5272 11.4096 26.8415C10.0168 32.0557 9.31059 35.5704 9.31059 37.2874C9.31059 38.8651 9.84556 40.0525 10.946 40.9177C11.8841 41.655 13.258 42.1506 15.1379 42.4286C15.4715 43.2947 15.9469 44 16.6809 44C17.3718 44 17.8201 43.4046 18.1247 42.6853C18.7414 42.7091 19.3966 42.721 20.1156 42.721C20.8346 42.721 21.4898 42.7091 22.1066 42.6853C22.4112 43.4046 22.8595 44 23.5504 44C24.2846 44 24.7598 43.2947 25.0937 42.4286C25.7791 42.327 26.3965 42.1961 26.9507 42.0356C27.2101 41.9816 39.8681 39.097 39.8712 25.4688Z"/>
</mask>
<path d="M39.8712 25.4688C39.8715 23.8953 39.7897 22.4613 39.628 21.2064C39.5868 20.8839 39.291 20.6565 38.9691 20.6977C38.6465 20.7392 38.4188 21.0343 38.46 21.3566C38.6154 22.562 38.6938 23.9454 38.6935 25.4685C38.6929 28.3854 38.0679 31.0059 36.8359 33.2578C35.8511 35.0583 34.4751 36.6343 32.7462 37.9416C31.9897 38.5139 31.2295 38.9844 30.516 39.3686C30.787 38.7668 30.9207 38.0759 30.9207 37.2874C30.9207 37.2089 30.9189 37.1259 30.9158 37.0408C31.8567 36.3938 32.7066 35.5701 33.4454 34.5862C33.6407 34.3262 33.5882 33.9573 33.3282 33.762C33.0682 33.5666 32.6992 33.6191 32.5039 33.8791C31.9873 34.567 31.4123 35.1658 30.7876 35.669C30.2282 31.5336 28.0618 24.0235 27.4283 21.8763C28.4607 21.4887 29.4516 20.6379 30.0717 19.4102L30.91 19.8658C31.1923 20.0187 31.5554 19.9113 31.7083 19.6293C31.8637 19.3436 31.7578 18.9863 31.4721 18.8309L30.4953 18.3002C30.6115 17.8724 30.686 17.4131 30.7107 16.9245L31.679 16.7591C31.9998 16.7045 32.2152 16.4005 32.1606 16.0798C32.1057 15.7593 31.8017 15.5442 31.481 15.5985L30.6271 15.7441C30.1928 13.3082 28.3328 10.2451 27.8643 9.50142C27.8796 9.10622 27.901 8.16658 27.814 7.19124C27.6407 5.24666 27.1237 4.21181 26.2338 4.02779C25.3601 3.84743 24.4812 4.54598 23.5467 6.16463C23.1537 6.84517 22.8396 7.53365 22.6635 7.9438H17.5677C17.3916 7.53365 17.0776 6.84517 16.6845 6.16463C15.7501 4.54598 14.8712 3.84713 13.9975 4.02779C13.1076 4.21181 12.5906 5.24666 12.4173 7.19124C12.3303 8.16628 12.3517 9.10622 12.3672 9.50142C11.8985 10.2451 10.0387 13.3082 9.60417 15.7441L8.75029 15.5985C8.42985 15.5439 8.12559 15.7593 8.07097 16.0798C8.01634 16.4005 8.23179 16.7045 8.55223 16.7591L9.52055 16.9245C9.54527 17.4131 9.62004 17.8724 9.736 18.3002L8.75914 18.8309C8.47349 18.9863 8.3679 19.3436 8.52293 19.6293C8.67613 19.9113 9.03898 20.019 9.32127 19.8658L10.1596 19.4102C10.78 20.6382 11.7709 21.489 12.8036 21.8763C12.6358 22.4464 12.3575 23.4034 12.0315 24.5682C11.9439 24.8814 12.1267 25.2064 12.4399 25.294C12.753 25.3818 13.078 25.1987 13.1656 24.8856C13.6941 22.9954 14.0967 21.6575 14.1006 21.6441C14.2001 21.3145 13.9853 20.9608 13.6474 20.8961C12.2439 20.6278 10.7782 19.1294 10.6921 16.7853C10.6567 15.8186 11.1157 14.3464 12.0196 12.5285C12.7234 11.1137 13.45 9.99336 13.4573 9.98238C13.526 9.87678 13.5589 9.75227 13.5516 9.62654C13.551 9.61525 13.486 8.46626 13.5901 7.29591C13.7378 5.64003 14.1064 5.2076 14.2361 5.18105C14.3649 5.15358 14.8718 5.38307 15.6592 6.74355C16.2195 7.71156 16.6223 8.73634 16.6263 8.74672C16.7141 8.97255 16.932 9.12117 17.1747 9.12117H23.0569C23.2995 9.12117 23.5171 8.97255 23.6053 8.74672C23.6093 8.73634 24.0072 7.72194 24.5663 6.75362C25.357 5.3846 25.8664 5.15419 25.9955 5.18105C26.1245 5.2076 26.492 5.6379 26.6403 7.28493C26.7456 8.45558 26.6806 9.61525 26.6797 9.62685C26.6726 9.75227 26.7056 9.87709 26.7743 9.98238C26.7816 9.99336 27.5082 11.1137 28.2119 12.5288C29.1159 14.3464 29.5749 15.8186 29.5392 16.7853C29.4534 19.1294 27.9873 20.6278 26.5838 20.8961C26.246 20.9608 26.0315 21.3148 26.1306 21.6444C26.167 21.7643 29.7433 33.6786 29.7433 37.2874C29.7433 38.4946 29.3679 39.3528 28.5623 39.9882C27.8772 40.5283 26.8628 40.918 25.4791 41.1716C25.8056 39.8826 26.0952 38.0958 26.3403 35.8613C26.7553 32.0768 26.9027 28.2432 26.9043 28.205C26.9165 27.88 26.6632 27.6066 26.3382 27.5944C26.0156 27.5806 25.74 27.8355 25.7275 28.1605C25.7263 28.1959 25.5896 31.7451 25.2099 35.3599C24.9881 37.4698 24.7287 39.1862 24.4388 40.4609C24.0194 42.3032 23.6493 42.7225 23.5434 42.8086C23.3835 42.6902 22.6123 41.8317 22.167 36.1735C21.9107 32.9154 21.8954 29.7123 21.8954 29.6802C21.8942 29.3558 21.6308 29.0937 21.3067 29.0937C21.3061 29.0937 21.3052 29.0937 21.3043 29.0937C20.9793 29.0949 20.7168 29.3595 20.7181 29.6845C20.7181 29.7193 20.7342 33.18 21.0202 36.5958C21.1892 38.6188 21.419 40.2369 21.7032 41.4054C21.7123 41.4432 21.7221 41.4814 21.7315 41.5201C21.2265 41.5357 20.6924 41.5436 20.1156 41.5436C19.5389 41.5436 19.0051 41.5357 18.4997 41.5201C18.5095 41.4814 18.519 41.4429 18.5281 41.4054C18.8122 40.2369 19.0423 38.6188 19.2114 36.5958C19.497 33.18 19.5132 29.7193 19.5135 29.6845C19.5147 29.3595 19.252 29.0949 18.927 29.0937C18.9261 29.0937 18.9255 29.0937 18.9245 29.0937C18.6004 29.0937 18.3371 29.3558 18.3359 29.6802C18.3359 29.7123 18.3209 32.9096 18.0649 36.1677C17.6196 41.8314 16.8478 42.6902 16.6879 42.8086C16.6144 42.7488 16.4139 42.5284 16.1581 41.785C16.148 41.7335 16.1316 41.684 16.109 41.6379C16.0095 41.3303 15.9027 40.9452 15.7925 40.4609C15.5026 39.1862 15.2432 37.4698 15.0213 35.3599C14.6417 31.7451 14.505 28.1959 14.5038 28.1605C14.4912 27.8355 14.2178 27.5803 13.8931 27.5944C13.5681 27.6066 13.3148 27.88 13.327 28.205C13.3285 28.2432 13.4762 32.0768 13.891 35.8613C14.136 38.0961 14.4259 39.8826 14.7525 41.1716C13.3716 40.9186 12.3587 40.5305 11.6739 39.9921C10.8648 39.3561 10.488 38.4968 10.488 37.2874C10.488 35.6959 11.2002 32.1888 12.5473 27.1455C12.6312 26.8311 12.4447 26.5085 12.1304 26.4246C11.8167 26.341 11.4938 26.5272 11.4096 26.8415C10.0168 32.0557 9.31059 35.5704 9.31059 37.2874C9.31059 38.8651 9.84556 40.0525 10.946 40.9177C11.8841 41.655 13.258 42.1506 15.1379 42.4286C15.4715 43.2947 15.9469 44 16.6809 44C17.3718 44 17.8201 43.4046 18.1247 42.6853C18.7414 42.7091 19.3966 42.721 20.1156 42.721C20.8346 42.721 21.4898 42.7091 22.1066 42.6853C22.4112 43.4046 22.8595 44 23.5504 44C24.2846 44 24.7598 43.2947 25.0937 42.4286C25.7791 42.327 26.3965 42.1961 26.9507 42.0356C27.2101 41.9816 39.8681 39.097 39.8712 25.4688Z" fill="#667085"/>
<path d="M39.8712 25.4688C39.8715 23.8953 39.7897 22.4613 39.628 21.2064C39.5868 20.8839 39.291 20.6565 38.9691 20.6977C38.6465 20.7392 38.4188 21.0343 38.46 21.3566C38.6154 22.562 38.6938 23.9454 38.6935 25.4685C38.6929 28.3854 38.0679 31.0059 36.8359 33.2578C35.8511 35.0583 34.4751 36.6343 32.7462 37.9416C31.9897 38.5139 31.2295 38.9844 30.516 39.3686C30.787 38.7668 30.9207 38.0759 30.9207 37.2874C30.9207 37.2089 30.9189 37.1259 30.9158 37.0408C31.8567 36.3938 32.7066 35.5701 33.4454 34.5862C33.6407 34.3262 33.5882 33.9573 33.3282 33.762C33.0682 33.5666 32.6992 33.6191 32.5039 33.8791C31.9873 34.567 31.4123 35.1658 30.7876 35.669C30.2282 31.5336 28.0618 24.0235 27.4283 21.8763C28.4607 21.4887 29.4516 20.6379 30.0717 19.4102L30.91 19.8658C31.1923 20.0187 31.5554 19.9113 31.7083 19.6293C31.8637 19.3436 31.7578 18.9863 31.4721 18.8309L30.4953 18.3002C30.6115 17.8724 30.686 17.4131 30.7107 16.9245L31.679 16.7591C31.9998 16.7045 32.2152 16.4005 32.1606 16.0798C32.1057 15.7593 31.8017 15.5442 31.481 15.5985L30.6271 15.7441C30.1928 13.3082 28.3328 10.2451 27.8643 9.50142C27.8796 9.10622 27.901 8.16658 27.814 7.19124C27.6407 5.24666 27.1237 4.21181 26.2338 4.02779C25.3601 3.84743 24.4812 4.54598 23.5467 6.16463C23.1537 6.84517 22.8396 7.53365 22.6635 7.9438H17.5677C17.3916 7.53365 17.0776 6.84517 16.6845 6.16463C15.7501 4.54598 14.8712 3.84713 13.9975 4.02779C13.1076 4.21181 12.5906 5.24666 12.4173 7.19124C12.3303 8.16628 12.3517 9.10622 12.3672 9.50142C11.8985 10.2451 10.0387 13.3082 9.60417 15.7441L8.75029 15.5985C8.42985 15.5439 8.12559 15.7593 8.07097 16.0798C8.01634 16.4005 8.23179 16.7045 8.55223 16.7591L9.52055 16.9245C9.54527 17.4131 9.62004 17.8724 9.736 18.3002L8.75914 18.8309C8.47349 18.9863 8.3679 19.3436 8.52293 19.6293C8.67613 19.9113 9.03898 20.019 9.32127 19.8658L10.1596 19.4102C10.78 20.6382 11.7709 21.489 12.8036 21.8763C12.6358 22.4464 12.3575 23.4034 12.0315 24.5682C11.9439 24.8814 12.1267 25.2064 12.4399 25.294C12.753 25.3818 13.078 25.1987 13.1656 24.8856C13.6941 22.9954 14.0967 21.6575 14.1006 21.6441C14.2001 21.3145 13.9853 20.9608 13.6474 20.8961C12.2439 20.6278 10.7782 19.1294 10.6921 16.7853C10.6567 15.8186 11.1157 14.3464 12.0196 12.5285C12.7234 11.1137 13.45 9.99336 13.4573 9.98238C13.526 9.87678 13.5589 9.75227 13.5516 9.62654C13.551 9.61525 13.486 8.46626 13.5901 7.29591C13.7378 5.64003 14.1064 5.2076 14.2361 5.18105C14.3649 5.15358 14.8718 5.38307 15.6592 6.74355C16.2195 7.71156 16.6223 8.73634 16.6263 8.74672C16.7141 8.97255 16.932 9.12117 17.1747 9.12117H23.0569C23.2995 9.12117 23.5171 8.97255 23.6053 8.74672C23.6093 8.73634 24.0072 7.72194 24.5663 6.75362C25.357 5.3846 25.8664 5.15419 25.9955 5.18105C26.1245 5.2076 26.492 5.6379 26.6403 7.28493C26.7456 8.45558 26.6806 9.61525 26.6797 9.62685C26.6726 9.75227 26.7056 9.87709 26.7743 9.98238C26.7816 9.99336 27.5082 11.1137 28.2119 12.5288C29.1159 14.3464 29.5749 15.8186 29.5392 16.7853C29.4534 19.1294 27.9873 20.6278 26.5838 20.8961C26.246 20.9608 26.0315 21.3148 26.1306 21.6444C26.167 21.7643 29.7433 33.6786 29.7433 37.2874C29.7433 38.4946 29.3679 39.3528 28.5623 39.9882C27.8772 40.5283 26.8628 40.918 25.4791 41.1716C25.8056 39.8826 26.0952 38.0958 26.3403 35.8613C26.7553 32.0768 26.9027 28.2432 26.9043 28.205C26.9165 27.88 26.6632 27.6066 26.3382 27.5944C26.0156 27.5806 25.74 27.8355 25.7275 28.1605C25.7263 28.1959 25.5896 31.7451 25.2099 35.3599C24.9881 37.4698 24.7287 39.1862 24.4388 40.4609C24.0194 42.3032 23.6493 42.7225 23.5434 42.8086C23.3835 42.6902 22.6123 41.8317 22.167 36.1735C21.9107 32.9154 21.8954 29.7123 21.8954 29.6802C21.8942 29.3558 21.6308 29.0937 21.3067 29.0937C21.3061 29.0937 21.3052 29.0937 21.3043 29.0937C20.9793 29.0949 20.7168 29.3595 20.7181 29.6845C20.7181 29.7193 20.7342 33.18 21.0202 36.5958C21.1892 38.6188 21.419 40.2369 21.7032 41.4054C21.7123 41.4432 21.7221 41.4814 21.7315 41.5201C21.2265 41.5357 20.6924 41.5436 20.1156 41.5436C19.5389 41.5436 19.0051 41.5357 18.4997 41.5201C18.5095 41.4814 18.519 41.4429 18.5281 41.4054C18.8122 40.2369 19.0423 38.6188 19.2114 36.5958C19.497 33.18 19.5132 29.7193 19.5135 29.6845C19.5147 29.3595 19.252 29.0949 18.927 29.0937C18.9261 29.0937 18.9255 29.0937 18.9245 29.0937C18.6004 29.0937 18.3371 29.3558 18.3359 29.6802C18.3359 29.7123 18.3209 32.9096 18.0649 36.1677C17.6196 41.8314 16.8478 42.6902 16.6879 42.8086C16.6144 42.7488 16.4139 42.5284 16.1581 41.785C16.148 41.7335 16.1316 41.684 16.109 41.6379C16.0095 41.3303 15.9027 40.9452 15.7925 40.4609C15.5026 39.1862 15.2432 37.4698 15.0213 35.3599C14.6417 31.7451 14.505 28.1959 14.5038 28.1605C14.4912 27.8355 14.2178 27.5803 13.8931 27.5944C13.5681 27.6066 13.3148 27.88 13.327 28.205C13.3285 28.2432 13.4762 32.0768 13.891 35.8613C14.136 38.0961 14.4259 39.8826 14.7525 41.1716C13.3716 40.9186 12.3587 40.5305 11.6739 39.9921C10.8648 39.3561 10.488 38.4968 10.488 37.2874C10.488 35.6959 11.2002 32.1888 12.5473 27.1455C12.6312 26.8311 12.4447 26.5085 12.1304 26.4246C11.8167 26.341 11.4938 26.5272 11.4096 26.8415C10.0168 32.0557 9.31059 35.5704 9.31059 37.2874C9.31059 38.8651 9.84556 40.0525 10.946 40.9177C11.8841 41.655 13.258 42.1506 15.1379 42.4286C15.4715 43.2947 15.9469 44 16.6809 44C17.3718 44 17.8201 43.4046 18.1247 42.6853C18.7414 42.7091 19.3966 42.721 20.1156 42.721C20.8346 42.721 21.4898 42.7091 22.1066 42.6853C22.4112 43.4046 22.8595 44 23.5504 44C24.2846 44 24.7598 43.2947 25.0937 42.4286C25.7791 42.327 26.3965 42.1961 26.9507 42.0356C27.2101 41.9816 39.8681 39.097 39.8712 25.4688Z" stroke="#667085" stroke-width="0.2" mask="url(#path-5-outside-1_87_6652)"/>
</g>
<defs>
<clipPath id="clip0_87_6652">
<rect width="40" height="40" fill="white" transform="translate(4 4)"/>
</clipPath>
</defs>
</svg>
