<svg width="48" height="48" viewBox="0 0 48 48" fill="none" xmlns="http://www.w3.org/2000/svg">
<g clip-path="url(#clip0_87_6654)">
<path d="M42.506 34.2259C42.217 33.3126 41.7752 31.7909 41.4177 30.0074L41.4177 30.0074C41.3485 29.6612 41.5725 29.3242 41.9188 29.2549C42.2653 29.1847 42.6022 29.4099 42.6717 29.7561L42.6246 29.7656L42.6717 29.7561C43.2194 32.4882 43.9926 34.6449 44.0125 34.7006L44.0128 34.7013C44.1609 35.1094 43.8474 35.5694 43.4059 35.5587C41.1733 35.5401 39.7142 34.8593 38.6778 33.91C37.6441 32.9632 37.0343 31.752 36.495 30.6808L36.4938 30.6783C36.0734 29.8436 35.7318 29.1979 35.3329 28.7599C34.9372 28.3255 34.486 28.0966 33.8419 28.0966C33.2459 28.0966 32.7393 28.3584 32.2457 28.7943C31.7509 29.2311 31.2741 29.8383 30.737 30.5225C30.1273 31.2993 29.4446 32.1689 28.58 32.9753V37.1536C28.58 37.6798 28.3511 38.1867 27.955 38.5331C27.5042 38.9275 26.8811 39.0785 26.3004 38.9278C24.2826 38.4046 22.4479 36.9881 21.2088 35.825C21.0903 35.8278 20.9707 35.8294 20.8491 35.8294C20.2772 35.8297 19.6731 35.7994 19.0322 35.7349C13.3159 35.1599 9.53475 32.2986 7.36998 29.9998L7.40638 29.9655L7.36998 29.9998C5.02677 27.5113 4.04095 25.1769 3.99899 25.0756M42.506 34.2259L4.04518 25.0565M42.506 34.2259C41.0332 34.0554 40.0566 33.4993 39.3315 32.7573C38.5921 32.0005 38.1123 31.0487 37.6362 30.1033L37.6342 30.0991C37.2321 29.301 36.8193 28.4813 36.2415 27.8619C35.6604 27.2389 34.9119 26.8177 33.8419 26.8177C32.928 26.8177 32.1914 27.1756 31.5381 27.7187C30.8871 28.2598 30.3161 28.9872 29.7332 29.7298L29.7309 29.7326L29.7638 29.7585L29.7309 29.7326C28.7881 30.9341 27.7355 32.2745 26.1244 33.2363C24.5148 34.1971 22.3433 34.7824 19.1603 34.4623C17.4937 34.2945 15.922 33.9185 14.4502 33.3383C14.8456 32.8114 15.2049 32.2576 15.5226 31.6832C15.6935 31.3743 15.5816 30.985 15.2727 30.8141L15.2727 30.8141C14.9635 30.6433 14.5745 30.7552 14.4034 31.064L14.4033 31.0641C14.0663 31.6734 13.6774 32.2576 13.2454 32.8073C11.4379 31.9213 9.79596 30.7026 8.33258 29.1566C6.56333 27.2869 5.60476 25.4773 5.29389 24.8322C5.64625 24.1013 6.79364 21.8937 8.78821 19.6281C9.99954 18.2522 11.3168 17.0857 12.7122 16.1503C14.8462 18.5327 16.016 21.5821 16.016 24.7968C16.016 26.2403 15.7804 27.6575 15.3162 29.0097C15.2072 29.3269 15.3696 29.6829 15.6797 29.8095L15.6986 29.7632L15.6797 29.8095C16.0161 29.9467 16.4083 29.7678 16.5259 29.4251C16.8178 28.5749 17.0268 27.7012 17.1527 26.8125C17.7676 27.1862 18.4355 27.544 19.0984 27.8114C19.7844 28.0881 20.468 28.2693 21.0837 28.2693C21.1965 28.2693 21.3075 28.2634 21.4155 28.2507C22.4591 28.1274 23.1019 27.4767 23.4778 26.7099C23.8527 25.9451 23.9648 25.061 23.9487 24.4544C23.9648 23.8479 23.8527 22.9638 23.4778 22.1991C23.1019 21.4322 22.4591 20.7815 21.4155 20.6584C20.7579 20.5807 20.0014 20.7484 19.2365 21.0425C18.4934 21.3282 17.738 21.735 17.0507 22.159C16.5895 19.6896 15.4834 17.3887 13.8163 15.468C15.7704 14.3602 17.8671 13.6872 20.0557 13.4671C22.8542 13.1861 25.034 13.7 26.7273 15.032C28.2084 16.1971 29.1245 17.8248 29.9372 19.2701L29.9389 19.2731C30.4504 20.1828 30.9514 21.074 31.5592 21.7372C32.1692 22.4029 32.8905 22.843 33.8419 22.843C34.9119 22.843 35.6604 22.4218 36.2415 21.7988C36.8193 21.1792 37.2322 20.3593 37.6342 19.5609L37.6359 19.5574C38.112 18.6121 38.5917 17.6604 39.331 16.9037C40.0559 16.1617 41.0324 15.6056 42.505 15.4351C41.9514 17.1777 40.8439 21.1268 40.8439 24.8304C40.8439 25.6532 40.8999 26.5444 41.0106 27.4794C41.052 27.8303 41.3698 28.0802 41.7206 28.0395L41.7207 28.0395C42.0716 27.9978 42.3222 27.68 42.2808 27.3291C42.176 26.4433 42.1228 25.6026 42.1228 24.8304C42.1228 20.2299 43.9915 15.0183 44.0128 14.9591M42.506 34.2259L30.2938 17.3316M3.99899 25.0756L4.04518 25.0565M3.99899 25.0756C3.999 25.0756 3.99901 25.0757 3.99902 25.0757L4.04518 25.0565M3.99899 25.0756C3.93246 24.9157 3.93382 24.736 4.0023 24.5768L4.00234 24.5767C4.05318 24.4592 5.25102 21.7193 7.80276 18.8117L7.84034 18.8446M4.04518 25.0565C3.98384 24.9091 3.98506 24.7434 4.04823 24.5966C4.09798 24.4815 5.29335 21.7469 7.84034 18.8446M7.84034 18.8446L7.80276 18.8117C9.16057 17.2647 10.6493 15.9628 12.2345 14.9337M7.84034 18.8446L12.2345 14.9337M12.2345 14.9337C12.376 14.1868 12.83 12.4852 14.154 11.1968L14.1883 11.2321L14.154 11.1968C14.726 10.6403 15.997 10.0296 17.6371 9.61303C19.2797 9.19585 21.3003 8.97138 23.3776 9.19349L23.3776 9.1935C23.7288 9.23123 23.9831 9.54638 23.9453 9.89766M12.2345 14.9337L12.2797 14.964C12.4158 14.2322 12.8632 12.5226 14.1889 11.2326C15.3138 10.1383 19.231 8.8004 23.3722 9.24321C23.696 9.278 23.9304 9.56853 23.8956 9.89232C23.8611 10.2158 23.5703 10.4502 23.2468 10.4157C19.3857 10.0028 15.8329 11.2781 15.011 12.0777C14.3911 12.6811 14.0027 13.4175 13.7628 14.0427C13.7852 14.0311 13.8076 14.0195 13.83 14.008M23.9453 9.89766L23.8957 9.89232L23.9453 9.89762C23.9453 9.89763 23.9453 9.89765 23.9453 9.89766ZM23.9453 9.89766C23.9079 10.2486 23.5924 10.5028 23.2415 10.4654L23.2415 10.4654C21.3177 10.2597 19.4702 10.4745 18.0013 10.8405C17.2669 11.0235 16.6279 11.2441 16.1219 11.4683C15.6147 11.6931 15.245 11.9198 15.0459 12.1135M15.0459 12.1135C15.0459 12.1135 15.0459 12.1135 15.0459 12.1135L15.0119 12.0786L15.0459 12.1135ZM15.0459 12.1135C14.4501 12.6935 14.0696 13.3987 13.83 14.008M13.83 14.008C15.7538 13.0185 17.7994 12.4085 19.9276 12.1946C22.595 11.9264 24.5918 12.345 26.1358 13.1355C27.6592 13.9155 28.7379 15.0555 29.5841 16.2462M13.83 14.008C13.8207 14.0316 13.8116 14.055 13.8028 14.0783C15.7357 13.0764 17.7922 12.4594 19.9326 12.2443C25.2211 11.7127 27.8499 13.8897 29.5476 16.2811C29.5599 16.2695 29.5721 16.2578 29.5841 16.2462M29.5841 16.2462C29.5939 16.2599 29.6036 16.2737 29.6133 16.2875L30.2722 17.2961C30.2794 17.3079 30.2866 17.3197 30.2938 17.3316M29.5841 16.2462C30.1639 15.6861 30.4491 15.1558 30.4502 14.6645C30.4517 14.0897 30.0553 13.4734 29.2452 12.8341C28.131 11.955 26.8518 11.3021 25.443 10.894C25.1037 10.7957 24.9083 10.4411 25.0067 10.1018C25.105 9.76247 25.4595 9.56714 25.7989 9.66546C27.3668 10.1198 28.7929 10.8481 30.0374 11.83L30.0075 11.8679L30.0374 11.83C31.1562 12.7127 31.7319 13.6672 31.7294 14.6678C31.727 15.583 31.2393 16.4771 30.2938 17.3316M30.2938 17.3316C30.5651 17.7778 30.8132 18.2188 31.0485 18.6371L31.0519 18.6431L31.0085 18.6675L31.0519 18.6431C31.5661 19.5576 31.9921 20.2895 32.4281 20.7932C32.863 21.2955 33.3019 21.5641 33.8419 21.5641C34.486 21.5641 34.9372 21.3351 35.3329 20.9006C35.7318 20.4626 36.0734 19.8168 36.4938 18.9821L36.495 18.9796C37.0343 17.9084 37.6441 16.6972 38.6778 15.7504C39.7142 14.801 41.1733 14.1203 43.4059 14.1017C43.8473 14.0916 44.1607 14.5519 44.0128 14.9591M44.0128 14.9591L43.9661 14.9422L44.0128 14.959C44.0128 14.959 44.0128 14.9591 44.0128 14.9591ZM22.6698 24.4344L22.6698 24.4344C22.6696 24.4406 22.6696 24.4472 22.6696 24.4537C22.6695 24.4603 22.6696 24.467 22.6698 24.4731C22.6701 24.4862 22.6814 25.0743 22.5087 25.6801C22.3349 26.2898 21.9818 26.8959 21.2656 26.9804C20.8524 27.0291 20.2835 26.9106 19.5984 26.6353C18.9209 26.363 18.1351 25.9396 17.2829 25.3821C17.2908 25.1876 17.2949 24.9925 17.2949 24.7968C17.2949 24.3799 17.276 23.9657 17.2406 23.5547C18.1019 22.9877 18.896 22.5572 19.5805 22.2802C20.2731 22 20.848 21.8793 21.2656 21.9287C21.9818 22.0131 22.3349 22.6193 22.5087 23.2289C22.5951 23.532 22.6356 23.8309 22.6543 24.0558C22.6636 24.1682 22.6675 24.2618 22.6691 24.3279C22.6699 24.361 22.6701 24.3871 22.67 24.4053L22.6699 24.4264L22.6698 24.4321L22.6698 24.4338L22.6698 24.4342L22.6698 24.4344ZM26.6215 37.69L26.6215 37.69C25.2849 37.3432 24.009 36.5189 22.9755 35.6747C24.7756 35.3992 26.172 34.7791 27.3011 34.0054V37.1539C27.3011 37.504 26.9619 37.7784 26.6215 37.69Z" fill="#667085" stroke="#667085" stroke-width="0.1"/>
<path d="M9.63359 23.972C9.63359 24.8224 10.1722 25.5082 10.8802 25.5082C11.5885 25.5082 12.1268 24.8224 12.1268 23.972C12.1268 23.1217 11.5885 22.4358 10.8802 22.4358C10.1722 22.4358 9.63359 23.1217 9.63359 23.972Z" fill="#667085" stroke="#667085" stroke-width="0.1"/>
</g>
<defs>
<clipPath id="clip0_87_6654">
<rect width="40" height="40" fill="white" transform="translate(4 4)"/>
</clipPath>
</defs>
</svg>
