<svg width="48" height="48" viewBox="0 0 48 48" fill="none" xmlns="http://www.w3.org/2000/svg">
<g clip-path="url(#clip0_87_6658)">
<path d="M42.4695 27.3929L42.4696 27.3929C42.8007 27.275 43.1653 27.4471 43.2836 27.7787C43.8925 29.4842 44.1409 31.1173 44.0203 32.6322C43.9898 33.0168 43.6111 33.2924 43.235 33.2008L37.8939 31.9048C37.9967 32.2304 38.0852 32.6108 38.1327 33.0381L38.0849 33.0434L38.1327 33.0381C38.2809 34.3779 38.0414 36.4632 36.0751 38.8076L36.0368 38.7754L36.0751 38.8076C35.9542 38.9516 35.7757 39.0351 35.5872 39.0351H26.3535C26.0011 39.0351 25.7094 38.7371 25.7167 38.385V38.385C25.7179 38.33 25.7398 37.7613 26.1368 37.121C26.529 36.4886 27.284 35.7912 28.7331 35.448C28.6386 35.2778 28.5471 35.0852 28.4677 34.8706C28.4676 34.8705 28.4676 34.8704 28.4676 34.8703L42.4695 27.3929ZM42.4695 27.3929C42.1384 27.5111 41.9655 27.8757 42.0837 28.2069L42.1195 28.1941L42.0837 28.2069C42.5311 29.4598 42.7624 30.6574 42.7755 31.7784M42.4695 27.3929L42.7755 31.7784M42.7755 31.7784L36.9905 30.3744L28.0473 25.6888C27.7357 25.5256 27.3508 25.6455 27.1872 25.9574L27.1872 25.9574C27.0243 26.2691 27.1445 26.6539 27.4561 26.8171L36.3213 31.4622C36.4881 31.7393 36.872 32.492 36.8984 33.5788C36.925 34.6761 36.5873 36.1187 35.2848 37.7611H27.2457C27.5657 37.2854 28.2914 36.6929 29.9417 36.5431C30.1971 36.5199 30.4137 36.3457 30.4912 36.1017L30.4912 36.1016C30.5686 35.8573 30.4925 35.5901 30.2974 35.4238L30.2971 35.4235L30.2971 35.4235C30.2967 35.4231 30.29 35.4174 30.2781 35.406C30.2659 35.3944 30.2484 35.3773 30.2269 35.3547C30.1838 35.3095 30.1244 35.2426 30.0578 35.1545C29.9247 34.9783 29.7633 34.718 29.647 34.3785C29.415 33.7015 29.36 32.7038 30.0779 31.4219L30.0343 31.3975L30.0779 31.4219C30.2498 31.1149 30.1401 30.7268 29.8332 30.5549C29.5262 30.383 29.138 30.4927 28.9662 30.7993L28.9662 30.7993C28.3895 31.8294 28.2046 32.7382 28.2145 33.4916C27.2351 33.4848 26.1368 33.4261 24.9387 33.3167C21.5636 33.0078 18.498 32.3936 18.4686 32.3874L18.4682 32.3873C18.1546 32.324 17.8439 32.5026 17.74 32.8042L17.7872 32.8205L17.74 32.8042L16.0322 37.7611H12.1062C12.5544 37.3869 13.2878 36.9414 14.1477 36.5887C14.3275 36.5152 14.464 36.3635 14.518 36.1768L42.7755 31.7784ZM26.4329 25.5619L26.4329 25.562C26.2715 25.8696 25.8812 25.992 25.5729 25.8305L25.5961 25.7862L26.4329 25.5619ZM26.4329 25.5619C26.5959 25.2503 26.4757 24.8655 26.164 24.7022L21.098 22.0477M26.4329 25.5619L21.098 22.0477M21.098 22.0477C21.7099 21.2904 21.8628 20.349 21.6843 19.5521C21.4218 18.3793 20.3668 17.2299 18.6001 17.3L18.6 17.3C17.8453 17.3307 17.2204 17.6143 16.746 18.1439C16.4126 18.5157 16.2002 18.9675 16.0645 19.4104L14.84 18.7689C14.8005 17.8392 14.8665 15.1046 16.7723 13.0464L16.7723 13.0464C17.0114 12.7881 16.9958 12.3851 16.7379 12.146L16.7378 12.146C16.4795 11.9072 16.0765 11.9228 15.8374 12.1807L15.8374 12.1808C13.4423 14.7673 13.5135 18.1506 13.5782 19.0324C13.0876 19.9121 12.3679 21.0118 11.6164 21.9023C11.2387 22.3499 10.8541 22.7433 10.4876 23.0294L21.098 22.0477ZM14.518 36.1767L15.5086 32.7653C15.5613 32.5847 15.5311 32.39 15.4268 32.2337L15.4268 32.2336C15.3222 32.0774 15.1543 31.975 14.9674 31.9545C13.6546 31.8086 11.8869 31.0996 10.2548 30.2035C8.62281 29.3075 7.13547 28.2297 6.38074 27.3524L6.34595 27.3824L6.38074 27.3524C6.12065 27.0502 5.96016 26.725 5.89641 26.3795C6.7529 26.2882 7.42725 25.5802 7.46576 24.7091C8.13478 24.8007 8.8487 24.8265 9.56105 24.7808L14.518 36.1767ZM15.8877 21.3139L15.8877 21.3139L15.8877 21.3139Z" fill="#667085" stroke="#667085" stroke-width="0.1"/>
<path d="M18.4598 11.7258L18.4598 11.7258C18.1532 11.898 17.7647 11.7894 17.5924 11.4824L18.4598 11.7258ZM18.4598 11.7258C19.258 11.2768 20.194 10.9436 21.2422 10.7361L21.2422 10.7361M18.4598 11.7258L21.2422 10.7361M21.2422 10.7361C25.1114 9.96966 28.0893 10.5807 29.905 11.2279L29.905 11.2279M21.2422 10.7361L29.905 11.2279M29.905 11.2279C30.9779 11.6101 31.7844 12.0501 32.2977 12.3724M29.905 11.2279L32.2977 12.3724M32.2977 12.3724L30.2653 13.9507C30.2653 13.9507 30.2653 13.9508 30.2653 13.9508C30.0407 14.125 29.9593 14.427 30.0649 14.6909L30.0649 14.6909C30.1709 14.9549 30.4385 15.1165 30.7223 15.087L30.7171 15.0374L30.7219 15.0871L30.722 15.0871C30.7472 15.0846 31.9323 14.9704 33.5735 15.1443C35.192 15.3159 37.2507 15.7673 39.078 16.8797L36.5535 17.9361C36.2995 18.0424 36.1429 18.2998 36.1644 18.5739C36.1859 18.8481 36.3813 19.0776 36.6488 19.1426C36.6804 19.1503 39.741 19.9199 42.0534 22.4251H39.9542C39.7081 22.4251 39.4839 22.5671 39.3786 22.7897C39.2733 23.0122 39.3057 23.2758 39.4617 23.4662L39.4618 23.4663L39.462 23.4666L39.4626 23.4673L39.4648 23.47L39.4728 23.48L39.5028 23.5178C39.5288 23.5508 39.5664 23.5993 39.614 23.6622C39.7092 23.7881 39.8443 23.9718 40.0052 24.2053C40.3272 24.6723 40.753 25.3382 41.1721 26.1387C41.1721 26.1387 41.1721 26.1387 41.1721 26.1387L41.2164 26.1155C41.321 26.3157 41.5252 26.4304 41.7367 26.4304C41.8286 26.4304 41.9216 26.4088 42.0086 26.3633C42.2958 26.2129 42.4066 25.8582 42.2564 25.5711C41.8625 24.8186 41.4665 24.1814 41.1424 23.6991H41.2026L32.2977 12.3724ZM40.7898 16.5171C38.0562 14.375 34.6595 13.8689 32.5584 13.7827M40.7898 16.5171L40.7589 16.5565L40.7897 16.5171C40.7897 16.5171 40.7897 16.5171 40.7898 16.5171ZM40.7898 16.5171C40.9676 16.6563 41.0583 16.8798 41.0282 17.1036C40.9981 17.3275 40.8514 17.5189 40.6427 17.606L32.5584 13.7827M32.5584 13.7827L33.7586 12.8508L33.7297 12.8136L33.7586 12.8508C33.91 12.7333 34.0001 12.5541 34.0047 12.3627C34.0093 12.1713 33.9275 11.9881 33.7818 11.8636C33.7283 11.8176 32.5584 10.8314 30.3926 10.0492C26.8082 8.75467 23.3027 9.02902 20.9945 9.48624L20.9945 9.48624C19.8155 9.71997 18.7526 10.0994 17.8355 10.6151L17.8355 10.6151C17.5289 10.7876 17.4199 11.1757 17.5924 11.4824L32.5584 13.7827ZM43.9065 22.6959C42.29 20.3963 40.0614 19.1209 38.5665 18.475L40.6427 17.606L43.9065 22.6959Z" fill="#667085" stroke="#667085" stroke-width="0.1"/>
<path d="M11.9012 25.7092C11.9012 26.5563 12.4374 27.239 13.1426 27.239C13.8478 27.239 14.384 26.556 14.384 25.7092C14.384 24.8625 13.8478 24.1797 13.1426 24.1797C12.4374 24.1797 11.9012 24.8628 11.9012 25.7092Z" fill="#667085" stroke="#667085" stroke-width="0.1"/>
</g>
<defs>
<clipPath id="clip0_87_6658">
<rect width="40" height="40" fill="white" transform="translate(4 4)"/>
</clipPath>
</defs>
</svg>
