<svg width="48" height="48" viewBox="0 0 48 48" fill="none" xmlns="http://www.w3.org/2000/svg">
<g clip-path="url(#clip0_87_6784)">
<path d="M40.1704 7.70139C39.9625 7.45145 39.9961 7.07975 40.2457 6.87132C40.4957 6.66288 40.8671 6.69614 41.0758 6.94547L40.1704 7.70139ZM40.1704 7.70139C40.1854 7.71947 41.2488 9.0148 41.6611 10.5653L40.1704 7.70139ZM43.2328 11.7781L43.2328 11.7781C43.6988 12.3874 44.2087 13.442 44.0032 15.0107C43.785 16.6754 42.903 17.8341 42.0962 18.5675C42.5704 19.4627 42.9682 20.4318 43.2755 21.4581L43.2306 21.4716L43.2755 21.4581C44.4322 25.3227 44.2099 29.6813 42.6514 33.7313L42.6047 33.7133L42.6514 33.7313C42.5195 34.074 42.1131 34.2366 41.7808 34.0796C41.4815 33.9384 41.3387 33.58 41.4573 33.2718C44.6163 25.0631 41.4681 17.2342 36.76 14.686L36.7837 14.6421L36.76 14.686C35.7571 14.1431 34.5819 13.735 33.267 13.4737C33.267 13.4737 33.267 13.4737 33.267 13.4737L33.2767 13.4247C32.9572 13.3612 32.7497 13.0508 32.8132 12.7316C32.8764 12.4121 33.1867 12.2046 33.5062 12.268C34.9415 12.5531 36.2333 13.0029 37.3453 13.6047L43.2328 11.7781ZM43.2328 11.7781C43.174 11.7012 43.1123 11.6269 43.0478 11.5549C43.0086 10.3594 42.5481 9.22744 42.0875 8.38197C41.6243 7.53161 41.1589 6.96708 41.1142 6.91346L41.1141 6.91338C40.8877 6.64289 40.4848 6.60683 40.2137 6.83292L40.2137 6.83294C39.9429 7.05906 39.9065 7.46224 40.1319 7.73336L40.1319 7.7334C40.146 7.75031 41.1866 9.01825 41.6028 10.5412C41.3878 10.4544 41.1653 10.3869 40.9388 10.3416L40.9388 10.3416C39.5782 10.0694 38.4033 10.6364 38.1031 11.7432L38.1513 11.7563L38.1031 11.7432C37.8701 12.6023 38.0808 13.4373 38.6835 14.031L38.6836 14.031C39.3358 14.673 40.3278 14.9233 41.2123 14.6687L41.2123 14.6687C41.837 14.4887 42.3373 14.0749 42.6532 13.4966C42.7693 13.9369 42.7925 14.4044 42.7346 14.8445L42.7346 14.8446C42.6053 15.8319 42.1672 16.7004 41.4307 17.4353M43.2328 11.7781L41.4307 17.4353M41.4307 17.4353C40.3349 15.7552 38.9442 14.4136 37.3691 13.5607L37.3691 13.5607C36.252 12.9562 34.9554 12.5049 33.516 12.219C33.1694 12.1501 32.8327 12.3753 32.7641 12.7219M41.4307 17.4353L32.7641 12.7219M32.7641 12.7219C32.7641 12.7219 32.7641 12.7219 32.7641 12.7219L32.813 12.7316L32.7641 12.7219ZM41.619 10.6019C41.396 10.5092 41.1646 10.4378 40.929 10.3906L41.619 10.6019ZM40.8584 13.4392L40.8584 13.4392C40.4251 13.5639 39.8985 13.432 39.5814 13.1196L39.5813 13.1196C39.3925 12.9336 39.1952 12.6037 39.3379 12.0782L39.3379 12.0782C39.411 11.8087 39.6229 11.6643 39.8841 11.5986C40.1463 11.5326 40.4505 11.5486 40.6876 11.5959C41.1138 11.6814 41.4666 11.8491 41.7533 12.0733C41.7395 12.2044 41.7179 12.3352 41.6872 12.4647C41.5634 12.9867 41.2754 13.3192 40.8584 13.4392Z" fill="#667085" stroke="#667085" stroke-width="0.1"/>
<path d="M30.9916 13.175C31.3439 13.2005 31.6501 12.9349 31.6753 12.5824C31.7004 12.2301 31.4353 11.9239 31.0827 11.8988C26.6188 11.5798 22.2695 12.5896 20.7393 12.9969C19.8664 10.9516 18.5784 9.95965 17.6113 9.48313C16.4482 8.9099 15.4768 8.93649 15.4316 8.93784L15.4314 8.93785C15.087 8.94977 14.8142 9.23252 14.8142 9.57711V14.371C12.7842 15.1452 11.5007 16.995 10.4635 18.4898L10.4592 18.4961L10.5002 18.5246L10.4592 18.4961C9.94541 19.2367 9.46591 19.9272 9.01838 20.3055C8.32694 20.89 7.19941 21.3416 6.23498 21.6483C5.27242 21.9544 4.48043 22.1137 4.46593 22.1165L4.46576 22.1166C4.16618 22.1758 3.95 22.4387 3.95 22.7442V28.8535C3.95 29.1011 4.09269 29.3263 4.3168 29.4319C5.15108 29.8256 6.24767 30.3694 7.57617 31.0486L7.59893 31.0041L7.57618 31.0486C7.88732 31.2077 8.27816 31.0811 8.43691 30.7705L8.39687 30.75L8.43691 30.7705C8.59779 30.4557 8.47301 30.0703 8.15847 29.9098C7.00391 29.3195 6.02107 28.8293 5.2292 28.4494V23.2567C5.73682 23.1348 6.55562 22.9158 7.40815 22.5956C8.28168 22.2676 9.19479 21.8318 9.84435 21.2828L9.81207 21.2446L19.7992 13.9671L19.7521 13.9838C19.8667 14.3056 20.214 14.4808 20.541 14.3811L20.5411 14.3811C20.5918 14.3656 25.7959 12.8033 30.9916 13.175ZM30.9916 13.175L30.9952 13.1251L30.9916 13.175C30.9916 13.175 30.9916 13.175 30.9916 13.175ZM15.4331 8.98782C15.1157 8.99881 14.8642 9.25943 14.8642 9.57711V14.4056L15.4331 8.98782Z" fill="#667085" stroke="#667085" stroke-width="0.1"/>
<path d="M32.5005 34.5731L32.5005 34.5731L33.2216 39.2151C33.3024 39.7346 33.7422 40.1112 34.2678 40.1112H36.7617C37.075 40.1112 37.3708 39.9737 37.5731 39.7338C38.7448 38.3436 39.7357 36.8712 40.5182 35.3583C40.6804 35.0445 41.0664 34.9213 41.3803 35.0839C41.6941 35.2461 41.8169 35.6318 41.6544 35.9456C41.6544 35.9456 41.6544 35.9456 41.6544 35.9456L41.61 35.9226C40.7857 37.5172 39.7435 39.066 38.5128 40.5259C38.0767 41.0438 37.4383 41.3404 36.762 41.3404H34.2681C33.1322 41.3404 32.1813 40.5259 32.007 39.4038L32.5005 34.5731ZM32.5005 34.5731C32.4505 34.2522 32.1659 34.0196 31.8437 34.0322M32.5005 34.5731L31.8437 34.0322M31.3229 35.3284C29.7551 35.3721 25.2214 35.4612 21.1215 35.1791L20.8158 39.2284L20.7659 39.2246L20.8158 39.2284C20.7241 40.441 19.7001 41.3904 18.4841 41.3904H16.0164C14.8612 41.3904 13.8903 40.5627 13.7076 39.4221L13.7076 39.4221L12.8057 33.7865C12.2801 33.5059 11.0687 32.8611 9.66093 32.1267L9.66091 32.1266C9.34772 31.9631 9.22658 31.5768 9.38978 31.2636L9.38979 31.2636C9.55332 30.9504 9.93965 30.8289 10.2529 30.9925C12.1393 31.9768 13.6743 32.8002 13.6897 32.8086M31.3229 35.3284L12.8512 33.7541C12.3379 33.48 11.112 32.8273 9.68405 32.0823C9.39536 31.9316 9.28366 31.5754 9.43412 31.2867C9.58487 30.998 9.94101 30.886 10.2297 31.0368C12.116 32.021 13.6507 32.8443 13.666 32.8526C13.828 32.9399 13.9403 33.0973 13.9693 33.2792M31.3229 35.3284L31.9576 39.4115C32.1357 40.558 33.1076 41.3904 34.2681 41.3904H36.762C37.453 41.3904 38.1054 41.0873 38.551 40.5581L31.3229 35.3284ZM13.6897 32.8086L13.666 32.8526L13.6897 32.8086C13.6897 32.8086 13.6897 32.8086 13.6897 32.8086ZM13.6897 32.8086C13.8654 32.9032 13.9873 33.074 14.0187 33.2713M14.0187 33.2713L14.0187 33.2713L13.9693 33.2792M14.0187 33.2713L14.9708 39.2198L14.9709 39.2198C15.0533 39.7366 15.4929 40.1112 16.0161 40.1112H18.4841C19.0344 40.1112 19.4985 39.6812 19.5399 39.1324L19.5897 39.1361M14.0187 33.2713L13.9693 33.2792M13.9693 33.2792L14.9215 39.2277M14.9215 39.2277C15.0078 39.7688 15.4684 40.1612 16.0161 40.1612H18.4841C19.0606 40.1612 19.5464 39.7111 19.5897 39.1361M14.9215 39.2277L32.4511 34.5808C32.405 34.2851 32.1425 34.0705 31.8456 34.0821M14.9215 39.2277L31.8437 34.0322M19.5897 39.1361L19.9434 34.4499C19.9679 34.1285 20.2572 33.881 20.5782 33.9064C25.6234 34.3077 31.6476 34.0893 31.8413 34.0823L31.8456 34.0821M19.5897 39.1361L19.5399 39.1324L19.8936 34.4461L19.8936 34.4461C19.9201 34.0971 20.2335 33.829 20.5821 33.8565L20.5822 33.8565C25.6243 34.2576 31.6459 34.0393 31.8395 34.0323L31.8437 34.0322M31.8456 34.0821L31.8439 34.0322L31.8437 34.0322M31.8456 34.0821L31.8437 34.0322" fill="#667085" stroke="#667085" stroke-width="0.1"/>
<path d="M12.325 22.4677C12.325 23.3181 12.8636 24.0042 13.5719 24.0042C14.2802 24.0042 14.8185 23.3181 14.8185 22.4677C14.8185 21.6173 14.2802 20.9312 13.5719 20.9312C12.8636 20.9312 12.325 21.6173 12.325 22.4677Z" fill="#667085" stroke="#667085" stroke-width="0.1"/>
</g>
<defs>
<clipPath id="clip0_87_6784">
<rect width="40" height="40" fill="white" transform="translate(4 4)"/>
</clipPath>
</defs>
</svg>
